<svg width="252" height="206" viewBox="0 0 252 206" fill="none" xmlns="http://www.w3.org/2000/svg">
<g opacity="0.2" clip-path="url(#clip0_627_7140)">
<path d="M217.024 12.6738C216.908 12.6738 216.792 12.616 216.734 12.616C216.503 12.616 216.271 12.616 216.039 12.616C203.355 12.616 190.671 12.616 177.986 12.616C177.639 12.616 177.291 12.616 177.002 12.5581C175.554 12.3847 174.511 11.2863 174.453 9.84094C174.453 9.6675 174.453 9.49406 174.453 9.32062C174.453 5.27372 174.453 1.22681 174.453 -2.82009C174.453 -3.10916 174.453 -3.34041 174.511 -3.62947C174.743 -5.13261 176.191 -5.9998 177.291 -6.05762C177.523 -6.05762 177.697 -6.05762 177.928 -6.05762C204.224 -6.05762 230.519 -6.05762 256.757 -6.05762C256.93 -6.05762 257.104 -6.05762 257.336 -6.05762C258.842 -5.94199 260 -4.78573 260.058 -3.34041C260.058 -3.16697 260.058 -2.99353 260.058 -2.82009C260.058 1.22681 260.058 5.27372 260.058 9.32062C260.058 9.6675 260.058 10.0144 259.942 10.3613C259.652 11.6331 258.668 12.4425 257.394 12.5003C257.162 12.5003 256.872 12.5003 256.641 12.5003C249.517 12.5003 242.335 12.5003 235.211 12.5003C234.921 12.5003 234.689 12.5003 234.4 12.5003C234.4 12.6738 234.342 12.7894 234.342 12.905C234.342 13.1363 234.342 13.3097 234.342 13.541C234.342 22.0395 234.342 30.538 234.342 39.0365C234.342 39.3833 234.342 39.7302 234.226 40.0771C233.994 41.1755 233.068 41.9271 231.967 41.9849C231.793 41.9849 231.677 41.9849 231.504 41.9849C227.623 41.9849 223.743 41.9849 219.862 41.9849C219.572 41.9849 219.283 41.9849 218.993 41.9271C217.951 41.6381 217.313 40.9443 217.14 39.9037C217.082 39.6146 217.082 39.3255 217.082 39.0365C217.082 30.4802 217.082 21.9238 217.082 13.4253C217.024 13.2519 217.082 12.9628 217.024 12.6738Z" fill="#DFDFDF"/>
<path d="M194.493 50.1362C200.169 50.1362 205.903 50.1362 211.579 50.1362C211.869 50.1362 212.158 50.1362 212.448 50.194C213.606 50.3675 214.475 51.4081 214.475 52.5066C214.475 52.68 214.475 52.8534 214.475 53.0847C214.475 56.8425 214.475 60.6004 214.475 64.3582C214.475 64.5316 214.475 64.6473 214.475 64.8207C214.475 65.977 213.548 67.2489 212.042 67.3067C211.869 67.3067 211.753 67.3067 211.579 67.3067C200.111 67.3067 188.701 67.3067 177.233 67.3067C176.943 67.3067 176.596 67.3067 176.306 67.2489C175.206 67.0176 174.395 66.0926 174.337 64.9942C174.337 64.8207 174.337 64.6473 174.337 64.4738C174.337 60.6582 174.337 56.8425 174.337 53.0269C174.337 52.7378 174.337 52.5066 174.395 52.2175C174.627 51.0612 175.553 50.2519 176.77 50.194C177.001 50.194 177.175 50.194 177.407 50.194C183.141 50.1362 188.817 50.1362 194.493 50.1362Z" fill="#DFDFDF"/>
<path d="M106.398 12.6738C106.282 12.6738 106.166 12.616 106.108 12.616C105.877 12.616 105.645 12.616 105.413 12.616C92.7289 12.616 80.0446 12.616 67.3602 12.616C67.0127 12.616 66.6652 12.616 66.3756 12.5581C64.9276 12.3847 63.8851 11.2863 63.8271 9.84094C63.8271 9.6675 63.8271 9.49406 63.8271 9.32062C63.8271 5.27372 63.8271 1.22681 63.8271 -2.82009C63.8271 -3.10916 63.8272 -3.34041 63.8851 -3.62947C64.1167 -5.13261 65.5647 -5.9998 66.6652 -6.05762C66.8969 -6.05762 67.0706 -6.05762 67.3023 -6.05762C93.5977 -6.05762 119.893 -6.05762 146.131 -6.05762C146.304 -6.05762 146.478 -6.05762 146.71 -6.05762C148.216 -5.94199 149.374 -4.78573 149.432 -3.34041C149.432 -3.16697 149.432 -2.99353 149.432 -2.82009C149.432 1.22681 149.432 5.27372 149.432 9.32062C149.432 9.6675 149.432 10.0144 149.316 10.3613C149.027 11.6331 148.042 12.4425 146.768 12.5003C146.536 12.5003 146.246 12.5003 146.015 12.5003C138.891 12.5003 131.709 12.5003 124.585 12.5003C124.295 12.5003 124.063 12.5003 123.774 12.5003C123.774 12.6738 123.716 12.7894 123.716 12.905C123.716 13.1363 123.716 13.3097 123.716 13.541C123.716 22.0395 123.716 30.538 123.716 39.0365C123.716 39.3833 123.716 39.7302 123.6 40.0771C123.368 41.1755 122.442 41.9271 121.341 41.9849C121.167 41.9849 121.051 41.9849 120.878 41.9849C116.997 41.9849 113.117 41.9849 109.236 41.9849C108.946 41.9849 108.657 41.9849 108.367 41.9271C107.325 41.6381 106.687 40.9443 106.514 39.9037C106.456 39.6146 106.456 39.3255 106.456 39.0365C106.456 30.4802 106.456 21.9238 106.456 13.4253C106.456 13.2519 106.514 12.9628 106.398 12.6738Z" fill="#DFDFDF"/>
<path d="M83.9255 50.1362C89.6016 50.1362 95.3356 50.1362 101.012 50.1362C101.301 50.1362 101.591 50.1362 101.88 50.194C103.039 50.3675 103.908 51.4081 103.908 52.5066C103.908 52.68 103.908 52.8534 103.908 53.0847C103.908 56.8425 103.908 60.6004 103.908 64.3582C103.908 64.5316 103.908 64.6473 103.908 64.8207C103.908 65.977 102.981 67.2489 101.475 67.3067C101.301 67.3067 101.185 67.3067 101.012 67.3067C89.5436 67.3067 78.1335 67.3067 66.6655 67.3067C66.3759 67.3067 66.0284 67.3067 65.7388 67.2489C64.6383 67.0176 63.8275 66.0926 63.7695 64.9942C63.7695 64.8207 63.7695 64.6473 63.7695 64.4738C63.7695 60.6582 63.7695 56.8425 63.7695 53.0269C63.7695 52.7378 63.7695 52.5066 63.8274 52.2175C64.0591 51.0612 64.9858 50.2519 66.2021 50.194C66.4338 50.194 66.6076 50.194 66.8393 50.194C72.5733 50.1362 78.2494 50.1362 83.9255 50.1362Z" fill="#DFDFDF"/>
<path d="M149.605 76.6725C149.721 76.6725 149.837 76.7303 149.895 76.7303C150.127 76.7303 150.358 76.7303 150.59 76.7303C163.274 76.7303 175.959 76.7303 188.643 76.7303C188.991 76.7303 189.338 76.7303 189.628 76.7881C191.076 76.9615 192.118 78.06 192.176 79.5053C192.176 79.6787 192.176 79.8522 192.176 80.0256C192.176 84.0725 192.176 88.1194 192.176 92.1663C192.176 92.4554 192.176 92.6867 192.118 92.9757C191.887 94.4789 190.439 95.3461 189.338 95.4039C189.106 95.4039 188.933 95.4039 188.701 95.4039C162.406 95.4039 136.11 95.4039 109.873 95.4039C109.699 95.4039 109.525 95.4039 109.293 95.4039C107.788 95.2882 106.629 94.132 106.571 92.6867C106.571 92.5132 106.571 92.3398 106.571 92.1663C106.571 88.1194 106.571 84.0725 106.571 80.0256C106.571 79.6788 106.571 79.3319 106.687 78.985C106.977 77.7131 107.961 76.9037 109.236 76.8459C109.467 76.8459 109.757 76.8459 109.989 76.8459C117.113 76.8459 124.295 76.8459 131.419 76.8459C131.708 76.8459 131.94 76.8459 132.23 76.8459C132.23 76.6725 132.287 76.5569 132.287 76.4412C132.287 76.21 132.287 76.0365 132.287 75.8053C132.287 67.3068 132.287 58.8083 132.287 50.3098C132.287 49.9629 132.287 49.616 132.403 49.2692C132.635 48.1707 133.562 47.4191 134.662 47.3613C134.836 47.3613 134.952 47.3613 135.126 47.3613C139.006 47.3613 142.887 47.3613 146.767 47.3613C147.057 47.3613 147.347 47.3613 147.636 47.4191C148.679 47.7082 149.316 48.402 149.49 49.4426C149.547 49.7317 149.547 50.0207 149.547 50.3098C149.547 58.8661 149.547 67.4224 149.547 75.9209C149.547 76.1522 149.49 76.3834 149.605 76.6725Z" fill="#DFDFDF"/>
<path d="M172.079 39.2095C166.403 39.2095 160.669 39.2095 154.993 39.2095C154.703 39.2095 154.413 39.2095 154.124 39.1517C152.965 38.9782 152.097 37.9376 152.097 36.8392C152.097 36.6657 152.097 36.4923 152.097 36.261C152.097 32.5032 152.097 28.7454 152.097 24.9875C152.097 24.8141 152.097 24.6985 152.097 24.525C152.097 23.3688 153.023 22.0969 154.529 22.0391C154.703 22.0391 154.819 22.0391 154.993 22.0391C166.461 22.0391 177.871 22.0391 189.339 22.0391C189.628 22.0391 189.976 22.0391 190.266 22.0969C191.366 22.3281 192.177 23.2531 192.235 24.3516C192.235 24.525 192.235 24.6985 192.235 24.8719C192.235 28.6875 192.235 32.5032 192.235 36.3189C192.235 36.6079 192.235 36.8392 192.177 37.1282C191.945 38.2845 191.018 39.0939 189.802 39.1517C189.571 39.1517 189.397 39.1517 189.165 39.1517C183.489 39.2095 177.755 39.2095 172.079 39.2095Z" fill="#DFDFDF"/>
<path d="M47.5517 76.6725C47.6675 76.6725 47.7833 76.7303 47.8413 76.7303C48.0729 76.7303 48.3046 76.7303 48.5363 76.7303C61.2206 76.7303 73.905 76.7303 86.5893 76.7303C86.9368 76.7303 87.2843 76.7303 87.5739 76.7881C89.0219 76.9615 90.0645 78.06 90.1224 79.5053C90.1224 79.6787 90.1224 79.8522 90.1224 80.0256C90.1224 84.0725 90.1224 88.1194 90.1224 92.1663C90.1224 92.4554 90.1224 92.6867 90.0645 92.9757C89.8328 94.4789 88.3848 95.3461 87.2843 95.4039C87.0527 95.4039 86.8789 95.4039 86.6472 95.4039C60.3518 95.4039 34.0564 95.4039 7.81898 95.4039C7.64522 95.4039 7.47147 95.4039 7.23979 95.4039C5.73388 95.2882 4.5755 94.132 4.51758 92.6867C4.51758 92.5132 4.51758 92.3398 4.51758 92.1663C4.51758 88.1194 4.51758 84.0725 4.51758 80.0256C4.51758 79.6788 4.51758 79.3319 4.63342 78.985C4.92301 77.7131 5.90764 76.9037 7.18187 76.8459C7.41355 76.8459 7.70314 76.8459 7.93482 76.8459C15.0589 76.8459 22.2409 76.8459 29.365 76.8459C29.6546 76.8459 29.8863 76.8459 30.1759 76.8459C30.1759 76.6725 30.2338 76.5569 30.2338 76.4412C30.2338 76.21 30.2338 76.0365 30.2338 75.8053C30.2338 67.3068 30.2338 58.8083 30.2338 50.3098C30.2338 49.9629 30.2338 49.616 30.3496 49.2692C30.5813 48.1707 31.508 47.4191 32.6085 47.3613C32.7822 47.3613 32.8981 47.3613 33.0718 47.3613C36.9524 47.3613 40.833 47.3613 44.7136 47.3613C45.0032 47.3613 45.2928 47.3613 45.5824 47.4191C46.625 47.7082 47.2621 48.402 47.4358 49.4426C47.4937 49.7317 47.4937 50.0207 47.4937 50.3098C47.4937 58.8661 47.4937 67.4224 47.4937 75.9209C47.4937 76.1522 47.4937 76.3834 47.5517 76.6725Z" fill="#DFDFDF"/>
<path d="M70.0828 39.2095C64.4067 39.2095 58.6727 39.2095 52.9966 39.2095C52.707 39.2095 52.4174 39.2095 52.1278 39.1517C50.9694 38.9782 50.1006 37.9376 50.1006 36.8392C50.1006 36.6657 50.1006 36.4923 50.1006 36.261C50.1006 32.5032 50.1006 28.7454 50.1006 24.9875C50.1006 24.8141 50.1006 24.6985 50.1006 24.525C50.1006 23.3688 51.0273 22.0969 52.5332 22.0391C52.707 22.0391 52.8228 22.0391 52.9966 22.0391C64.4646 22.0391 75.8747 22.0391 87.3427 22.0391C87.6323 22.0391 87.9798 22.0391 88.2694 22.0969C89.3699 22.3281 90.1808 23.2531 90.2387 24.3516C90.2387 24.525 90.2387 24.6985 90.2387 24.8719C90.2387 28.6875 90.2387 32.5032 90.2387 36.3189C90.2387 36.6079 90.2387 36.8392 90.1808 37.1282C89.9491 38.2845 89.0224 39.0939 87.8061 39.1517C87.5744 39.1517 87.4007 39.1517 87.169 39.1517C81.435 39.2095 75.7589 39.2095 70.0828 39.2095Z" fill="#DFDFDF"/>
<path d="M212.449 123.328C212.333 123.328 212.217 123.27 212.159 123.27C211.927 123.27 211.696 123.27 211.464 123.27C198.78 123.27 186.095 123.27 173.411 123.27C173.063 123.27 172.716 123.27 172.426 123.212C170.978 123.039 169.936 121.94 169.878 120.495C169.878 120.321 169.878 120.148 169.878 119.974C169.878 115.928 169.878 111.881 169.878 107.834C169.878 107.545 169.878 107.313 169.936 107.024C170.168 105.521 171.616 104.654 172.716 104.596C172.948 104.596 173.121 104.596 173.353 104.596C199.648 104.596 225.944 104.596 252.181 104.596C252.355 104.596 252.529 104.596 252.761 104.596C254.266 104.712 255.425 105.868 255.483 107.313C255.483 107.487 255.483 107.66 255.483 107.834C255.483 111.881 255.483 115.928 255.483 119.974C255.483 120.321 255.483 120.668 255.367 121.015C255.077 122.287 254.093 123.096 252.818 123.154C252.587 123.154 252.297 123.154 252.066 123.154C244.941 123.154 237.759 123.154 230.635 123.154C230.346 123.154 230.114 123.154 229.824 123.154C229.824 123.328 229.767 123.443 229.767 123.559C229.767 123.79 229.767 123.964 229.767 124.195C229.767 132.693 229.767 141.192 229.767 149.69C229.767 150.037 229.767 150.384 229.651 150.731C229.419 151.829 228.492 152.581 227.392 152.639C227.218 152.639 227.102 152.639 226.928 152.639C223.048 152.639 219.167 152.639 215.287 152.639C214.997 152.639 214.708 152.639 214.418 152.523C213.375 152.234 212.738 151.54 212.565 150.5C212.507 150.211 212.507 149.922 212.507 149.632C212.507 141.076 212.507 132.52 212.507 124.021C212.507 123.848 212.507 123.617 212.449 123.328Z" fill="#DFDFDF"/>
<path d="M189.918 160.791C195.594 160.791 201.328 160.791 207.004 160.791C207.293 160.791 207.583 160.791 207.873 160.848C209.031 161.022 209.9 162.062 209.9 163.161C209.9 163.334 209.9 163.508 209.9 163.739C209.9 167.497 209.9 171.255 209.9 175.013C209.9 175.186 209.9 175.302 209.9 175.475C209.9 176.631 208.973 177.903 207.467 177.961C207.293 177.961 207.178 177.961 207.004 177.961C195.536 177.961 184.126 177.961 172.658 177.961C172.368 177.961 172.021 177.961 171.731 177.903C170.631 177.672 169.82 176.747 169.762 175.648C169.762 175.475 169.762 175.302 169.762 175.128C169.762 171.312 169.762 167.497 169.762 163.681C169.762 163.392 169.762 163.161 169.82 162.872C170.051 161.716 170.978 160.906 172.194 160.848C172.426 160.848 172.6 160.848 172.831 160.848C178.565 160.791 184.242 160.791 189.918 160.791Z" fill="#DFDFDF"/>
<path d="M101.823 123.328C101.707 123.328 101.591 123.27 101.533 123.27C101.301 123.27 101.07 123.27 100.838 123.27C88.1537 123.27 75.4694 123.27 62.785 123.27C62.4375 123.27 62.09 123.27 61.8004 123.212C60.3524 123.039 59.3099 121.94 59.252 120.495C59.252 120.321 59.252 120.148 59.252 119.974C59.252 115.928 59.252 111.881 59.252 107.834C59.252 107.545 59.252 107.313 59.3099 107.024C59.5415 105.521 60.9895 104.654 62.09 104.596C62.3217 104.596 62.4954 104.596 62.7271 104.596C89.0225 104.596 115.318 104.596 141.555 104.596C141.729 104.596 141.903 104.596 142.135 104.596C143.64 104.712 144.799 105.868 144.857 107.313C144.857 107.487 144.857 107.66 144.857 107.834C144.857 111.881 144.857 115.928 144.857 119.974C144.857 120.321 144.857 120.668 144.741 121.015C144.451 122.287 143.467 123.096 142.192 123.154C141.961 123.154 141.671 123.154 141.44 123.154C134.315 123.154 127.133 123.154 120.009 123.154C119.72 123.154 119.488 123.154 119.198 123.154C119.198 123.328 119.141 123.443 119.141 123.559C119.141 123.79 119.141 123.964 119.141 124.195C119.141 132.693 119.141 141.192 119.141 149.69C119.141 150.037 119.141 150.384 119.025 150.731C118.793 151.829 117.866 152.581 116.766 152.639C116.592 152.639 116.476 152.639 116.303 152.639C112.422 152.639 108.541 152.639 104.661 152.639C104.371 152.639 104.082 152.639 103.792 152.523C102.749 152.234 102.112 151.54 101.939 150.5C101.881 150.211 101.881 149.922 101.881 149.632C101.881 141.076 101.881 132.52 101.881 124.021C101.881 123.848 101.939 123.617 101.823 123.328Z" fill="#DFDFDF"/>
<path d="M79.3493 160.791C85.0254 160.791 90.7594 160.791 96.4355 160.791C96.7251 160.791 97.0147 160.791 97.3043 160.848C98.4627 161.022 99.3315 162.062 99.3315 163.161C99.3315 163.334 99.3315 163.508 99.3315 163.739C99.3315 167.497 99.3315 171.255 99.3315 175.013C99.3315 175.186 99.3315 175.302 99.3315 175.475C99.3315 176.631 98.4048 177.903 96.8989 177.961C96.7251 177.961 96.6093 177.961 96.4355 177.961C84.9675 177.961 73.5574 177.961 62.0893 177.961C61.7997 177.961 61.4522 177.961 61.1626 177.903C60.0622 177.672 59.2513 176.747 59.1934 175.648C59.1934 175.475 59.1934 175.302 59.1934 175.128C59.1934 171.312 59.1934 167.497 59.1934 163.681C59.1934 163.392 59.1934 163.161 59.2513 162.872C59.483 161.716 60.4097 160.906 61.626 160.848C61.8577 160.848 62.0314 160.848 62.2631 160.848C67.9971 160.791 73.6732 160.791 79.3493 160.791Z" fill="#DFDFDF"/>
<path d="M145.03 187.326C145.146 187.326 145.262 187.384 145.32 187.384C145.551 187.384 145.783 187.384 146.015 187.384C158.699 187.384 171.383 187.384 184.068 187.384C184.415 187.384 184.763 187.384 185.052 187.442C186.5 187.615 187.543 188.714 187.601 190.159C187.601 190.333 187.601 190.506 187.601 190.679C187.601 194.726 187.601 198.773 187.601 202.82C187.601 203.109 187.601 203.34 187.543 203.63C187.311 205.133 185.863 206 184.763 206.058C184.531 206.058 184.357 206.058 184.126 206.058C157.83 206.058 131.535 206.058 105.297 206.058C105.124 206.058 104.95 206.058 104.718 206.058C103.212 205.942 102.054 204.786 101.996 203.34C101.996 203.167 101.996 202.994 101.996 202.82C101.996 198.773 101.996 194.726 101.996 190.679C101.996 190.333 101.996 189.986 102.112 189.639C102.402 188.367 103.386 187.558 104.66 187.5C104.892 187.5 105.182 187.5 105.413 187.5C112.537 187.5 119.719 187.5 126.843 187.5C127.133 187.5 127.365 187.5 127.654 187.5C127.654 187.326 127.712 187.211 127.712 187.095C127.712 186.864 127.712 186.69 127.712 186.459C127.712 177.961 127.712 169.462 127.712 160.964C127.712 160.617 127.712 160.27 127.828 159.923C128.06 158.825 128.987 158.073 130.087 158.015C130.261 158.015 130.377 158.015 130.55 158.015C134.431 158.015 138.312 158.015 142.192 158.015C142.482 158.015 142.771 158.015 143.061 158.073C144.103 158.362 144.741 159.056 144.914 160.096C144.972 160.385 144.972 160.675 144.972 160.964C144.972 169.52 144.972 178.076 144.972 186.575C144.972 186.748 144.972 187.037 145.03 187.326Z" fill="#DFDFDF"/>
<path d="M167.56 149.864C161.884 149.864 156.15 149.864 150.474 149.864C150.184 149.864 149.895 149.864 149.605 149.806C148.447 149.633 147.578 148.592 147.578 147.493C147.578 147.32 147.578 147.147 147.578 146.915C147.578 143.158 147.578 139.4 147.578 135.642C147.578 135.468 147.578 135.353 147.578 135.179C147.578 134.023 148.505 132.751 150.011 132.693C150.184 132.693 150.3 132.693 150.474 132.693C161.942 132.693 173.352 132.693 184.82 132.693C185.11 132.693 185.457 132.693 185.747 132.751C186.847 132.982 187.658 133.907 187.716 135.006C187.716 135.179 187.716 135.353 187.716 135.526C187.716 139.342 187.716 143.158 187.716 146.973C187.716 147.262 187.716 147.493 187.658 147.783C187.427 148.939 186.5 149.748 185.284 149.806C185.052 149.806 184.878 149.806 184.647 149.806C178.912 149.864 173.236 149.864 167.56 149.864Z" fill="#DFDFDF"/>
<path d="M42.9765 187.326C43.0923 187.326 43.2081 187.384 43.2661 187.384C43.4977 187.384 43.7294 187.384 43.9611 187.384C56.6454 187.384 69.3298 187.384 82.0141 187.384C82.3616 187.384 82.7092 187.384 82.9987 187.442C84.4467 187.615 85.4893 188.714 85.5472 190.159C85.5472 190.333 85.5472 190.506 85.5472 190.679C85.5472 194.726 85.5472 198.773 85.5472 202.82C85.5472 203.109 85.5472 203.34 85.4893 203.63C85.2576 205.133 83.8096 206 82.7092 206.058C82.4775 206.058 82.3037 206.058 82.072 206.058C55.7766 206.058 29.4813 206.058 3.24379 206.058C3.07003 206.058 2.89627 206.058 2.66459 206.058C1.15869 205.942 0.000302173 204.786 -0.0576172 203.34C-0.0576172 203.167 -0.0576172 202.994 -0.0576172 202.82C-0.0576172 198.773 -0.0576172 194.726 -0.0576172 190.679C-0.0576172 190.333 -0.0576172 189.986 0.0582215 189.639C0.347818 188.367 1.33245 187.558 2.60667 187.5C2.83835 187.5 3.12795 187.5 3.35963 187.5C10.4837 187.5 17.6657 187.5 24.7898 187.5C25.0794 187.5 25.3111 187.5 25.6007 187.5C25.6007 187.326 25.6586 187.211 25.6586 187.095C25.6586 186.864 25.6586 186.69 25.6586 186.459C25.6586 177.961 25.6586 169.462 25.6586 160.964C25.6586 160.617 25.6586 160.27 25.7744 159.923C26.0061 158.825 26.9328 158.073 28.0333 158.015C28.207 158.015 28.3229 158.015 28.4966 158.015C32.3772 158.015 36.2578 158.015 40.1384 158.015C40.428 158.015 40.7176 158.015 41.0072 158.073C42.0498 158.362 42.6869 159.056 42.8606 160.096C42.9185 160.385 42.9185 160.675 42.9185 160.964C42.9185 169.52 42.9185 178.076 42.9185 186.575C42.9185 186.748 42.9185 187.037 42.9765 187.326Z" fill="#DFDFDF"/>
<path d="M65.5066 149.864C59.8305 149.864 54.0965 149.864 48.4204 149.864C48.1308 149.864 47.8412 149.864 47.5516 149.806C46.3932 149.633 45.5244 148.592 45.5244 147.493C45.5244 147.32 45.5244 147.147 45.5244 146.915C45.5244 143.158 45.5244 139.4 45.5244 135.642C45.5244 135.468 45.5244 135.353 45.5244 135.179C45.5244 134.023 46.4511 132.751 47.957 132.693C48.1308 132.693 48.2466 132.693 48.4204 132.693C59.8884 132.693 71.2985 132.693 82.7666 132.693C83.0562 132.693 83.4037 132.693 83.6933 132.751C84.7937 132.982 85.6046 133.907 85.6625 135.006C85.6625 135.179 85.6625 135.353 85.6625 135.526C85.6625 139.342 85.6625 143.158 85.6625 146.973C85.6625 147.262 85.6625 147.493 85.6046 147.783C85.3729 148.939 84.4462 149.748 83.2299 149.806C82.9982 149.806 82.8245 149.806 82.5928 149.806C76.8588 149.864 71.1827 149.864 65.5066 149.864Z" fill="#DFDFDF"/>
</g>
<defs>
<clipPath id="clip0_627_7140">
<rect width="260" height="212" fill="white" transform="translate(0 -6)"/>
</clipPath>
</defs>
</svg>
