<svg width="90" height="191" viewBox="0 0 90 191" fill="none" xmlns="http://www.w3.org/2000/svg">
<g id="Graphic" opacity="0.2" clip-path="url(#clip0_104_1843)">
<path id="Vector" d="M99.8503 9.52857C99.7416 9.52857 99.6329 9.4743 99.5785 9.4743C99.3611 9.4743 99.1437 9.4743 98.9263 9.4743C87.0225 9.4743 75.1188 9.4743 63.215 9.4743C62.8889 9.4743 62.5627 9.4743 62.2909 9.42003C60.9321 9.25723 59.9537 8.22614 59.8993 6.86945C59.8993 6.70664 59.8993 6.54384 59.8993 6.38104C59.8993 2.58229 59.8993 -1.21646 59.8993 -5.0152C59.8993 -5.28654 59.8993 -5.50361 59.9537 -5.77495C60.1711 -7.18591 61.53 -7.99993 62.5627 -8.0542C62.7801 -8.0542 62.9432 -8.0542 63.1606 -8.0542C87.8378 -8.0542 112.515 -8.0542 137.138 -8.0542C137.301 -8.0542 137.464 -8.0542 137.681 -8.0542C139.095 -7.94566 140.182 -6.86031 140.236 -5.50361C140.236 -5.34081 140.236 -5.17801 140.236 -5.0152C140.236 -1.21646 140.236 2.58229 140.236 6.38104C140.236 6.70664 140.236 7.03225 140.127 7.35786C139.856 8.55175 138.932 9.3115 137.736 9.36576C137.518 9.36576 137.247 9.36576 137.029 9.36576C130.344 9.36576 123.603 9.36576 116.918 9.36576C116.646 9.36576 116.429 9.36576 116.157 9.36576C116.157 9.52857 116.102 9.6371 116.102 9.74564C116.102 9.96271 116.102 10.1255 116.102 10.3426C116.102 18.32 116.102 26.2973 116.102 34.2747C116.102 34.6003 116.102 34.9259 115.994 35.2515C115.776 36.2826 114.907 36.9881 113.874 37.0423C113.711 37.0423 113.602 37.0423 113.439 37.0423C109.797 37.0423 106.156 37.0423 102.514 37.0423C102.242 37.0423 101.97 37.0423 101.698 36.9881C100.72 36.7167 100.122 36.0655 99.959 35.0887C99.9047 34.8174 99.9047 34.546 99.9047 34.2747C99.9047 26.243 99.9047 18.2114 99.9047 10.234C99.9047 10.0712 99.959 9.79991 99.8503 9.52857Z" fill="#6D6D6D"/>
<path id="Vector_2" d="M78.7605 44.6941C84.0873 44.6941 89.4685 44.6941 94.7953 44.6941C95.0671 44.6941 95.3388 44.6941 95.6106 44.7484C96.6977 44.9112 97.513 45.888 97.513 46.9191C97.513 47.0819 97.513 47.2447 97.513 47.4617C97.513 50.9892 97.513 54.5166 97.513 58.044C97.513 58.2068 97.513 58.3153 97.513 58.4781C97.513 59.5635 96.6434 60.7574 95.2301 60.8116C95.0671 60.8116 94.9584 60.8116 94.7953 60.8116C84.033 60.8116 73.325 60.8116 62.5627 60.8116C62.2909 60.8116 61.9648 60.8116 61.693 60.7574C60.6603 60.5403 59.8993 59.672 59.845 58.6409C59.845 58.4781 59.845 58.3153 59.845 58.1525C59.845 54.5708 59.845 50.9892 59.845 47.4075C59.845 47.1361 59.845 46.9191 59.8993 46.6477C60.1167 45.5624 60.9864 44.8026 62.1279 44.7484C62.3453 44.7484 62.5084 44.7484 62.7258 44.7484C68.1069 44.6941 73.4337 44.6941 78.7605 44.6941Z" fill="#6D6D6D"/>
<path id="Vector_3" d="M44.6255 69.6029C44.7342 69.6029 44.8429 69.6572 44.8973 69.6572C45.1147 69.6572 45.3321 69.6572 45.5496 69.6572C57.4533 69.6572 69.3571 69.6572 81.2608 69.6572C81.587 69.6572 81.9131 69.6572 82.1849 69.7114C83.5438 69.8742 84.5222 70.9053 84.5765 72.262C84.5765 72.4248 84.5765 72.5876 84.5765 72.7504C84.5765 76.5492 84.5765 80.3479 84.5765 84.1467C84.5765 84.418 84.5765 84.6351 84.5222 84.9064C84.3047 86.3174 82.9459 87.1314 81.9131 87.1856C81.6957 87.1856 81.5326 87.1856 81.3152 87.1856C56.638 87.1856 31.9608 87.1856 7.33793 87.1856C7.17486 87.1856 7.01179 87.1856 6.79437 87.1856C5.38114 87.0771 4.29404 85.9918 4.23969 84.6351C4.23969 84.4723 4.23969 84.3095 4.23969 84.1467C4.23969 80.3479 4.23969 76.5492 4.23969 72.7504C4.23969 72.4248 4.23968 72.0992 4.3484 71.7736C4.62017 70.5797 5.54421 69.82 6.74002 69.7657C6.95744 69.7657 7.22921 69.7657 7.44664 69.7657C14.1323 69.7657 20.8723 69.7657 27.558 69.7657C27.8298 69.7657 28.0472 69.7657 28.319 69.7657C28.319 69.6029 28.3733 69.4944 28.3733 69.3858C28.3733 69.1687 28.3733 69.0059 28.3733 68.7889C28.3733 60.8115 28.3733 52.8341 28.3733 44.8568C28.3733 44.5312 28.3733 44.2056 28.4821 43.8799C28.6995 42.8489 29.5692 42.1434 30.6019 42.0891C30.765 42.0891 30.8737 42.0891 31.0367 42.0891C34.6785 42.0891 38.3203 42.0891 41.9621 42.0891C42.2339 42.0891 42.5057 42.0891 42.7774 42.1434C43.7558 42.4147 44.3537 43.0659 44.5168 44.0428C44.5712 44.3141 44.5712 44.5854 44.5712 44.8568C44.5712 52.8884 44.5712 60.92 44.5712 68.8974C44.5712 69.1145 44.5712 69.3315 44.6255 69.6029Z" fill="#6D6D6D"/>
<path id="Vector_4" d="M65.7697 34.4374C60.4429 34.4374 55.0617 34.4374 49.7349 34.4374C49.4631 34.4374 49.1914 34.4374 48.9196 34.3831C47.8325 34.2203 47.0172 33.2435 47.0172 32.2124C47.0172 32.0496 47.0172 31.8868 47.0172 31.6697C47.0172 28.1423 47.0172 24.6149 47.0172 21.0875C47.0172 20.9247 47.0172 20.8161 47.0172 20.6533C47.0172 19.568 47.8868 18.3741 49.3001 18.3198C49.4631 18.3198 49.5718 18.3198 49.7349 18.3198C60.4972 18.3198 71.2052 18.3198 81.9675 18.3198C82.2392 18.3198 82.5654 18.3198 82.8371 18.3741C83.8699 18.5912 84.6309 19.4594 84.6852 20.4905C84.6852 20.6533 84.6852 20.8161 84.6852 20.9789C84.6852 24.5606 84.6852 28.1423 84.6852 31.724C84.6852 31.9953 84.6852 32.2124 84.6309 32.4837C84.4134 33.5691 83.5438 34.3288 82.4023 34.3831C82.1849 34.3831 82.0218 34.3831 81.8044 34.3831C76.4233 34.4374 71.0965 34.4374 65.7697 34.4374Z" fill="#6D6D6D"/>
<path id="Vector_5" d="M95.5562 113.397C95.4475 113.397 95.3388 113.343 95.2845 113.343C95.0671 113.343 94.8496 113.343 94.6322 113.343C82.7284 113.343 70.8247 113.343 58.9209 113.343C58.5948 113.343 58.2687 113.343 57.9969 113.288C56.638 113.126 55.6596 112.095 55.6053 110.738C55.6053 110.575 55.6053 110.412 55.6053 110.249C55.6053 106.451 55.6053 102.652 55.6053 98.8532C55.6053 98.5819 55.6053 98.3648 55.6596 98.0935C55.877 96.6825 57.2359 95.8685 58.2687 95.8142C58.4861 95.8142 58.6491 95.8142 58.8666 95.8142C83.5438 95.8142 108.221 95.8142 132.844 95.8142C133.007 95.8142 133.17 95.8142 133.387 95.8142C134.801 95.9227 135.888 97.0081 135.942 98.3648C135.942 98.5276 135.942 98.6904 135.942 98.8532C135.942 102.652 135.942 106.451 135.942 110.249C135.942 110.575 135.942 110.901 135.833 111.226C135.562 112.42 134.638 113.18 133.442 113.234C133.224 113.234 132.953 113.234 132.735 113.234C126.049 113.234 119.309 113.234 112.624 113.234C112.352 113.234 112.135 113.234 111.863 113.234C111.863 113.397 111.808 113.506 111.808 113.614C111.808 113.831 111.808 113.994 111.808 114.211C111.808 122.188 111.808 130.166 111.808 138.143C111.808 138.469 111.808 138.794 111.7 139.12C111.482 140.151 110.613 140.856 109.58 140.911C109.417 140.911 109.308 140.911 109.145 140.911C105.503 140.911 101.861 140.911 98.2196 140.911C97.9479 140.911 97.6761 140.911 97.4043 140.802C96.4259 140.531 95.828 139.88 95.665 138.903C95.6106 138.632 95.6106 138.36 95.6106 138.089C95.6106 130.057 95.6106 122.026 95.6106 114.048C95.6106 113.885 95.665 113.668 95.5562 113.397Z" fill="#6D6D6D"/>
<path id="Vector_6" d="M74.4665 148.562C79.7933 148.562 85.1744 148.562 90.5012 148.562C90.773 148.562 91.0448 148.563 91.3166 148.617C92.4037 148.78 93.219 149.756 93.219 150.787C93.219 150.95 93.219 151.113 93.219 151.33C93.219 154.858 93.219 158.385 93.219 161.912C93.219 162.075 93.219 162.184 93.219 162.347C93.219 163.432 92.3493 164.626 90.9361 164.68C90.773 164.68 90.6643 164.68 90.5012 164.68C79.7389 164.68 69.031 164.68 58.2687 164.68C57.9969 164.68 57.6708 164.68 57.399 164.626C56.3662 164.409 55.6053 163.54 55.5509 162.509C55.5509 162.347 55.5509 162.184 55.5509 162.021C55.5509 158.439 55.5509 154.858 55.5509 151.276C55.5509 151.005 55.5509 150.787 55.6053 150.516C55.8227 149.431 56.6924 148.671 57.8338 148.617C58.0512 148.617 58.2143 148.617 58.4317 148.617C63.8129 148.563 69.1397 148.562 74.4665 148.562Z" fill="#6D6D6D"/>
<path id="Vector_7" d="M40.3314 173.472C40.4402 173.472 40.5489 173.526 40.6032 173.526C40.8206 173.526 41.0381 173.526 41.2555 173.526C53.1593 173.526 65.063 173.526 76.9668 173.526C77.2929 173.526 77.619 173.526 77.8908 173.58C79.2497 173.743 80.2281 174.774 80.2824 176.131C80.2824 176.293 80.2824 176.456 80.2824 176.619C80.2824 180.418 80.2824 184.217 80.2824 188.015C80.2824 188.287 80.2824 188.504 80.2281 188.775C80.0107 190.186 78.6518 191 77.619 191.054C77.4016 191.054 77.2386 191.054 77.0211 191.054C52.3439 191.054 27.6667 191.054 3.04386 191.054C2.88079 191.054 2.71773 191.054 2.50031 191.054C1.08707 190.946 -2.72319e-05 189.86 -0.0543823 188.504C-0.0543823 188.341 -0.0543823 188.178 -0.0543823 188.015C-0.0543823 184.217 -0.0543823 180.418 -0.0543823 176.619C-0.0543823 176.293 -0.0543823 175.968 0.0543279 175.642C0.326103 174.448 1.25014 173.689 2.44595 173.634C2.66337 173.634 2.93515 173.634 3.15257 173.634C9.83824 173.634 16.5783 173.634 23.264 173.634C23.5357 173.634 23.7531 173.634 24.0249 173.634C24.0249 173.472 24.0793 173.363 24.0793 173.254C24.0793 173.037 24.0793 172.875 24.0793 172.658C24.0793 164.68 24.0793 156.703 24.0793 148.725C24.0793 148.4 24.0793 148.074 24.188 147.749C24.4054 146.718 25.2751 146.012 26.3078 145.958C26.4709 145.958 26.5796 145.958 26.7427 145.958C30.3845 145.958 34.0263 145.958 37.6681 145.958C37.9398 145.958 38.2116 145.958 38.4834 146.012C39.4618 146.283 40.0597 146.935 40.2227 147.911C40.2771 148.183 40.2771 148.454 40.2771 148.725C40.2771 156.757 40.2771 164.789 40.2771 172.766C40.2771 172.929 40.2771 173.2 40.3314 173.472Z" fill="#6D6D6D"/>
<path id="Vector_8" d="M61.4756 138.306C56.1488 138.306 50.7677 138.306 45.4409 138.306C45.1691 138.306 44.8973 138.306 44.6255 138.252C43.5384 138.089 42.7231 137.112 42.7231 136.081C42.7231 135.918 42.7231 135.755 42.7231 135.538C42.7231 132.011 42.7231 128.484 42.7231 124.956C42.7231 124.793 42.7231 124.685 42.7231 124.522C42.7231 123.437 43.5928 122.243 45.006 122.188C45.1691 122.188 45.2778 122.188 45.4409 122.188C56.2032 122.188 66.9111 122.188 77.6734 122.188C77.9452 122.188 78.2713 122.188 78.5431 122.243C79.5759 122.46 80.3368 123.328 80.3912 124.359C80.3912 124.522 80.3912 124.685 80.3912 124.848C80.3912 128.429 80.3912 132.011 80.3912 135.593C80.3912 135.864 80.3912 136.081 80.3368 136.352C80.1194 137.438 79.2497 138.197 78.1083 138.252C77.8909 138.252 77.7278 138.252 77.5104 138.252C72.1292 138.306 66.8024 138.306 61.4756 138.306Z" fill="#6D6D6D"/>
</g>
<defs>
<clipPath id="clip0_104_1843">
<rect width="244" height="199" fill="white" transform="translate(0 -8)"/>
</clipPath>
</defs>
</svg>
