<svg width="77" height="199" viewBox="0 0 77 199" fill="none" xmlns="http://www.w3.org/2000/svg">
<g id="Graphic" opacity="0.2" clip-path="url(#clip0_104_1877)">
<path id="Vector" d="M36.6685 17.5286C36.5598 17.5286 36.4511 17.4743 36.3968 17.4743C36.1793 17.4743 35.9619 17.4743 35.7445 17.4743C23.8407 17.4743 11.9369 17.4743 0.0331769 17.4743C-0.292954 17.4743 -0.619074 17.4743 -0.89085 17.42C-2.24973 17.2572 -3.22812 16.2261 -3.28247 14.8694C-3.28247 14.7066 -3.28247 14.5438 -3.28247 14.381C-3.28247 10.5823 -3.28247 6.78354 -3.28247 2.9848C-3.28247 2.71346 -3.28248 2.49639 -3.22813 2.22505C-3.01071 0.814086 -1.65182 6.85826e-05 -0.619074 -0.0541992C-0.401654 -0.0541992 -0.238585 -0.0541992 -0.0211649 -0.0541992C24.656 -0.0541992 49.3333 -0.0541992 73.9561 -0.0541992C74.1192 -0.0541992 74.2822 -0.0541992 74.4997 -0.0541992C75.9129 0.0543364 77 1.13969 77.0544 2.49639C77.0544 2.65919 77.0544 2.82199 77.0544 2.9848C77.0544 6.78354 77.0544 10.5823 77.0544 14.381C77.0544 14.7066 77.0544 15.0322 76.9456 15.3579C76.6739 16.5517 75.7498 17.3115 74.554 17.3658C74.3366 17.3658 74.0648 17.3658 73.8474 17.3658C67.1617 17.3658 60.4217 17.3658 53.736 17.3658C53.4642 17.3658 53.2468 17.3658 52.9751 17.3658C52.9751 17.5286 52.9207 17.6371 52.9207 17.7456C52.9207 17.9627 52.9207 18.1255 52.9207 18.3426C52.9207 26.32 52.9207 34.2973 52.9207 42.2747C52.9207 42.6003 52.9207 42.9259 52.812 43.2515C52.5946 44.2826 51.7249 44.9881 50.6921 45.0423C50.5291 45.0423 50.4204 45.0423 50.2573 45.0423C46.6155 45.0423 42.9737 45.0423 39.3319 45.0423C39.0601 45.0423 38.7884 45.0423 38.5166 44.9881C37.5382 44.7167 36.9403 44.0655 36.7772 43.0887C36.7229 42.8174 36.7229 42.546 36.7229 42.2747C36.7229 34.243 36.7229 26.2114 36.7229 18.234C36.6685 18.0712 36.7229 17.7999 36.6685 17.5286Z" fill="#6D6D6D"/>
<path id="Vector_2" d="M15.5244 52.6941C20.8512 52.6941 26.2323 52.6941 31.5591 52.6941C31.8309 52.6941 32.1027 52.6941 32.3745 52.7484C33.4616 52.9112 34.2769 53.888 34.2769 54.9191C34.2769 55.0819 34.2769 55.2447 34.2769 55.4617C34.2769 58.9892 34.2769 62.5166 34.2769 66.044C34.2769 66.2068 34.2769 66.3153 34.2769 66.4781C34.2769 67.5635 33.4072 68.7574 31.994 68.8116C31.8309 68.8116 31.7222 68.8116 31.5591 68.8116C20.7968 68.8116 10.0889 68.8116 -0.67342 68.8116C-0.945195 68.8116 -1.27133 68.8116 -1.5431 68.7574C-2.57585 68.5403 -3.33682 67.672 -3.39117 66.6409C-3.39117 66.4781 -3.39117 66.3153 -3.39117 66.1525C-3.39117 62.5708 -3.39117 58.9892 -3.39117 55.4075C-3.39117 55.1361 -3.39117 54.9191 -3.33682 54.6477C-3.1194 53.5624 -2.24971 52.8026 -1.10825 52.7484C-0.890834 52.7484 -0.727782 52.7484 -0.510361 52.7484C4.87079 52.6941 10.1976 52.6941 15.5244 52.6941Z" fill="#6D6D6D"/>
<path id="Vector_3" d="M-26.6008 77.6029C-26.4921 77.6029 -26.3834 77.6572 -26.329 77.6572C-26.1116 77.6572 -25.8942 77.6572 -25.6768 77.6572C-13.773 77.6572 -1.86922 77.6572 10.0345 77.6572C10.3607 77.6572 10.6868 77.6572 10.9586 77.7114C12.3175 77.8742 13.2958 78.9053 13.3502 80.262C13.3502 80.4248 13.3502 80.5876 13.3502 80.7504C13.3502 84.5492 13.3502 88.3479 13.3502 92.1467C13.3502 92.418 13.3502 92.6351 13.2959 92.9064C13.0784 94.3174 11.7195 95.1314 10.6868 95.1856C10.4694 95.1856 10.3063 95.1856 10.0889 95.1856C-14.5883 95.1856 -39.2655 95.1856 -63.8884 95.1856C-64.0515 95.1856 -64.2145 95.1856 -64.4319 95.1856C-65.8452 95.0771 -66.9323 93.9918 -66.9866 92.6351C-66.9866 92.4723 -66.9866 92.3095 -66.9866 92.1467C-66.9866 88.3479 -66.9866 84.5492 -66.9866 80.7504C-66.9866 80.4248 -66.9866 80.0992 -66.8779 79.7736C-66.6061 78.5797 -65.6821 77.82 -64.4863 77.7657C-64.2689 77.7657 -63.9971 77.7657 -63.7797 77.7657C-57.094 77.7657 -50.354 77.7657 -43.6683 77.7657C-43.3965 77.7657 -43.1791 77.7657 -42.9073 77.7657C-42.9073 77.6029 -42.853 77.4944 -42.853 77.3858C-42.853 77.1687 -42.853 77.0059 -42.853 76.7889C-42.853 68.8115 -42.853 60.8341 -42.853 52.8568C-42.853 52.5312 -42.853 52.2056 -42.7443 51.8799C-42.5268 50.8489 -41.6572 50.1434 -40.6244 50.0891C-40.4613 50.0891 -40.3526 50.0891 -40.1896 50.0891C-36.5478 50.0891 -32.906 50.0891 -29.2642 50.0891C-28.9924 50.0891 -28.7206 50.0891 -28.4489 50.1434C-27.4705 50.4147 -26.8726 51.0659 -26.7095 52.0428C-26.6551 52.3141 -26.6551 52.5854 -26.6551 52.8568C-26.6551 60.8884 -26.6551 68.92 -26.6551 76.8974C-26.6551 77.1145 -26.7095 77.3315 -26.6008 77.6029Z" fill="#6D6D6D"/>
<path id="Vector_4" d="M-5.51104 42.4374C-10.8378 42.4374 -16.219 42.4374 -21.5458 42.4374C-21.8176 42.4374 -22.0893 42.4374 -22.3611 42.3831C-23.4482 42.2203 -24.2635 41.2435 -24.2635 40.2124C-24.2635 40.0496 -24.2635 39.8868 -24.2635 39.6697C-24.2635 36.1423 -24.2635 32.6149 -24.2635 29.0875C-24.2635 28.9247 -24.2635 28.8161 -24.2635 28.6533C-24.2635 27.568 -23.3939 26.3741 -21.9806 26.3198C-21.8176 26.3198 -21.7089 26.3198 -21.5458 26.3198C-10.7835 26.3198 -0.0755405 26.3198 10.6868 26.3198C10.9585 26.3198 11.2847 26.3198 11.5564 26.3741C12.5892 26.5912 13.3502 27.4594 13.4045 28.4905C13.4045 28.6533 13.4045 28.8161 13.4045 28.9789C13.4045 32.5606 13.4045 36.1423 13.4045 39.724C13.4045 39.9953 13.4045 40.2124 13.3502 40.4837C13.1327 41.5691 12.2631 42.3288 11.1216 42.3831C10.9042 42.3831 10.7411 42.3831 10.5237 42.3831C5.19691 42.4374 -0.184244 42.4374 -5.51104 42.4374Z" fill="#6D6D6D"/>
<path id="Vector_5" d="M32.3745 121.397C32.2657 121.397 32.157 121.343 32.1027 121.343C31.8853 121.343 31.6678 121.343 31.4504 121.343C19.5467 121.343 7.64289 121.343 -4.26087 121.343C-4.587 121.343 -4.91313 121.343 -5.1849 121.288C-6.54378 121.126 -7.52218 120.095 -7.57654 118.738C-7.57654 118.575 -7.57654 118.412 -7.57654 118.249C-7.57654 114.451 -7.57654 110.652 -7.57654 106.853C-7.57654 106.582 -7.57653 106.365 -7.52218 106.093C-7.30476 104.682 -5.94587 103.868 -4.91313 103.814C-4.6957 103.814 -4.53265 103.814 -4.31523 103.814C20.362 103.814 45.0392 103.814 69.662 103.814C69.8251 103.814 69.9882 103.814 70.2056 103.814C71.6188 103.923 72.7059 105.008 72.7603 106.365C72.7603 106.528 72.7603 106.69 72.7603 106.853C72.7603 110.652 72.7603 114.451 72.7603 118.249C72.7603 118.575 72.7603 118.901 72.6516 119.226C72.3798 120.42 71.4558 121.18 70.26 121.234C70.0425 121.234 69.7708 121.234 69.5534 121.234C62.8677 121.234 56.1276 121.234 49.442 121.234C49.1702 121.234 48.9528 121.234 48.681 121.234C48.681 121.397 48.6266 121.506 48.6266 121.614C48.6266 121.831 48.6266 121.994 48.6266 122.211C48.6266 130.188 48.6266 138.166 48.6266 146.143C48.6266 146.469 48.6266 146.794 48.5179 147.12C48.3005 148.151 47.4308 148.856 46.3981 148.911C46.235 148.911 46.1263 148.911 45.9632 148.911C42.3214 148.911 38.6797 148.911 35.0379 148.911C34.7661 148.911 34.4943 148.911 34.2225 148.802C33.2441 148.531 32.6462 147.88 32.4832 146.903C32.4288 146.632 32.4288 146.36 32.4288 146.089C32.4288 138.057 32.4288 130.026 32.4288 122.048C32.4288 121.885 32.4288 121.668 32.3745 121.397Z" fill="#6D6D6D"/>
<path id="Vector_6" d="M11.2303 156.562C16.5571 156.562 21.9383 156.562 27.2651 156.562C27.5368 156.562 27.8086 156.563 28.0804 156.617C29.1675 156.78 29.9828 157.756 29.9828 158.787C29.9828 158.95 29.9828 159.113 29.9828 159.33C29.9828 162.858 29.9828 166.385 29.9828 169.912C29.9828 170.075 29.9828 170.184 29.9828 170.347C29.9828 171.432 29.1132 172.626 27.6999 172.68C27.5369 172.68 27.4281 172.68 27.2651 172.68C16.5028 172.68 5.79482 172.68 -4.96749 172.68C-5.23926 172.68 -5.5654 172.68 -5.83717 172.626C-6.86992 172.409 -7.63089 171.54 -7.68524 170.509C-7.68524 170.347 -7.68524 170.184 -7.68524 170.021C-7.68524 166.439 -7.68524 162.858 -7.68524 159.276C-7.68524 159.005 -7.68524 158.787 -7.63088 158.516C-7.41346 157.431 -6.54379 156.671 -5.40234 156.617C-5.18492 156.617 -5.02185 156.617 -4.80443 156.617C0.576725 156.563 5.90352 156.562 11.2303 156.562Z" fill="#6D6D6D"/>
<path id="Vector_7" d="M-30.8949 181.472C-30.7862 181.472 -30.6774 181.526 -30.6231 181.526C-30.4057 181.526 -30.1882 181.526 -29.9708 181.526C-18.0671 181.526 -6.16331 181.526 5.74046 181.526C6.06659 181.526 6.39273 181.526 6.66451 181.58C8.02338 181.743 9.00177 182.774 9.05613 184.131C9.05613 184.293 9.05613 184.456 9.05613 184.619C9.05613 188.418 9.05613 192.217 9.05613 196.015C9.05613 196.287 9.05612 196.504 9.00177 196.775C8.78435 198.186 7.42548 199 6.39273 199.054C6.17531 199.054 6.01224 199.054 5.79482 199.054C-18.8824 199.054 -43.5596 199.054 -68.1825 199.054C-68.3455 199.054 -68.5086 199.054 -68.726 199.054C-70.1392 198.946 -71.2263 197.86 -71.2807 196.504C-71.2807 196.341 -71.2807 196.178 -71.2807 196.015C-71.2807 192.217 -71.2807 188.418 -71.2807 184.619C-71.2807 184.293 -71.2807 183.968 -71.172 183.642C-70.9002 182.448 -69.9762 181.689 -68.7804 181.634C-68.563 181.634 -68.2912 181.634 -68.0738 181.634C-61.3881 181.634 -54.648 181.634 -47.9624 181.634C-47.6906 181.634 -47.4732 181.634 -47.2014 181.634C-47.2014 181.472 -47.147 181.363 -47.147 181.254C-47.147 181.037 -47.147 180.875 -47.147 180.658C-47.147 172.68 -47.147 164.703 -47.147 156.725C-47.147 156.4 -47.147 156.074 -47.0383 155.749C-46.8209 154.718 -45.9512 154.012 -44.9185 153.958C-44.7554 153.958 -44.6467 153.958 -44.4836 153.958C-40.8419 153.958 -37.2001 153.958 -33.5583 153.958C-33.2865 153.958 -33.0147 153.958 -32.7429 154.012C-31.7645 154.283 -31.1666 154.935 -31.0036 155.911C-30.9492 156.183 -30.9492 156.454 -30.9492 156.725C-30.9492 164.757 -30.9492 172.789 -30.9492 180.766C-30.9492 180.929 -30.9492 181.2 -30.8949 181.472Z" fill="#6D6D6D"/>
<path id="Vector_8" d="M-9.75074 146.306C-15.0775 146.306 -20.4587 146.306 -25.7855 146.306C-26.0573 146.306 -26.329 146.306 -26.6008 146.252C-27.6879 146.089 -28.5032 145.112 -28.5032 144.081C-28.5032 143.918 -28.5032 143.755 -28.5032 143.538C-28.5032 140.011 -28.5032 136.484 -28.5032 132.956C-28.5032 132.793 -28.5032 132.685 -28.5032 132.522C-28.5032 131.437 -27.6336 130.243 -26.2203 130.188C-26.0573 130.188 -25.9486 130.188 -25.7855 130.188C-15.0232 130.188 -4.31522 130.188 6.44709 130.188C6.71886 130.188 7.04499 130.188 7.31677 130.243C8.34952 130.46 9.11049 131.328 9.16484 132.359C9.16484 132.522 9.16484 132.685 9.16484 132.848C9.16484 136.429 9.16484 140.011 9.16484 143.593C9.16484 143.864 9.16484 144.081 9.11048 144.352C8.89306 145.438 8.02338 146.197 6.88192 146.252C6.6645 146.252 6.50143 146.252 6.28401 146.252C0.902859 146.306 -4.42394 146.306 -9.75074 146.306Z" fill="#6D6D6D"/>
</g>
<defs>
<clipPath id="clip0_104_1877">
<rect width="244" height="199" fill="white" transform="translate(-167)"/>
</clipPath>
</defs>
</svg>
