<svg width="217" height="180" viewBox="0 0 217 180" fill="none" xmlns="http://www.w3.org/2000/svg">
<g id="Graphic" clip-path="url(#clip0_858_19708)">
<path id="Vector" d="M181.132 15.8552C181.035 15.8552 180.938 15.8061 180.89 15.8061C180.697 15.8061 180.503 15.8061 180.31 15.8061C169.723 15.8061 159.137 15.8061 148.55 15.8061C148.26 15.8061 147.97 15.8061 147.729 15.757C146.52 15.6097 145.65 14.6771 145.602 13.4499C145.602 13.3027 145.602 13.1554 145.602 13.0082C145.602 9.57211 145.602 6.13606 145.602 2.70001C145.602 2.45458 145.602 2.25823 145.65 2.0128C145.843 0.736555 147.052 0.000258323 147.97 -0.0488281C148.164 -0.0488281 148.309 -0.0488281 148.502 -0.0488281C170.449 -0.0488281 192.395 -0.0488281 214.293 -0.0488281C214.438 -0.0488281 214.583 -0.0488281 214.777 -0.0488281C216.034 0.0493448 217 1.03107 217.049 2.25823C217.049 2.40549 217.049 2.55275 217.049 2.70001C217.049 6.13606 217.049 9.57211 217.049 13.0082C217.049 13.3027 217.049 13.5972 216.952 13.8917C216.71 14.9716 215.888 15.6588 214.825 15.7079C214.632 15.7079 214.39 15.7079 214.197 15.7079C208.251 15.7079 202.256 15.7079 196.311 15.7079C196.069 15.7079 195.876 15.7079 195.634 15.7079C195.634 15.8552 195.586 15.9534 195.586 16.0515C195.586 16.2479 195.586 16.3951 195.586 16.5915C195.586 23.8072 195.586 31.0229 195.586 38.2386C195.586 38.5331 195.586 38.8276 195.489 39.1222C195.295 40.0548 194.522 40.6929 193.604 40.742C193.459 40.742 193.362 40.742 193.217 40.742C189.978 40.742 186.739 40.742 183.5 40.742C183.259 40.742 183.017 40.742 182.775 40.6929C181.905 40.4475 181.373 39.8585 181.228 38.9749C181.18 38.7295 181.18 38.484 181.18 38.2386C181.18 30.9738 181.18 23.709 181.18 16.4933C181.132 16.346 181.18 16.1006 181.132 15.8552Z" fill="black" fill-opacity="0.05"/>
<path id="Vector_2" d="M162.327 47.6631C167.065 47.6631 171.85 47.6631 176.588 47.6631C176.829 47.6631 177.071 47.6631 177.313 47.7122C178.28 47.8594 179.005 48.743 179.005 49.6756C179.005 49.8229 179.005 49.9701 179.005 50.1665C179.005 53.3571 179.005 56.5477 179.005 59.7383C179.005 59.8856 179.005 59.9838 179.005 60.131C179.005 61.1128 178.231 62.1927 176.974 62.2418C176.829 62.2418 176.733 62.2418 176.588 62.2418C167.016 62.2418 157.493 62.2418 147.922 62.2418C147.68 62.2418 147.39 62.2418 147.148 62.1927C146.23 61.9963 145.553 61.2109 145.505 60.2783C145.505 60.131 145.505 59.9838 145.505 59.8365C145.505 56.5968 145.505 53.3571 145.505 50.1174C145.505 49.872 145.505 49.6756 145.553 49.4302C145.747 48.4485 146.52 47.7613 147.535 47.7122C147.729 47.7122 147.874 47.7122 148.067 47.7122C152.853 47.6631 157.59 47.6631 162.327 47.6631Z" fill="black" fill-opacity="0.05"/>
<path id="Vector_3" d="M88.8017 15.8552C88.705 15.8552 88.6083 15.8061 88.56 15.8061C88.3666 15.8061 88.1732 15.8061 87.9799 15.8061C77.3933 15.8061 66.8068 15.8061 56.2203 15.8061C55.9302 15.8061 55.6402 15.8061 55.3985 15.757C54.19 15.6097 53.3198 14.6771 53.2715 13.4499C53.2715 13.3027 53.2715 13.1554 53.2715 13.0082C53.2715 9.57211 53.2715 6.13606 53.2715 2.70001C53.2715 2.45458 53.2715 2.25823 53.3198 2.0128C53.5132 0.736555 54.7217 0.000258323 55.6402 -0.0488281C55.8335 -0.0488281 55.9785 -0.0488281 56.1719 -0.0488281C78.1184 -0.0488281 100.065 -0.0488281 121.963 -0.0488281C122.108 -0.0488281 122.253 -0.0488281 122.447 -0.0488281C123.703 0.0493448 124.67 1.03107 124.719 2.25823C124.719 2.40549 124.719 2.55275 124.719 2.70001C124.719 6.13606 124.719 9.57211 124.719 13.0082C124.719 13.3027 124.719 13.5972 124.622 13.8917C124.38 14.9716 123.558 15.6588 122.495 15.7079C122.302 15.7079 122.06 15.7079 121.866 15.7079C115.921 15.7079 109.926 15.7079 103.981 15.7079C103.739 15.7079 103.545 15.7079 103.304 15.7079C103.304 15.8552 103.255 15.9534 103.255 16.0515C103.255 16.2479 103.255 16.3951 103.255 16.5915C103.255 23.8072 103.255 31.0229 103.255 38.2386C103.255 38.5331 103.255 38.8276 103.159 39.1222C102.965 40.0548 102.192 40.6929 101.273 40.742C101.128 40.742 101.032 40.742 100.887 40.742C97.648 40.742 94.4092 40.742 91.1704 40.742C90.9286 40.742 90.6869 40.742 90.4452 40.6929C89.5751 40.4475 89.0434 39.8585 88.8983 38.9749C88.85 38.7295 88.85 38.484 88.85 38.2386C88.85 30.9738 88.85 23.709 88.85 16.4933C88.85 16.346 88.8983 16.1006 88.8017 15.8552Z" fill="black" fill-opacity="0.05"/>
<path id="Vector_4" d="M70.0451 47.6631C74.7825 47.6631 79.5682 47.6631 84.3055 47.6631C84.5472 47.6631 84.7889 47.6631 85.0306 47.7122C85.9974 47.8594 86.7225 48.743 86.7225 49.6756C86.7225 49.8229 86.7225 49.9701 86.7225 50.1665C86.7225 53.3571 86.7225 56.5477 86.7225 59.7383C86.7225 59.8856 86.7225 59.9838 86.7225 60.131C86.7225 61.1128 85.9491 62.1927 84.6922 62.2418C84.5472 62.2418 84.4505 62.2418 84.3055 62.2418C74.7341 62.2418 65.2111 62.2418 55.6397 62.2418C55.398 62.2418 55.1079 62.2418 54.8662 62.1927C53.9478 61.9963 53.271 61.2109 53.2227 60.2783C53.2227 60.131 53.2227 59.9838 53.2227 59.8365C53.2227 56.5968 53.2227 53.3571 53.2227 50.1174C53.2227 49.872 53.2227 49.6756 53.271 49.4302C53.4644 48.4485 54.2378 47.7613 55.253 47.7122C55.4463 47.7122 55.5913 47.7122 55.7847 47.7122C60.5704 47.6631 65.3078 47.6631 70.0451 47.6631Z" fill="black" fill-opacity="0.05"/>
<path id="Vector_5" d="M124.863 70.1935C124.96 70.1935 125.057 70.2426 125.105 70.2426C125.298 70.2426 125.492 70.2426 125.685 70.2426C136.272 70.2426 146.858 70.2426 157.445 70.2426C157.735 70.2426 158.025 70.2426 158.266 70.2916C159.475 70.4389 160.345 71.3715 160.393 72.5987C160.393 72.746 160.393 72.8932 160.393 73.0405C160.393 76.4765 160.393 79.9126 160.393 83.3486C160.393 83.5941 160.393 83.7904 160.345 84.0358C160.152 85.3121 158.943 86.0484 158.025 86.0975C157.831 86.0975 157.686 86.0975 157.493 86.0975C135.546 86.0975 113.6 86.0975 91.7017 86.0975C91.5567 86.0975 91.4116 86.0975 91.2183 86.0975C89.9614 85.9993 88.9946 85.0176 88.9463 83.7904C88.9463 83.6432 88.9463 83.4959 88.9463 83.3486C88.9463 79.9126 88.9463 76.4765 88.9463 73.0405C88.9463 72.746 88.9463 72.4514 89.043 72.1569C89.2847 71.077 90.1065 70.3898 91.17 70.3407C91.3633 70.3407 91.605 70.3407 91.7984 70.3407C97.7442 70.3407 103.738 70.3407 109.684 70.3407C109.926 70.3407 110.119 70.3407 110.361 70.3407C110.361 70.1935 110.409 70.0953 110.409 69.9971C110.409 69.8008 110.409 69.6535 110.409 69.4572C110.409 62.2415 110.409 55.0258 110.409 47.81C110.409 47.5155 110.409 47.221 110.506 46.9265C110.699 45.9938 111.473 45.3557 112.391 45.3066C112.536 45.3066 112.633 45.3066 112.778 45.3066C116.017 45.3066 119.256 45.3066 122.495 45.3066C122.736 45.3066 122.978 45.3066 123.22 45.3557C124.09 45.6012 124.621 46.1902 124.767 47.0738C124.815 47.3192 124.815 47.5646 124.815 47.81C124.815 55.0748 124.815 62.3396 124.815 69.5553C124.815 69.7517 124.767 69.948 124.863 70.1935Z" fill="black" fill-opacity="0.05"/>
<path id="Vector_6" d="M143.619 38.3853C138.881 38.3853 134.096 38.3853 129.358 38.3853C129.117 38.3853 128.875 38.3853 128.633 38.3362C127.667 38.189 126.941 37.3054 126.941 36.3728C126.941 36.2255 126.941 36.0782 126.941 35.8819C126.941 32.6913 126.941 29.5007 126.941 26.31C126.941 26.1628 126.941 26.0646 126.941 25.9174C126.941 24.9356 127.715 23.8557 128.972 23.8066C129.117 23.8066 129.213 23.8066 129.358 23.8066C138.93 23.8066 148.453 23.8066 158.024 23.8066C158.266 23.8066 158.556 23.8066 158.798 23.8557C159.716 24.0521 160.393 24.8375 160.441 25.7701C160.441 25.9174 160.441 26.0646 160.441 26.2119C160.441 29.4516 160.441 32.6913 160.441 35.931C160.441 36.1764 160.441 36.3728 160.393 36.6182C160.2 37.5999 159.426 38.2871 158.411 38.3362C158.218 38.3362 158.073 38.3362 157.879 38.3362C153.142 38.3853 148.356 38.3853 143.619 38.3853Z" fill="black" fill-opacity="0.05"/>
<path id="Vector_7" d="M39.6874 70.1935C39.7841 70.1935 39.8808 70.2426 39.9291 70.2426C40.1225 70.2426 40.3158 70.2426 40.5092 70.2426C51.0957 70.2426 61.6823 70.2426 72.2688 70.2426C72.5589 70.2426 72.8489 70.2426 73.0906 70.2916C74.2991 70.4389 75.1693 71.3715 75.2176 72.5987C75.2176 72.746 75.2176 72.8932 75.2176 73.0405C75.2176 76.4765 75.2176 79.9126 75.2176 83.3486C75.2176 83.5941 75.2176 83.7904 75.1693 84.0358C74.9759 85.3121 73.7674 86.0484 72.8489 86.0975C72.6556 86.0975 72.5105 86.0975 72.3172 86.0975C50.3706 86.0975 28.4241 86.0975 6.52591 86.0975C6.38089 86.0975 6.23587 86.0975 6.04251 86.0975C4.78566 85.9993 3.81885 85.0176 3.77051 83.7904C3.77051 83.6432 3.77051 83.4959 3.77051 83.3486C3.77051 79.9126 3.77051 76.4765 3.77051 73.0405C3.77051 72.746 3.77051 72.4514 3.86719 72.1569C4.10889 71.077 4.93068 70.3898 5.99417 70.3407C6.18753 70.3407 6.42923 70.3407 6.62259 70.3407C12.5685 70.3407 18.5627 70.3407 24.5085 70.3407C24.7502 70.3407 24.9436 70.3407 25.1853 70.3407C25.1853 70.1935 25.2336 70.0953 25.2336 69.9971C25.2336 69.8008 25.2336 69.6535 25.2336 69.4572C25.2336 62.2415 25.2336 55.0258 25.2336 47.81C25.2336 47.5155 25.2336 47.221 25.3303 46.9265C25.5237 45.9938 26.2971 45.3557 27.2156 45.3066C27.3606 45.3066 27.4573 45.3066 27.6023 45.3066C30.8411 45.3066 34.0799 45.3066 37.3187 45.3066C37.5604 45.3066 37.8021 45.3066 38.0438 45.3557C38.914 45.6012 39.4457 46.1902 39.5907 47.0738C39.6391 47.3192 39.6391 47.5646 39.6391 47.81C39.6391 55.0748 39.6391 62.3396 39.6391 69.5553C39.6391 69.7517 39.6391 69.948 39.6874 70.1935Z" fill="black" fill-opacity="0.05"/>
<path id="Vector_8" d="M58.4919 38.3853C53.7545 38.3853 48.9688 38.3853 44.2315 38.3853C43.9898 38.3853 43.7481 38.3853 43.5064 38.3362C42.5396 38.189 41.8145 37.3054 41.8145 36.3728C41.8145 36.2255 41.8145 36.0782 41.8145 35.8819C41.8145 32.6913 41.8145 29.5007 41.8145 26.31C41.8145 26.1628 41.8145 26.0646 41.8145 25.9174C41.8145 24.9356 42.5879 23.8557 43.8447 23.8066C43.9898 23.8066 44.0865 23.8066 44.2315 23.8066C53.8029 23.8066 63.3259 23.8066 72.8973 23.8066C73.139 23.8066 73.4291 23.8066 73.6708 23.8557C74.5892 24.0521 75.266 24.8375 75.3143 25.7701C75.3143 25.9174 75.3143 26.0646 75.3143 26.2119C75.3143 29.4516 75.3143 32.6913 75.3143 35.931C75.3143 36.1764 75.3143 36.3728 75.266 36.6182C75.0726 37.5999 74.2992 38.2871 73.284 38.3362C73.0907 38.3362 72.9457 38.3362 72.7523 38.3362C67.9666 38.3853 63.2292 38.3853 58.4919 38.3853Z" fill="black" fill-opacity="0.05"/>
<path id="Vector_9" d="M177.312 109.806C177.216 109.806 177.119 109.757 177.071 109.757C176.877 109.757 176.684 109.757 176.491 109.757C165.904 109.757 155.318 109.757 144.731 109.757C144.441 109.757 144.151 109.757 143.909 109.708C142.701 109.561 141.831 108.628 141.782 107.401C141.782 107.254 141.782 107.107 141.782 106.959C141.782 103.523 141.782 100.087 141.782 96.6512C141.782 96.4057 141.782 96.2094 141.831 95.964C142.024 94.6877 143.232 93.9514 144.151 93.9023C144.344 93.9023 144.489 93.9023 144.683 93.9023C166.629 93.9023 188.576 93.9023 210.474 93.9023C210.619 93.9023 210.764 93.9023 210.957 93.9023C212.214 94.0005 213.181 94.9822 213.229 96.2094C213.229 96.3567 213.229 96.5039 213.229 96.6512C213.229 100.087 213.229 103.523 213.229 106.959C213.229 107.254 213.229 107.548 213.133 107.843C212.891 108.923 212.069 109.61 211.006 109.659C210.812 109.659 210.571 109.659 210.377 109.659C204.431 109.659 198.437 109.659 192.491 109.659C192.25 109.659 192.056 109.659 191.815 109.659C191.815 109.806 191.766 109.905 191.766 110.003C191.766 110.199 191.766 110.346 191.766 110.543C191.766 117.758 191.766 124.974 191.766 132.19C191.766 132.484 191.766 132.779 191.67 133.073C191.476 134.006 190.703 134.644 189.784 134.693C189.639 134.693 189.543 134.693 189.398 134.693C186.159 134.693 182.92 134.693 179.681 134.693C179.439 134.693 179.198 134.693 178.956 134.595C178.086 134.35 177.554 133.761 177.409 132.877C177.361 132.632 177.361 132.386 177.361 132.141C177.361 124.876 177.361 117.611 177.361 110.395C177.361 110.248 177.361 110.052 177.312 109.806Z" fill="black" fill-opacity="0.05"/>
<path id="Vector_10" d="M158.508 141.614C163.245 141.614 168.031 141.614 172.768 141.614C173.01 141.614 173.252 141.614 173.494 141.663C174.46 141.811 175.185 142.694 175.185 143.627C175.185 143.774 175.185 143.921 175.185 144.118C175.185 147.308 175.185 150.499 175.185 153.69C175.185 153.837 175.185 153.935 175.185 154.082C175.185 155.064 174.412 156.144 173.155 156.193C173.01 156.193 172.913 156.193 172.768 156.193C163.197 156.193 153.674 156.193 144.103 156.193C143.861 156.193 143.571 156.193 143.329 156.144C142.411 155.948 141.734 155.162 141.686 154.229C141.686 154.082 141.686 153.935 141.686 153.788C141.686 150.548 141.686 147.308 141.686 144.069C141.686 143.823 141.686 143.627 141.734 143.381C141.927 142.4 142.701 141.712 143.716 141.663C143.909 141.663 144.054 141.663 144.248 141.663C149.033 141.614 153.771 141.614 158.508 141.614Z" fill="black" fill-opacity="0.05"/>
<path id="Vector_11" d="M84.9823 109.806C84.8857 109.806 84.789 109.757 84.7406 109.757C84.5473 109.757 84.3539 109.757 84.1605 109.757C73.574 109.757 62.9875 109.757 52.4009 109.757C52.1109 109.757 51.8208 109.757 51.5791 109.708C50.3706 109.561 49.5005 108.628 49.4521 107.401C49.4521 107.254 49.4521 107.107 49.4521 106.959C49.4521 103.523 49.4521 100.087 49.4521 96.6512C49.4521 96.4057 49.4521 96.2094 49.5005 95.964C49.6938 94.6877 50.9024 93.9514 51.8208 93.9023C52.0142 93.9023 52.1592 93.9023 52.3526 93.9023C74.2991 93.9023 96.2456 93.9023 118.144 93.9023C118.289 93.9023 118.434 93.9023 118.627 93.9023C119.884 94.0005 120.851 94.9822 120.899 96.2094C120.899 96.3567 120.899 96.5039 120.899 96.6512C120.899 100.087 120.899 103.523 120.899 106.959C120.899 107.254 120.899 107.548 120.803 107.843C120.561 108.923 119.739 109.61 118.676 109.659C118.482 109.659 118.241 109.659 118.047 109.659C112.101 109.659 106.107 109.659 100.161 109.659C99.9195 109.659 99.7262 109.659 99.4844 109.659C99.4844 109.806 99.4361 109.905 99.4361 110.003C99.4361 110.199 99.4361 110.346 99.4361 110.543C99.4361 117.758 99.4361 124.974 99.4361 132.19C99.4361 132.484 99.4361 132.779 99.3394 133.073C99.1461 134.006 98.3726 134.644 97.4542 134.693C97.3091 134.693 97.2124 134.693 97.0674 134.693C93.8286 134.693 90.5898 134.693 87.351 134.693C87.1093 134.693 86.8676 134.693 86.6259 134.595C85.7558 134.35 85.224 133.761 85.079 132.877C85.0307 132.632 85.0307 132.386 85.0307 132.141C85.0307 124.876 85.0307 117.611 85.0307 110.395C85.0307 110.248 85.079 110.052 84.9823 109.806Z" fill="black" fill-opacity="0.05"/>
<path id="Vector_12" d="M66.2268 141.614C70.9641 141.614 75.7498 141.614 80.4872 141.614C80.7289 141.614 80.9706 141.614 81.2123 141.663C82.1791 141.811 82.9042 142.694 82.9042 143.627C82.9042 143.774 82.9042 143.921 82.9042 144.118C82.9042 147.308 82.9042 150.499 82.9042 153.69C82.9042 153.837 82.9042 153.935 82.9042 154.082C82.9042 155.064 82.1307 156.144 80.8739 156.193C80.7289 156.193 80.6322 156.193 80.4872 156.193C70.9158 156.193 61.3927 156.193 51.8213 156.193C51.5796 156.193 51.2896 156.193 51.0479 156.144C50.1294 155.948 49.4526 155.162 49.4043 154.229C49.4043 154.082 49.4043 153.935 49.4043 153.788C49.4043 150.548 49.4043 147.308 49.4043 144.069C49.4043 143.823 49.4043 143.627 49.4526 143.381C49.646 142.4 50.4194 141.712 51.4346 141.663C51.628 141.663 51.773 141.663 51.9663 141.663C56.752 141.614 61.4894 141.614 66.2268 141.614Z" fill="black" fill-opacity="0.05"/>
<path id="Vector_13" d="M121.044 164.145C121.141 164.145 121.237 164.194 121.286 164.194C121.479 164.194 121.672 164.194 121.866 164.194C132.452 164.194 143.039 164.194 153.625 164.194C153.915 164.194 154.205 164.194 154.447 164.243C155.656 164.39 156.526 165.323 156.574 166.55C156.574 166.697 156.574 166.844 156.574 166.992C156.574 170.428 156.574 173.864 156.574 177.3C156.574 177.545 156.574 177.742 156.526 177.987C156.332 179.263 155.124 180 154.205 180.049C154.012 180.049 153.867 180.049 153.674 180.049C131.727 180.049 109.781 180.049 87.8824 180.049C87.7373 180.049 87.5923 180.049 87.3989 180.049C86.1421 179.95 85.1753 178.969 85.127 177.742C85.127 177.594 85.127 177.447 85.127 177.3C85.127 173.864 85.127 170.428 85.127 166.992C85.127 166.697 85.127 166.403 85.2236 166.108C85.4653 165.028 86.2871 164.341 87.3506 164.292C87.544 164.292 87.7857 164.292 87.979 164.292C93.9249 164.292 99.9191 164.292 105.865 164.292C106.107 164.292 106.3 164.292 106.542 164.292C106.542 164.145 106.59 164.046 106.59 163.948C106.59 163.752 106.59 163.605 106.59 163.408C106.59 156.193 106.59 148.977 106.59 141.761C106.59 141.467 106.59 141.172 106.687 140.878C106.88 139.945 107.654 139.307 108.572 139.258C108.717 139.258 108.814 139.258 108.959 139.258C112.198 139.258 115.436 139.258 118.675 139.258C118.917 139.258 119.159 139.258 119.4 139.307C120.27 139.552 120.802 140.141 120.947 141.025C120.996 141.27 120.996 141.516 120.996 141.761C120.996 149.026 120.996 156.291 120.996 163.507C120.996 163.654 120.996 163.899 121.044 164.145Z" fill="black" fill-opacity="0.05"/>
<path id="Vector_14" d="M139.848 132.337C135.111 132.337 130.325 132.337 125.588 132.337C125.346 132.337 125.105 132.337 124.863 132.288C123.896 132.141 123.171 131.258 123.171 130.325C123.171 130.178 123.171 130.03 123.171 129.834C123.171 126.643 123.171 123.453 123.171 120.262C123.171 120.115 123.171 120.017 123.171 119.87C123.171 118.888 123.944 117.808 125.201 117.759C125.346 117.759 125.443 117.759 125.588 117.759C135.159 117.759 144.682 117.759 154.254 117.759C154.495 117.759 154.786 117.759 155.027 117.808C155.946 118.004 156.622 118.79 156.671 119.722C156.671 119.87 156.671 120.017 156.671 120.164C156.671 123.404 156.671 126.643 156.671 129.883C156.671 130.129 156.671 130.325 156.622 130.57C156.429 131.552 155.656 132.239 154.64 132.288C154.447 132.288 154.302 132.288 154.109 132.288C149.323 132.337 144.586 132.337 139.848 132.337Z" fill="black" fill-opacity="0.05"/>
<path id="Vector_15" d="M35.8681 164.145C35.9648 164.145 36.0614 164.194 36.1098 164.194C36.3031 164.194 36.4965 164.194 36.6899 164.194C47.2764 164.194 57.863 164.194 68.4495 164.194C68.7395 164.194 69.0296 164.194 69.2713 164.243C70.4798 164.39 71.3499 165.323 71.3983 166.55C71.3983 166.697 71.3983 166.844 71.3983 166.992C71.3983 170.428 71.3983 173.864 71.3983 177.3C71.3983 177.545 71.3983 177.742 71.3499 177.987C71.1566 179.263 69.9481 180 69.0296 180.049C68.8362 180.049 68.6912 180.049 68.4978 180.049C46.5513 180.049 24.6048 180.049 2.70657 180.049C2.56155 180.049 2.41653 180.049 2.22317 180.049C0.96632 179.95 -0.000487737 178.969 -0.0488281 177.742C-0.0488281 177.594 -0.0488281 177.447 -0.0488281 177.3C-0.0488281 173.864 -0.0488281 170.428 -0.0488281 166.992C-0.0488281 166.697 -0.0488281 166.403 0.0478527 166.108C0.289555 165.028 1.11134 164.341 2.17483 164.292C2.36819 164.292 2.60989 164.292 2.80325 164.292C8.74912 164.292 14.7433 164.292 20.6892 164.292C20.9309 164.292 21.1243 164.292 21.366 164.292C21.366 164.145 21.4143 164.046 21.4143 163.948C21.4143 163.752 21.4143 163.605 21.4143 163.408C21.4143 156.193 21.4143 148.977 21.4143 141.761C21.4143 141.467 21.4143 141.172 21.511 140.878C21.7043 139.945 22.4778 139.307 23.3963 139.258C23.5413 139.258 23.638 139.258 23.783 139.258C27.0218 139.258 30.2606 139.258 33.4994 139.258C33.7411 139.258 33.9828 139.258 34.2245 139.307C35.0946 139.552 35.6264 140.141 35.7714 141.025C35.8197 141.27 35.8197 141.516 35.8197 141.761C35.8197 149.026 35.8197 156.291 35.8197 163.507C35.8197 163.654 35.8197 163.899 35.8681 164.145Z" fill="black" fill-opacity="0.05"/>
<path id="Vector_16" d="M54.6726 132.337C49.9352 132.337 45.1495 132.337 40.4121 132.337C40.1704 132.337 39.9287 132.337 39.687 132.288C38.7202 132.141 37.9951 131.258 37.9951 130.325C37.9951 130.178 37.9951 130.03 37.9951 129.834C37.9951 126.643 37.9951 123.453 37.9951 120.262C37.9951 120.115 37.9951 120.017 37.9951 119.87C37.9951 118.888 38.7686 117.808 40.0254 117.759C40.1704 117.759 40.2671 117.759 40.4121 117.759C49.9835 117.759 59.5066 117.759 69.078 117.759C69.3197 117.759 69.6097 117.759 69.8514 117.808C70.7699 118.004 71.4467 118.79 71.495 119.722C71.495 119.87 71.495 120.017 71.495 120.164C71.495 123.404 71.495 126.643 71.495 129.883C71.495 130.129 71.495 130.325 71.4467 130.57C71.2533 131.552 70.4799 132.239 69.4647 132.288C69.2713 132.288 69.1263 132.288 68.933 132.288C64.1473 132.337 59.4099 132.337 54.6726 132.337Z" fill="black" fill-opacity="0.05"/>
</g>
<defs>
<clipPath id="clip0_858_19708">
<rect width="217" height="180" fill="white"/>
</clipPath>
</defs>
</svg>
