<svg width="36" height="36" viewBox="0 0 36 36" fill="none" xmlns="http://www.w3.org/2000/svg">
<g clip-path="url(#clip0_627_7393)">
<path d="M20.041 25.5C19.8389 25.4993 19.6391 25.4577 19.4535 25.3778C19.2679 25.2979 19.1004 25.1813 18.961 25.035L13.171 19.035C12.8961 18.7546 12.7422 18.3777 12.7422 17.985C12.7422 17.5924 12.8961 17.2154 13.171 16.935L19.171 10.935C19.3108 10.7952 19.4769 10.6842 19.6596 10.6085C19.8423 10.5329 20.0382 10.4939 20.236 10.4939C20.4338 10.4939 20.6296 10.5329 20.8123 10.6085C20.9951 10.6842 21.1611 10.7952 21.301 10.935C21.4408 11.0749 21.5518 11.2409 21.6275 11.4237C21.7032 11.6064 21.7421 11.8022 21.7421 12C21.7421 12.1978 21.7032 12.3937 21.6275 12.5764C21.5518 12.7591 21.4408 12.9252 21.301 13.065L16.351 18L21.121 22.95C21.4004 23.2311 21.5572 23.6113 21.5572 24.0075C21.5572 24.4038 21.4004 24.784 21.121 25.065C20.979 25.2059 20.8104 25.3169 20.6249 25.3916C20.4394 25.4663 20.2409 25.5032 20.041 25.5Z" fill="black"/>
</g>
<defs>
<clipPath id="clip0_627_7393">
<rect width="36" height="36" fill="white"/>
</clipPath>
</defs>
</svg>
