<svg width="20" height="20" viewBox="0 0 20 20" fill="none" xmlns="http://www.w3.org/2000/svg">
<g id="icon">
<path id="Vector" d="M4.75384 3.0915L3.57884 1.90817C0.833008 4.63567 0.833008 6.61234 0.833008 9.1665H1.66634L2.49967 9.114C2.49967 6.674 2.49967 5.32984 4.75384 3.0915ZM16.4197 1.90817L15.2463 3.0915C17.4997 5.32984 17.4997 6.674 17.4997 9.1665L19.1663 9.114C19.1663 6.61234 19.1663 4.63567 16.4197 1.90817ZM9.99967 18.3332C10.5158 18.3338 11.0192 18.1737 11.4401 17.875C11.8609 17.5763 12.1783 17.1539 12.348 16.6665H7.65134C7.82106 17.1539 8.13841 17.5763 8.55927 17.875C8.98013 18.1737 9.48359 18.3338 9.99967 18.3332ZM15.833 12.1548V8.33317C15.833 5.65234 14.0122 3.394 11.5455 2.71484C11.3013 2.09984 10.7047 1.6665 9.99967 1.6665C9.29467 1.6665 8.69801 2.09984 8.45384 2.71484C5.98634 3.394 4.16634 5.65234 4.16634 8.33317V12.1548L2.74384 13.5773C2.66631 13.6546 2.60482 13.7464 2.56291 13.8475C2.52101 13.9486 2.49952 14.0571 2.49967 14.1665V14.9998C2.49967 15.2209 2.58747 15.4328 2.74375 15.5891C2.90003 15.7454 3.11199 15.8332 3.33301 15.8332H16.6663C16.8874 15.8332 17.0993 15.7454 17.2556 15.5891C17.4119 15.4328 17.4997 15.2209 17.4997 14.9998V14.1665C17.4998 14.0571 17.4783 13.9486 17.4364 13.8475C17.3945 13.7464 17.333 13.6546 17.2555 13.5773L15.833 12.1548Z" fill="#4D36FF"/>
</g>
</svg>
