<svg width="307" height="73" viewBox="0 0 307 73" fill="none" xmlns="http://www.w3.org/2000/svg">
<ellipse cx="181.369" cy="64" rx="9.0609" ry="9.00004" fill="#EFEFEF"/>
<ellipse cx="116.936" cy="20" rx="9.0609" ry="9.00004" fill="#EFEFEF"/>
<ellipse cx="102.041" cy="30" rx="6.0406" ry="6.00003" fill="#EFEFEF"/>
<ellipse cx="189.959" cy="11" rx="6.0406" ry="6.00003" fill="#EFEFEF"/>
<ellipse cx="121.673" cy="63.501" rx="4.53045" ry="4.50002" fill="#EFEFEF"/>
<ellipse cx="152.678" cy="35.5002" rx="35.7402" ry="35.5002" fill="#EFEFEF"/>
<g clip-path="url(#clip0_8236_15528)">
<path d="M169.72 42.808L157.576 22.6679C157.085 21.8997 156.408 21.2675 155.609 20.8296C154.809 20.3917 153.912 20.1621 153 20.1621C152.088 20.1621 151.191 20.3917 150.392 20.8296C149.592 21.2675 148.915 21.8997 148.424 22.6679L136.28 42.808C135.851 43.5232 135.618 44.3386 135.604 45.1724C135.59 46.0063 135.796 46.829 136.201 47.5581C136.669 48.3787 137.347 49.0602 138.165 49.5331C138.983 50.0061 139.911 50.2533 140.856 50.2497H165.144C166.083 50.2598 167.007 50.022 167.825 49.5606C168.642 49.0991 169.323 48.4302 169.799 47.6214C170.216 46.8848 170.429 46.0502 170.415 45.2039C170.401 44.3577 170.161 43.5305 169.72 42.808ZM167.029 46.0539C166.838 46.381 166.562 46.6498 166.23 46.8312C165.898 47.0126 165.522 47.0997 165.144 47.0831H140.856C140.478 47.0997 140.103 47.0126 139.77 46.8312C139.438 46.6498 139.162 46.381 138.972 46.0539C138.833 45.8132 138.76 45.5402 138.76 45.2622C138.76 44.9843 138.833 44.7112 138.972 44.4705L151.132 24.3146C151.35 24.026 151.633 23.7919 151.957 23.6307C152.281 23.4696 152.638 23.3857 153 23.3857C153.362 23.3857 153.719 23.4696 154.043 23.6307C154.368 23.7919 154.65 24.026 154.869 24.3146L167.013 44.4547C167.157 44.6959 167.235 44.9711 167.237 45.2522C167.24 45.5332 167.168 45.8099 167.029 46.0539Z" fill="#181818"/>
<path d="M152.999 43.9167C153.874 43.9167 154.583 43.2078 154.583 42.3333C154.583 41.4589 153.874 40.75 152.999 40.75C152.125 40.75 151.416 41.4589 151.416 42.3333C151.416 43.2078 152.125 43.9167 152.999 43.9167Z" fill="#181818"/>
<path d="M152.999 29.667C152.579 29.667 152.177 29.8338 151.88 30.1307C151.583 30.4277 151.416 30.8304 151.416 31.2503V37.5837C151.416 38.0036 151.583 38.4064 151.88 38.7033C152.177 39.0002 152.579 39.167 152.999 39.167C153.419 39.167 153.822 39.0002 154.119 38.7033C154.416 38.4064 154.583 38.0036 154.583 37.5837V31.2503C154.583 30.8304 154.416 30.4277 154.119 30.1307C153.822 29.8338 153.419 29.667 152.999 29.667Z" fill="#181818"/>
</g>
<defs>
<clipPath id="clip0_8236_15528">
<rect width="38" height="38.0002" fill="white" transform="translate(134 17)"/>
</clipPath>
</defs>
</svg>
