<svg width="15" height="20" viewBox="0 0 15 20" fill="none" xmlns="http://www.w3.org/2000/svg">
<path d="M14.4998 18.75L12.1898 9.75C13.0439 8.68737 13.5064 7.36329 13.4998 6C13.4998 4.4087 12.8677 2.88258 11.7424 1.75736C10.6172 0.632141 9.09109 0 7.49979 0C5.90849 0 4.38237 0.632141 3.25715 1.75736C2.13193 2.88258 1.49979 4.4087 1.49979 6C1.49705 7.37381 1.9706 8.7061 2.83979 9.77L0.499793 18.75C0.450019 18.9419 0.458427 19.1443 0.523949 19.3315C0.589471 19.5186 0.709148 19.6821 0.867774 19.801C1.0264 19.92 1.21681 19.9891 1.41482 19.9996C1.61282 20.0101 1.80947 19.9615 1.97979 19.86L7.30979 16.73L12.9898 19.87C13.1433 19.9626 13.3207 20.0078 13.4998 20C13.6551 20.005 13.8094 19.9737 13.9504 19.9086C14.0915 19.8435 14.2155 19.7465 14.3125 19.6252C14.4096 19.5039 14.477 19.3616 14.5095 19.2097C14.5421 19.0578 14.5387 18.9004 14.4998 18.75ZM7.49979 2C8.29092 2 9.06428 2.2346 9.72207 2.67412C10.3799 3.11365 10.8926 3.73836 11.1953 4.46927C11.4981 5.20017 11.5773 6.00444 11.4229 6.78036C11.2686 7.55629 10.8876 8.26902 10.3282 8.82843C9.76881 9.38784 9.05608 9.7688 8.28015 9.92314C7.50423 10.0775 6.69996 9.99827 5.96906 9.69552C5.23815 9.39277 4.61344 8.88008 4.17392 8.22228C3.73439 7.56448 3.49979 6.79113 3.49979 6C3.49979 4.93913 3.92122 3.92172 4.67137 3.17157C5.42151 2.42143 6.43893 2 7.49979 2Z" fill="#181818"/>
</svg>
