<svg width="14" height="14" viewBox="0 0 14 14" fill="none" xmlns="http://www.w3.org/2000/svg">
<g id="icon/alert">
<path id="Vector" d="M6.97291 1.1665C3.77158 1.1665 1.16699 3.78334 1.16699 6.99984C1.16699 10.2163 3.78383 12.8332 7.00033 12.8332C10.2168 12.8332 12.8337 10.2163 12.8337 6.99984C12.8337 3.78334 10.2046 1.1665 6.97291 1.1665ZM7.00033 11.6665C4.42724 11.6665 2.33366 9.57292 2.33366 6.99984C2.33366 4.42675 4.41441 2.33317 6.97291 2.33317C9.56174 2.33317 11.667 4.42675 11.667 6.99984C11.667 9.57292 9.57341 11.6665 7.00033 11.6665Z" fill="#6D6D6D"/>
<path id="Vector_2" d="M6.41699 4.0835H7.58366V8.16683H6.41699V4.0835ZM6.41699 8.75016H7.58366V9.91683H6.41699V8.75016Z" fill="#6D6D6D"/>
</g>
</svg>
