<svg width="51" height="50" viewBox="0 0 51 50" fill="none" xmlns="http://www.w3.org/2000/svg">
<g clip-path="url(#clip0_736_13259)">
<path d="M10.3445 43.0028C10.2303 42.9568 10.1275 42.9222 10.0361 42.8877C9.43065 42.6805 8.84806 42.4157 8.29974 42.0934C6.99748 41.3221 6.01507 40.2514 5.4439 38.847C5.00981 37.7764 4.61 36.6942 4.2673 35.5891C3.7304 33.8277 3.27346 32.0434 2.77084 30.2705C2.54237 29.4762 2.27963 28.6934 2.03974 27.899C1.95978 27.6458 1.87982 27.381 1.78843 27.0817C1.69704 27.0471 1.55996 27.0011 1.43431 26.9435C0.451897 26.5521 -0.0850003 25.5621 0.177737 24.5836C0.337664 23.9849 0.668941 23.536 1.30865 23.3518C2.55379 22.9949 3.81036 22.9604 5.05551 23.3172C5.92368 23.5705 6.76901 23.8583 7.62576 24.1231C9.28215 24.6526 10.9728 24.9865 12.6977 25.2282C14.1599 25.4355 15.6107 25.6197 17.0729 25.7808C21.0482 26.2298 24.9778 26.0111 28.8846 25.1477C31.4663 24.5721 33.9909 23.8008 36.504 22.9834C38.5145 22.3272 40.5364 21.7516 42.6155 21.3487C44.032 21.0724 45.4599 20.8767 46.8992 20.9803C47.5504 21.0264 48.1787 21.1415 48.7841 21.4062C50.2349 22.0509 50.3262 23.513 49.8693 24.503C49.6066 25.0671 49.2296 25.2513 48.5899 25.1707C48.567 25.2398 48.5214 25.3203 48.5099 25.4009C47.6092 29.0573 46.7736 32.1815 45.4942 35.6812C45.0943 36.7748 44.7402 37.8915 44.249 38.9506C43.7692 39.9752 43.1752 40.9191 42.3642 41.702C41.7359 42.3121 41.0276 42.7841 40.148 42.9222C39.8739 42.9683 39.5883 42.9683 39.3027 42.9798C39.1885 42.9913 39.0742 42.9913 38.9257 43.0028C38.9372 43.1179 38.9486 43.1985 38.96 43.2791C39.0285 43.5669 39.1085 43.8432 39.1656 44.131C39.2227 44.4188 39.2342 44.7181 39.0971 44.9944C38.9829 45.2477 38.7887 45.4204 38.5373 45.5009C37.8519 45.7312 37.1437 45.8348 36.424 45.7197C35.8072 45.6276 35.3502 45.2937 35.0989 44.7296C34.9161 44.3267 34.8019 43.8893 34.6534 43.4633C34.6191 43.3597 34.5963 43.2561 34.562 43.141C34.4135 43.141 34.265 43.141 34.1279 43.141C30.4153 43.2446 26.7142 43.3482 23.0016 43.4518C20.26 43.5209 17.507 43.6475 14.7539 43.5784C14.6968 43.5784 14.6511 43.5784 14.5826 43.5899C14.514 43.8432 14.4569 44.0965 14.3655 44.3382C14.2627 44.6375 14.1485 44.9368 14 45.2131C13.6344 45.8808 13.0404 46.1686 12.2979 46.1456C11.8296 46.1341 11.384 45.996 10.9728 45.7542C10.196 45.2937 9.91043 44.6145 10.1161 43.7281C10.196 43.4978 10.276 43.2561 10.3445 43.0028ZM47.0363 25.0556C46.8307 25.0556 46.6708 25.0441 46.5337 25.0556C45.9168 25.1246 45.3 25.1707 44.6945 25.2628C43.1638 25.5045 41.6788 25.9305 40.1937 26.3679C37.098 27.2889 34.0023 28.1753 30.8494 28.8545C27.628 29.5453 24.3838 29.9252 21.0939 29.8446C18.8092 29.787 16.536 29.6604 14.2627 29.4186C10.7329 29.0387 7.22594 28.4862 3.79894 27.5537C3.71898 27.5307 3.63901 27.5307 3.5362 27.5076C3.55905 27.5997 3.57047 27.6688 3.5819 27.7264C3.8789 28.7394 4.19876 29.7525 4.47292 30.7655C5.04408 32.9413 5.62668 35.1056 6.41489 37.2123C6.58624 37.6612 6.76901 38.0987 6.97463 38.5362C7.40872 39.4571 8.08269 40.1824 8.95087 40.6889C9.41923 40.9652 9.91043 41.1954 10.4131 41.3911C11.3155 41.7365 12.2751 41.9092 13.2346 41.9667C14.4341 42.0358 15.6335 42.0934 16.833 42.0819C19.5175 42.0473 22.202 41.9552 24.875 41.8862C27.788 41.8056 30.6895 41.7135 33.6025 41.6559C34.859 41.6214 36.1156 41.6444 37.3722 41.6329C38.0576 41.6214 38.7315 41.5753 39.4169 41.5293C40.1595 41.4832 40.7877 41.1609 41.3132 40.6313C41.8501 40.1018 42.3071 39.5032 42.6383 38.824C42.9239 38.2368 43.1981 37.6382 43.4265 37.0281C43.7464 36.1992 44.0206 35.3473 44.3176 34.5069C45.1092 31.7573 45.542 30.5891 46.6063 26.7403C46.7627 26.1748 46.8992 25.7002 47.0363 25.0556ZM48.4642 23.8928C48.7498 23.3288 48.6584 23.0179 48.133 22.7762C47.6989 22.5805 47.2419 22.5229 46.7736 22.4884C45.4371 22.3963 44.1234 22.592 42.8097 22.8453C40.6849 23.2597 38.6059 23.8698 36.5497 24.549C33.6596 25.493 30.7466 26.3564 27.7423 26.909C25.0692 27.404 22.3847 27.6343 19.666 27.4846C18.2723 27.404 16.8787 27.3004 15.4964 27.1392C13.8172 26.932 12.1494 26.6788 10.493 26.4025C8.84806 26.1262 7.26021 25.6081 5.67237 25.1016C4.82704 24.8368 3.95887 24.6411 3.10211 24.4339C2.75941 24.3533 2.41671 24.3533 2.08544 24.4915C1.83412 24.5951 1.6742 24.7793 1.63993 25.0441C1.60566 25.2973 1.78843 25.4355 1.9712 25.5736C2.30248 25.8038 2.66803 25.8959 3.05642 25.9765C3.77609 26.1147 4.50719 26.2413 5.21543 26.414C8.16266 27.1392 11.1556 27.5997 14.1713 27.9336C16.4446 28.1868 18.7178 28.3135 21.0025 28.371C23.7213 28.4401 26.4058 28.2214 29.0788 27.7148C31.9347 27.1738 34.7334 26.437 37.5207 25.6312C39.3027 25.1131 41.0962 24.5951 42.9011 24.1231C44.2148 23.7777 45.5513 23.582 46.9107 23.559C47.4247 23.536 47.9616 23.5935 48.4642 23.8928ZM13.0975 43.5094C12.6406 43.4518 12.2408 43.4057 11.8296 43.3482C11.7496 43.613 11.6696 43.8547 11.5897 44.085C11.544 44.2576 11.6011 44.3958 11.761 44.4649C11.9438 44.5339 12.1266 44.603 12.3093 44.6375C12.515 44.6836 12.6749 44.603 12.7548 44.4073C12.8691 44.1195 12.9719 43.8317 13.0975 43.5094ZM37.3493 43.1064C36.9381 43.164 36.5497 43.0719 36.1156 43.1295C36.2298 43.4633 36.3326 43.7511 36.4355 44.0274C36.4811 44.1655 36.584 44.2346 36.7325 44.2461C37.0295 44.2807 37.3265 44.2691 37.6463 44.1655C37.5435 43.8202 37.4521 43.4863 37.3493 43.1064Z" fill="black"/>
</g>
<g clip-path="url(#clip1_736_13259)">
<path d="M15.0592 24.1602C15.2108 24.1 15.2671 23.9882 15.2628 23.8292C15.2541 23.5885 15.2628 23.3479 15.2628 23.1072C15.2628 23.0814 15.2628 23.0556 15.2628 23.0169C15.4187 23.1029 15.5616 23.1845 15.7003 23.2619C15.7696 23.3006 15.8389 23.3393 15.9082 23.3779C16.0641 23.4639 16.2201 23.4338 16.2937 23.2963C16.3674 23.163 16.3197 23.0169 16.1638 22.931C15.8865 22.7762 15.6093 22.6172 15.3277 22.4625C15.2757 22.4324 15.2584 22.4023 15.2584 22.3422C15.2628 21.8694 15.2584 21.3923 15.2584 20.9196C15.2584 20.8938 15.2584 20.8723 15.2584 20.8336C15.2844 20.8465 15.3061 20.8551 15.3234 20.8637C15.7479 21.1087 16.1724 21.3493 16.597 21.59C16.6359 21.6115 16.6533 21.6373 16.6489 21.6803C16.6446 21.9639 16.6446 22.2519 16.6403 22.5356C16.6403 22.5742 16.6403 22.6086 16.6403 22.6473C16.6403 22.8235 16.7442 22.9439 16.9002 22.9439C17.0518 22.9439 17.1601 22.8321 17.1601 22.6559C17.1601 22.4152 17.1601 22.1745 17.1601 21.9167C17.1991 21.9382 17.2207 21.9511 17.2467 21.9639C17.472 22.0929 17.7016 22.2261 17.9268 22.3551C18.0958 22.4496 18.282 22.3722 18.3253 22.1917C18.3513 22.08 18.2994 21.9725 18.1824 21.9038C17.9571 21.7748 17.7319 21.6459 17.5066 21.517C17.485 21.5041 17.4633 21.4912 17.433 21.474C17.459 21.4568 17.4806 21.4439 17.5066 21.431C17.7016 21.315 17.9008 21.2032 18.0958 21.0872C18.1997 21.027 18.2474 20.9196 18.2257 20.8207C18.2041 20.7133 18.1217 20.6187 18.0135 20.6144C17.9441 20.6101 17.8662 20.6316 17.8055 20.666C17.524 20.825 17.2467 20.9883 16.9652 21.1559C16.9348 21.1731 16.9088 21.1817 16.8699 21.1602C16.4367 20.911 16.0035 20.6617 15.5703 20.4167C15.5573 20.4081 15.5487 20.3995 15.527 20.3866C15.5573 20.3694 15.579 20.3522 15.6006 20.3393C16.0165 20.0987 16.4323 19.8623 16.8482 19.6216C16.9002 19.5915 16.9348 19.5958 16.9825 19.6259C17.2597 19.7935 17.5413 19.9568 17.8229 20.1159C17.9961 20.2147 18.1824 20.1416 18.2257 19.9568C18.2517 19.8451 18.1997 19.7419 18.0871 19.6732C17.8965 19.5614 17.7059 19.4497 17.5196 19.3379C17.498 19.3251 17.472 19.3122 17.4417 19.2907C17.4676 19.2735 17.4893 19.2606 17.511 19.2477C17.7405 19.1145 17.9701 18.9855 18.1997 18.8523C18.3817 18.7448 18.386 18.5128 18.217 18.4096C18.1174 18.3494 18.0178 18.3623 17.9225 18.4182C17.7016 18.5471 17.4806 18.6718 17.2597 18.7964C17.2381 18.8093 17.2121 18.8222 17.1817 18.8394C17.1817 18.8093 17.1774 18.7878 17.1774 18.762C17.1731 18.5342 17.1731 18.3065 17.1687 18.0744C17.1644 17.9411 17.0821 17.8423 16.9565 17.8165C16.8395 17.795 16.7139 17.8595 16.6749 17.9712C16.6576 18.0185 16.6533 18.0701 16.6533 18.1216C16.6533 18.4397 16.6576 18.7577 16.6619 19.0715C16.6619 19.1059 16.6619 19.1359 16.6229 19.1574C16.1724 19.411 15.7393 19.6603 15.2974 19.9139C15.2887 19.9182 15.2801 19.9225 15.2584 19.9311C15.2584 19.901 15.2584 19.8752 15.2584 19.8537C15.2584 19.3723 15.2584 18.8953 15.2584 18.4139C15.2584 18.3623 15.2757 18.3322 15.3234 18.3022C15.6093 18.1431 15.8952 17.9841 16.1768 17.8251C16.337 17.7348 16.3717 17.5586 16.2634 17.4254C16.1811 17.3265 16.0468 17.3093 15.9212 17.3781C15.7306 17.4856 15.5357 17.593 15.3451 17.7005C15.3234 17.7133 15.2974 17.7262 15.2628 17.7434C15.2628 17.7048 15.2628 17.679 15.2628 17.6532C15.2628 17.391 15.2671 17.1331 15.2628 16.871C15.2584 16.6561 15.0505 16.5314 14.8729 16.6346C14.7776 16.6905 14.7429 16.7764 14.7429 16.8839C14.7429 17.1417 14.7429 17.3953 14.7429 17.6532C14.7429 17.679 14.7429 17.7048 14.7429 17.7434C14.5913 17.6575 14.4484 17.5801 14.3098 17.5028C14.2404 17.4641 14.1668 17.4211 14.0975 17.3824C13.9415 17.2965 13.7899 17.3308 13.712 17.4641C13.6383 17.593 13.6903 17.7434 13.8419 17.8294C14.1235 17.9884 14.4051 18.1474 14.691 18.3022C14.7256 18.3193 14.7473 18.3408 14.7473 18.3838C14.7473 18.8824 14.7473 19.3809 14.7473 19.8838C14.7473 19.8924 14.7429 19.901 14.7429 19.9225C14.7213 19.9096 14.6996 19.9053 14.6823 19.8924C14.2578 19.6474 13.8333 19.4067 13.4087 19.166C13.3697 19.1445 13.3568 19.1188 13.3568 19.0758C13.3611 18.7878 13.3611 18.4999 13.3654 18.2119C13.3654 18.1775 13.3654 18.1431 13.3654 18.1088C13.3654 17.9325 13.2615 17.8122 13.1055 17.8122C12.9539 17.8122 12.8499 17.9282 12.8456 18.1002C12.8456 18.3408 12.8456 18.5815 12.8456 18.8394C12.8066 18.8179 12.7806 18.805 12.759 18.7921C12.5337 18.6632 12.3085 18.5342 12.0832 18.4053C11.9099 18.3108 11.728 18.3795 11.6803 18.56C11.65 18.6761 11.702 18.7835 11.8233 18.8566C12.0485 18.9855 12.2738 19.1145 12.4991 19.2434C12.5207 19.2563 12.5424 19.2692 12.5727 19.2864C12.5294 19.3122 12.4904 19.3379 12.4557 19.3594C12.2738 19.4669 12.0919 19.57 11.9099 19.6775C11.8103 19.7376 11.7583 19.8451 11.7843 19.9482C11.8103 20.06 11.8796 20.1416 11.9922 20.1502C12.0615 20.1588 12.1395 20.1373 12.2002 20.103C12.4861 19.9439 12.7633 19.7763 13.0492 19.613C13.0709 19.6001 13.1142 19.5958 13.1315 19.6087C13.569 19.858 14.0065 20.1073 14.444 20.3608C14.4527 20.3651 14.4614 20.3737 14.4787 20.3866C14.4527 20.4038 14.4354 20.4167 14.418 20.4253C13.9935 20.666 13.5733 20.911 13.1532 21.1516C13.1098 21.1774 13.0838 21.1774 13.0405 21.1516C12.7633 20.984 12.4817 20.825 12.2045 20.6617C12.0745 20.5886 11.9619 20.5929 11.8666 20.6746C11.7367 20.7949 11.7583 20.9926 11.9143 21.0872C12.1049 21.2032 12.3041 21.315 12.4947 21.4267C12.5164 21.4396 12.5424 21.4525 12.5727 21.474C12.5467 21.4912 12.5294 21.5041 12.5077 21.517C12.2825 21.6459 12.0529 21.7748 11.8276 21.9081C11.7107 21.9768 11.6587 22.0843 11.6847 22.196C11.7237 22.3722 11.9099 22.4539 12.0745 22.3593C12.2738 22.2476 12.4687 22.1359 12.668 22.0198C12.72 21.9897 12.7763 21.9596 12.8369 21.9253C12.8369 21.9596 12.8413 21.9854 12.8413 22.0112C12.8456 22.2433 12.8456 22.4797 12.8543 22.7118C12.8586 22.8364 12.9582 22.931 13.0795 22.9482C13.1965 22.961 13.3178 22.888 13.3524 22.7762C13.3654 22.729 13.3697 22.6774 13.3697 22.6301C13.3697 22.3164 13.3654 21.9983 13.3611 21.6846C13.3611 21.6459 13.3697 21.6201 13.4087 21.5986C13.8419 21.3536 14.2708 21.1044 14.7039 20.8594C14.7169 20.8508 14.7299 20.8465 14.7516 20.8379C14.7516 20.868 14.7559 20.8895 14.7559 20.9153C14.7559 21.3966 14.7559 21.8737 14.7559 22.3551C14.7559 22.4109 14.7386 22.4367 14.691 22.4625C14.4094 22.6172 14.1235 22.7762 13.8419 22.9353C13.7206 23.004 13.6643 23.1115 13.6946 23.2275C13.738 23.3994 13.9199 23.4811 14.0802 23.3908C14.2664 23.2834 14.4614 23.1716 14.6563 23.0642C14.678 23.0513 14.7039 23.0384 14.7386 23.0212C14.7386 23.0599 14.7386 23.0857 14.7386 23.1115C14.7386 23.3522 14.7429 23.5928 14.7386 23.8335C14.7343 23.9882 14.7863 24.1 14.9422 24.1602C14.9812 24.1602 15.0202 24.1602 15.0592 24.1602Z" fill="black"/>
</g>
<g clip-path="url(#clip2_736_13259)">
<path d="M20.4974 14.0801C20.7058 13.9999 20.7833 13.8509 20.7773 13.6388C20.7654 13.3179 20.7773 12.997 20.7773 12.6761C20.7773 12.6417 20.7773 12.6073 20.7773 12.5558C20.9917 12.6704 21.1883 12.7793 21.3789 12.8824C21.4742 12.934 21.5695 12.9856 21.6648 13.0371C21.8792 13.1517 22.0936 13.1116 22.1949 12.9282C22.2961 12.7506 22.2306 12.5558 22.0162 12.4412C21.635 12.2349 21.2538 12.0228 20.8666 11.8165C20.7952 11.7764 20.7713 11.7363 20.7713 11.6561C20.7773 11.0257 20.7713 10.3896 20.7713 9.75928C20.7713 9.7249 20.7713 9.69625 20.7713 9.64467C20.8071 9.66187 20.8369 9.67333 20.8607 9.68479C21.4444 10.0114 22.0281 10.3323 22.6118 10.6532C22.6654 10.6819 22.6893 10.7163 22.6833 10.7736C22.6773 11.1518 22.6773 11.5357 22.6714 11.914C22.6714 11.9655 22.6714 12.0114 22.6714 12.0629C22.6714 12.2979 22.8143 12.4583 23.0288 12.4583C23.2372 12.4583 23.3861 12.3094 23.3861 12.0744C23.3861 11.7535 23.3861 11.4326 23.3861 11.0888C23.4397 11.1174 23.4695 11.1346 23.5053 11.1518C23.815 11.3237 24.1307 11.5014 24.4404 11.6733C24.6727 11.7993 24.9288 11.6962 24.9884 11.4555C25.0241 11.3065 24.9526 11.1633 24.7918 11.0716C24.4821 10.8997 24.1724 10.7277 23.8626 10.5558C23.8329 10.5386 23.8031 10.5214 23.7614 10.4985C23.7971 10.4756 23.8269 10.4584 23.8626 10.4412C24.1307 10.2865 24.4047 10.1375 24.6727 9.98277C24.8156 9.90255 24.8812 9.75928 24.8514 9.62748C24.8216 9.48422 24.7084 9.35815 24.5595 9.35242C24.4642 9.34669 24.357 9.37534 24.2736 9.42119C23.8865 9.63321 23.5053 9.85097 23.1181 10.0745C23.0764 10.0974 23.0407 10.1088 22.9871 10.0802C22.3914 9.74782 21.7958 9.41545 21.2002 9.08882C21.1823 9.07736 21.1704 9.06589 21.1406 9.0487C21.1823 9.02578 21.2121 9.00286 21.2419 8.98567C21.8137 8.66476 22.3855 8.34958 22.9573 8.02868C23.0288 7.98856 23.0764 7.99429 23.1419 8.03441C23.5231 8.25789 23.9103 8.47565 24.2974 8.68768C24.5357 8.81948 24.7918 8.72206 24.8514 8.47565C24.8871 8.32666 24.8156 8.18913 24.6608 8.09744C24.3987 7.94845 24.1366 7.79946 23.8805 7.65046C23.8507 7.63327 23.815 7.61608 23.7733 7.58743C23.809 7.5645 23.8388 7.54731 23.8686 7.53012C24.1843 7.35248 24.5 7.18056 24.8156 7.00292C25.0658 6.85965 25.0718 6.55021 24.8395 6.41267C24.7025 6.33245 24.5655 6.34964 24.4344 6.42414C24.1307 6.59605 23.8269 6.76224 23.5231 6.92842C23.4933 6.94561 23.4576 6.9628 23.4159 6.98572C23.4159 6.94561 23.41 6.91696 23.41 6.88258C23.404 6.57886 23.404 6.27514 23.398 5.9657C23.3921 5.78805 23.2789 5.65625 23.1062 5.62187C22.9454 5.59321 22.7726 5.67917 22.719 5.82816C22.6952 5.8912 22.6893 5.95997 22.6893 6.02873C22.6893 6.45279 22.6952 6.87684 22.7012 7.29517C22.7012 7.34102 22.7012 7.38113 22.6476 7.40978C22.0281 7.74788 21.4325 8.08025 20.8249 8.41835C20.813 8.42408 20.8011 8.42981 20.7713 8.44127C20.7713 8.40116 20.7713 8.36677 20.7713 8.33812C20.7713 7.69631 20.7713 7.06022 20.7713 6.41841C20.7713 6.34964 20.7952 6.30953 20.8607 6.26941C21.2538 6.05738 21.6469 5.84536 22.0341 5.63333C22.2544 5.51299 22.3021 5.27804 22.1532 5.10039C22.04 4.96859 21.8554 4.94567 21.6826 5.03736C21.4206 5.18062 21.1525 5.32388 20.8905 5.46714C20.8607 5.48433 20.8249 5.50153 20.7773 5.52445C20.7773 5.47287 20.7773 5.43849 20.7773 5.40411C20.7773 5.05455 20.7833 4.71072 20.7773 4.36116C20.7713 4.07463 20.4854 3.90845 20.2412 4.04598C20.1102 4.12048 20.0625 4.23509 20.0625 4.37835C20.0625 4.72218 20.0625 5.06028 20.0625 5.40411C20.0625 5.43849 20.0625 5.47287 20.0625 5.52445C19.8541 5.40984 19.6575 5.30669 19.4669 5.20354C19.3716 5.15197 19.2704 5.09466 19.1751 5.04309C18.9606 4.92848 18.7522 4.97432 18.645 5.15197C18.5437 5.32388 18.6152 5.52445 18.8236 5.63906C19.2108 5.85109 19.598 6.06311 19.9911 6.26941C20.0387 6.29233 20.0685 6.32099 20.0685 6.37829C20.0685 7.04303 20.0685 7.70777 20.0685 8.37823C20.0685 8.3897 20.0625 8.40116 20.0625 8.42981C20.0328 8.41262 20.003 8.40689 19.9792 8.3897C19.3954 8.06306 18.8117 7.74215 18.228 7.42124C18.1744 7.39259 18.1565 7.35821 18.1565 7.3009C18.1625 6.91696 18.1625 6.53302 18.1685 6.14907C18.1685 6.10323 18.1685 6.05738 18.1685 6.01154C18.1685 5.77659 18.0255 5.61614 17.8111 5.61614C17.6026 5.61614 17.4597 5.77086 17.4537 6.00008C17.4537 6.32099 17.4537 6.64189 17.4537 6.98572C17.4001 6.95707 17.3644 6.93988 17.3346 6.92269C17.0249 6.75077 16.7151 6.57886 16.4054 6.40694C16.1672 6.28087 15.917 6.37256 15.8515 6.61324C15.8098 6.76797 15.8813 6.91123 16.048 7.00865C16.3578 7.18056 16.6675 7.35248 16.9772 7.52439C17.007 7.54158 17.0368 7.55877 17.0785 7.5817C17.0189 7.61608 16.9653 7.65046 16.9176 7.67911C16.6675 7.82238 16.4173 7.95991 16.1672 8.10317C16.0302 8.1834 15.9587 8.32666 15.9944 8.46419C16.0302 8.61319 16.1255 8.72206 16.2803 8.73353C16.3756 8.74499 16.4828 8.71633 16.5662 8.67049C16.9593 8.45846 17.3405 8.23497 17.7337 8.01721C17.7634 8.00002 17.823 7.99429 17.8468 8.01148C18.4484 8.34385 19.05 8.67622 19.6516 9.01432C19.6635 9.02005 19.6754 9.03151 19.6992 9.0487C19.6635 9.07162 19.6397 9.08882 19.6158 9.10028C19.0321 9.42119 18.4544 9.74782 17.8766 10.0687C17.817 10.1031 17.7813 10.1031 17.7217 10.0687C17.3405 9.84524 16.9534 9.63321 16.5722 9.41545C16.3935 9.31804 16.2386 9.32377 16.1076 9.43265C15.9289 9.5931 15.9587 9.8567 16.1731 9.98277C16.4352 10.1375 16.7092 10.2865 16.9713 10.4355C17.001 10.4527 17.0368 10.4699 17.0785 10.4985C17.0427 10.5214 17.0189 10.5386 16.9891 10.5558C16.6794 10.7277 16.3637 10.8997 16.054 11.0773C15.8932 11.169 15.8217 11.3122 15.8574 11.4612C15.911 11.6962 16.1672 11.8051 16.3935 11.679C16.6675 11.53 16.9355 11.381 17.2095 11.2263C17.281 11.1862 17.3584 11.1461 17.4418 11.1002C17.4418 11.1461 17.4478 11.1804 17.4478 11.2148C17.4537 11.5243 17.4537 11.8395 17.4656 12.1489C17.4716 12.3151 17.6086 12.4412 17.7753 12.4641C17.9362 12.4813 18.1029 12.3839 18.1506 12.2349C18.1685 12.1718 18.1744 12.1031 18.1744 12.04C18.1744 11.6217 18.1685 11.1976 18.1625 10.7793C18.1625 10.7277 18.1744 10.6934 18.228 10.6647C18.8236 10.3381 19.4133 10.0057 20.0089 9.67906C20.0268 9.6676 20.0447 9.66187 20.0745 9.6504C20.0745 9.69052 20.0804 9.71917 20.0804 9.75355C20.0804 10.3954 20.0804 11.0315 20.0804 11.6733C20.0804 11.7478 20.0566 11.7821 19.9911 11.8165C19.6039 12.0228 19.2108 12.2349 18.8236 12.4469C18.6569 12.5386 18.5794 12.6818 18.6211 12.8366C18.6807 13.0658 18.9309 13.1747 19.1512 13.0543C19.4074 12.9111 19.6754 12.7621 19.9434 12.6188C19.9732 12.6016 20.0089 12.5844 20.0566 12.5615C20.0566 12.6131 20.0566 12.6475 20.0566 12.6818C20.0566 13.0027 20.0625 13.3237 20.0566 13.6446C20.0506 13.8509 20.1221 13.9999 20.3365 14.0801C20.3901 14.0801 20.4437 14.0801 20.4974 14.0801Z" fill="black"/>
</g>
<g clip-path="url(#clip3_736_13259)">
<path d="M28.3764 22.481C28.4901 22.4342 28.5323 22.3472 28.5291 22.2236C28.5226 22.0364 28.5291 21.8492 28.5291 21.662C28.5291 21.6419 28.5291 21.6219 28.5291 21.5918C28.6461 21.6586 28.7533 21.7221 28.8572 21.7823C28.9092 21.8124 28.9612 21.8425 29.0132 21.8726C29.1301 21.9394 29.2471 21.916 29.3023 21.8091C29.3576 21.7054 29.3218 21.5918 29.2049 21.5249C28.9969 21.4046 28.789 21.2809 28.5778 21.1606C28.5388 21.1372 28.5258 21.1138 28.5258 21.067C28.5291 20.6993 28.5258 20.3282 28.5258 19.9605C28.5258 19.9404 28.5258 19.9237 28.5258 19.8936C28.5453 19.9037 28.5616 19.9104 28.5746 19.917C28.893 20.1076 29.2114 20.2948 29.5297 20.482C29.559 20.4987 29.572 20.5187 29.5687 20.5522C29.5655 20.7728 29.5655 20.9968 29.5622 21.2174C29.5622 21.2475 29.5622 21.2742 29.5622 21.3043C29.5622 21.4413 29.6402 21.5349 29.7572 21.5349C29.8709 21.5349 29.9521 21.448 29.9521 21.311C29.9521 21.1238 29.9521 20.9366 29.9521 20.736C29.9813 20.7527 29.9976 20.7628 30.0171 20.7728C30.186 20.8731 30.3582 20.9767 30.5271 21.077C30.6539 21.1505 30.7936 21.0904 30.826 20.95C30.8455 20.863 30.8065 20.7795 30.7188 20.726C30.5499 20.6257 30.3809 20.5254 30.212 20.4251C30.1958 20.4151 30.1795 20.4051 30.1568 20.3917C30.1763 20.3783 30.1925 20.3683 30.212 20.3583C30.3582 20.268 30.5077 20.1811 30.6539 20.0909C30.7318 20.0441 30.7676 19.9605 30.7513 19.8836C30.7351 19.8 30.6733 19.7265 30.5921 19.7232C30.5401 19.7198 30.4817 19.7365 30.4362 19.7633C30.225 19.887 30.0171 20.014 29.8059 20.1443C29.7832 20.1577 29.7637 20.1644 29.7344 20.1477C29.4095 19.9538 29.0846 19.7599 28.7598 19.5694C28.75 19.5627 28.7435 19.556 28.7273 19.546C28.75 19.5326 28.7663 19.5192 28.7825 19.5092C29.0944 19.322 29.4063 19.1382 29.7182 18.951C29.7572 18.9276 29.7832 18.9309 29.8189 18.9543C30.0268 19.0847 30.238 19.2117 30.4492 19.3354C30.5791 19.4123 30.7188 19.3554 30.7513 19.2117C30.7708 19.1248 30.7318 19.0446 30.6474 18.9911C30.5044 18.9042 30.3615 18.8173 30.2218 18.7303C30.2055 18.7203 30.186 18.7103 30.1633 18.6936C30.1828 18.6802 30.199 18.6702 30.2153 18.6601C30.3874 18.5565 30.5596 18.4562 30.7318 18.3526C30.8683 18.269 30.8715 18.0885 30.7448 18.0083C30.6701 17.9615 30.5954 17.9715 30.5239 18.015C30.3582 18.1153 30.1925 18.2122 30.0268 18.3092C30.0106 18.3192 29.9911 18.3292 29.9683 18.3426C29.9683 18.3192 29.9651 18.3025 29.9651 18.2824C29.9618 18.1052 29.9618 17.9281 29.9586 17.7476C29.9553 17.6439 29.8936 17.5671 29.7994 17.547C29.7117 17.5303 29.6175 17.5804 29.5882 17.6673C29.5752 17.7041 29.572 17.7442 29.572 17.7843C29.572 18.0317 29.5752 18.2791 29.5785 18.5231C29.5785 18.5498 29.5785 18.5732 29.5492 18.59C29.2114 18.7872 28.8865 18.9811 28.5551 19.1783C28.5486 19.1816 28.5421 19.185 28.5258 19.1917C28.5258 19.1683 28.5258 19.1482 28.5258 19.1315C28.5258 18.7571 28.5258 18.386 28.5258 18.0116C28.5258 17.9715 28.5388 17.9481 28.5746 17.9247C28.789 17.8011 29.0034 17.6774 29.2146 17.5537C29.3348 17.4835 29.3608 17.3464 29.2796 17.2428C29.2179 17.1659 29.1171 17.1526 29.0229 17.206C28.88 17.2896 28.7338 17.3732 28.5908 17.4567C28.5746 17.4668 28.5551 17.4768 28.5291 17.4902C28.5291 17.4601 28.5291 17.44 28.5291 17.42C28.5291 17.2161 28.5323 17.0155 28.5291 16.8116C28.5258 16.6444 28.3699 16.5475 28.2367 16.6277C28.1652 16.6712 28.1392 16.738 28.1392 16.8216C28.1392 17.0222 28.1392 17.2194 28.1392 17.42C28.1392 17.44 28.1392 17.4601 28.1392 17.4902C28.0255 17.4233 27.9183 17.3631 27.8143 17.303C27.7624 17.2729 27.7071 17.2395 27.6551 17.2094C27.5382 17.1425 27.4245 17.1693 27.366 17.2729C27.3108 17.3732 27.3498 17.4902 27.4635 17.557C27.6746 17.6807 27.8858 17.8044 28.1002 17.9247C28.1262 17.9381 28.1425 17.9548 28.1425 17.9882C28.1425 18.376 28.1425 18.7638 28.1425 19.1549C28.1425 19.1616 28.1392 19.1683 28.1392 19.185C28.123 19.1749 28.1067 19.1716 28.0937 19.1616C27.7754 18.971 27.457 18.7838 27.1386 18.5966C27.1093 18.5799 27.0996 18.5599 27.0996 18.5264C27.1028 18.3025 27.1028 18.0785 27.1061 17.8545C27.1061 17.8278 27.1061 17.8011 27.1061 17.7743C27.1061 17.6373 27.0281 17.5437 26.9112 17.5437C26.7974 17.5437 26.7195 17.6339 26.7162 17.7676C26.7162 17.9548 26.7162 18.142 26.7162 18.3426C26.687 18.3259 26.6675 18.3158 26.6513 18.3058C26.4823 18.2055 26.3134 18.1052 26.1444 18.005C26.0145 17.9314 25.878 17.9849 25.8423 18.1253C25.8195 18.2156 25.8585 18.2991 25.9495 18.356C26.1184 18.4562 26.2874 18.5565 26.4563 18.6568C26.4726 18.6668 26.4888 18.6769 26.5115 18.6902C26.4791 18.7103 26.4498 18.7303 26.4238 18.7471C26.2874 18.8306 26.1509 18.9109 26.0145 18.9944C25.9397 19.0412 25.9008 19.1248 25.9203 19.205C25.9397 19.2919 25.9917 19.3554 26.0762 19.3621C26.1282 19.3688 26.1867 19.3521 26.2321 19.3254C26.4466 19.2017 26.6545 19.0713 26.8689 18.9443C26.8852 18.9343 26.9177 18.9309 26.9307 18.9409C27.2588 19.1348 27.5869 19.3287 27.9151 19.5259C27.9216 19.5293 27.9281 19.536 27.941 19.546C27.9216 19.5594 27.9086 19.5694 27.8956 19.5761C27.5772 19.7633 27.262 19.9538 26.9469 20.141C26.9144 20.1611 26.8949 20.1611 26.8624 20.141C26.6545 20.0106 26.4433 19.887 26.2354 19.7599C26.1379 19.7031 26.0535 19.7064 25.982 19.77C25.8845 19.8636 25.9008 20.0173 26.0177 20.0909C26.1607 20.1811 26.3101 20.268 26.4531 20.3549C26.4693 20.365 26.4888 20.375 26.5115 20.3917C26.4921 20.4051 26.4791 20.4151 26.4628 20.4251C26.2939 20.5254 26.1217 20.6257 25.9527 20.7293C25.865 20.7828 25.826 20.8664 25.8455 20.9533C25.8748 21.0904 26.0145 21.1539 26.1379 21.0803C26.2874 20.9934 26.4336 20.9065 26.583 20.8162C26.622 20.7928 26.6642 20.7694 26.7097 20.7427C26.7097 20.7694 26.713 20.7895 26.713 20.8096C26.7162 20.9901 26.7162 21.1739 26.7227 21.3544C26.726 21.4514 26.8007 21.5249 26.8917 21.5383C26.9794 21.5483 27.0704 21.4915 27.0963 21.4046C27.1061 21.3678 27.1093 21.3277 27.1093 21.2909C27.1093 21.0469 27.1061 20.7995 27.1028 20.5555C27.1028 20.5254 27.1093 20.5054 27.1386 20.4887C27.4635 20.2981 27.7851 20.1042 28.11 19.9137C28.1197 19.907 28.1295 19.9037 28.1457 19.897C28.1457 19.9204 28.149 19.9371 28.149 19.9572C28.149 20.3315 28.149 20.7026 28.149 21.077C28.149 21.1204 28.136 21.1405 28.1002 21.1606C27.8891 21.2809 27.6746 21.4046 27.4635 21.5283C27.3725 21.5817 27.3303 21.6653 27.353 21.7556C27.3855 21.8893 27.5219 21.9528 27.6422 21.8826C27.7819 21.799 27.9281 21.7121 28.0743 21.6285C28.0905 21.6185 28.11 21.6085 28.136 21.5951C28.136 21.6252 28.136 21.6453 28.136 21.6653C28.136 21.8525 28.1392 22.0397 28.136 22.2269C28.1327 22.3472 28.1717 22.4342 28.2887 22.481C28.3179 22.481 28.3472 22.481 28.3764 22.481Z" fill="black"/>
</g>
<defs>
<clipPath id="clip0_736_13259">
<rect width="50" height="25.1998" fill="white" transform="translate(0 20.8003)"/>
</clipPath>
<clipPath id="clip1_736_13259">
<rect width="6.66667" height="7.55996" fill="white" transform="matrix(1 0 0 -1 11.666 24.1602)"/>
</clipPath>
<clipPath id="clip2_736_13259">
<rect width="9.16667" height="10.0799" fill="white" transform="matrix(1 0 0 -1 15.834 14.0801)"/>
</clipPath>
<clipPath id="clip3_736_13259">
<rect width="5" height="5.87996" fill="white" transform="matrix(1 0 0 -1 25.832 22.481)"/>
</clipPath>
</defs>
</svg>
