<svg width="24" height="24" viewBox="0 0 24 24" fill="none" xmlns="http://www.w3.org/2000/svg">
<path d="M2 9.33196L2 5.12231L22 5.12231L22 9.33196C19.9301 10.9325 20.4266 12.708 22 13.5833L22 17.9597L2 17.9597L2 13.5833C4.18182 11.9161 3.43357 10.2489 2 9.33196Z" fill="white" stroke="black" stroke-width="1.5"/>
<mask id="path-2-inside-1_858_19507" fill="white">
<ellipse cx="1.32515" cy="1.21454" rx="1.32515" ry="1.21454" transform="matrix(-0.435902 0.899994 -0.823763 -0.566934 15.3486 9.57202)"/>
</mask>
<path d="M13.8467 9.91872C13.9484 9.9887 13.9943 10.0894 14.0073 10.1473C14.0196 10.2021 14.0087 10.2317 14.0057 10.2379L11.5344 8.53712C10.909 9.8282 11.2049 11.7005 12.539 12.6187L13.8467 9.91872ZM14.0057 10.2379C14.0026 10.2442 13.9866 10.2703 13.9406 10.2849C13.8921 10.3005 13.796 10.3034 13.6943 10.2334L15.002 7.53347C13.6678 6.61527 12.1597 7.24604 11.5344 8.53712L14.0057 10.2379ZM13.6943 10.2334C13.5926 10.1635 13.5467 10.0628 13.5337 10.0049C13.5214 9.95011 13.5323 9.92048 13.5354 9.91425L16.0066 11.6151C16.632 10.324 16.3361 8.45167 15.002 7.53347L13.6943 10.2334ZM13.5354 9.91425C13.5384 9.90802 13.5544 9.8819 13.6004 9.86722C13.6489 9.85172 13.745 9.84875 13.8467 9.91872L12.539 12.6187C13.8732 13.5369 15.3813 12.9061 16.0066 11.6151L13.5354 9.91425Z" fill="black" mask="url(#path-2-inside-1_858_19507)"/>
<mask id="path-4-inside-2_858_19507" fill="white">
<ellipse cx="1.32515" cy="1.21454" rx="1.32515" ry="1.21454" transform="matrix(-0.435902 0.899994 -0.823763 -0.566934 11.8369 12.6567)"/>
</mask>
<path d="M10.335 13.0034C10.4367 13.0734 10.4826 13.1741 10.4956 13.232C10.5079 13.2868 10.497 13.3164 10.4939 13.3226L8.02264 11.6218C7.39732 12.9129 7.69314 14.7852 9.02729 15.7034L10.335 13.0034ZM10.4939 13.3226C10.4909 13.3289 10.4749 13.355 10.4289 13.3697C10.3804 13.3852 10.2842 13.3881 10.1826 13.3182L11.4903 10.6182C10.1561 9.69998 8.64796 10.3308 8.02264 11.6218L10.4939 13.3226ZM10.1826 13.3182C10.0809 13.2482 10.035 13.1475 10.022 13.0896C10.0097 13.0348 10.0206 13.0052 10.0236 12.999L12.4949 14.6998C13.1202 13.4087 12.8244 11.5364 11.4903 10.6182L10.1826 13.3182ZM10.0236 12.999C10.0267 12.9927 10.0427 12.9666 10.0887 12.9519C10.1372 12.9364 10.2333 12.9335 10.335 13.0034L9.02729 15.7034C10.3615 16.6216 11.8696 15.9908 12.4949 14.6998L10.0236 12.999Z" fill="black" mask="url(#path-4-inside-2_858_19507)"/>
<path d="M14.5166 14.2798L9.23229 8.96619" stroke="black" stroke-width="1.5" stroke-linecap="round"/>
<line x1="18.0645" y1="5" x2="18.0645" y2="17.8899" stroke="black" stroke-width="1.5" stroke-dasharray="2 2"/>
<line x1="6.48633" y1="5.10999" x2="6.48633" y2="17.9999" stroke="black" stroke-width="1.5" stroke-dasharray="2 2"/>
</svg>
