<svg width="20" height="20" viewBox="0 0 20 20" fill="none" xmlns="http://www.w3.org/2000/svg">
<g id="icon">
<path id="Vector" d="M10.0007 4.1665C6.32482 4.1665 3.33398 7.15734 3.33398 10.8332C3.33398 14.509 6.32482 17.4998 10.0007 17.4998C13.6765 17.4998 16.6673 14.509 16.6673 10.8332C16.6673 7.15734 13.6765 4.1665 10.0007 4.1665ZM10.0007 15.8332C7.24315 15.8332 5.00065 13.5907 5.00065 10.8332C5.00065 8.07567 7.24315 5.83317 10.0007 5.83317C12.7582 5.83317 15.0007 8.07567 15.0007 10.8332C15.0007 13.5907 12.7582 15.8332 10.0007 15.8332Z" fill="black"/>
<path id="Vector_2" d="M9.16667 7.49984H10.8333V11.6665H9.16667V7.49984ZM7.5 1.6665H12.5V3.33317H7.5V1.6665ZM16.0775 6.42234L14.4108 4.75567L15.5892 3.57734L17.2558 5.244L16.0775 6.42234Z" fill="black"/>
</g>
</svg>
