<svg width="14" height="14" viewBox="0 0 14 14" fill="none" xmlns="http://www.w3.org/2000/svg">
<g clip-path="url(#clip0_1107_10793)">
<path d="M6.99935 1.1665C5.84563 1.1665 4.71781 1.50862 3.75853 2.1496C2.79924 2.79057 2.05157 3.70161 1.61005 4.76752C1.16854 5.83342 1.05302 7.00631 1.2781 8.13786C1.50318 9.26942 2.05876 10.3088 2.87456 11.1246C3.69037 11.9404 4.72977 12.496 5.86132 12.7211C6.99288 12.9462 8.16577 12.8306 9.23167 12.3891C10.2976 11.9476 11.2086 11.2 11.8496 10.2407C12.4906 9.28138 12.8327 8.15356 12.8327 6.99984C12.8327 6.23379 12.6818 5.47525 12.3886 4.76752C12.0955 4.05978 11.6658 3.41672 11.1241 2.87505C10.5825 2.33337 9.9394 1.90369 9.23167 1.61054C8.52394 1.31739 7.7654 1.1665 6.99935 1.1665ZM6.99935 11.6665C6.07637 11.6665 5.17412 11.3928 4.40669 10.88C3.63926 10.3672 3.04112 9.63841 2.68791 8.78569C2.3347 7.93297 2.24229 6.99466 2.42235 6.08942C2.60242 5.18417 3.04687 4.35265 3.69952 3.70001C4.35216 3.04736 5.18369 2.6029 6.08893 2.42284C6.99417 2.24277 7.93249 2.33519 8.78521 2.6884C9.63793 3.04161 10.3668 3.63975 10.8795 4.40718C11.3923 5.17461 11.666 6.07686 11.666 6.99984C11.666 8.23751 11.1744 9.4245 10.2992 10.2997C9.42401 11.1748 8.23703 11.6665 6.99935 11.6665Z" fill="black"/>
<path d="M9.33268 6.41683H7.58268V4.66683C7.58268 4.51212 7.52122 4.36375 7.41183 4.25435C7.30243 4.14495 7.15406 4.0835 6.99935 4.0835C6.84464 4.0835 6.69627 4.14495 6.58687 4.25435C6.47747 4.36375 6.41602 4.51212 6.41602 4.66683V7.00016C6.41602 7.15487 6.47747 7.30325 6.58687 7.41264C6.69627 7.52204 6.84464 7.5835 6.99935 7.5835H9.33268C9.48739 7.5835 9.63577 7.52204 9.74516 7.41264C9.85456 7.30325 9.91602 7.15487 9.91602 7.00016C9.91602 6.84545 9.85456 6.69708 9.74516 6.58768C9.63577 6.47829 9.48739 6.41683 9.33268 6.41683Z" fill="black"/>
</g>
<defs>
<clipPath id="clip0_1107_10793">
<rect width="14" height="14" fill="white"/>
</clipPath>
</defs>
</svg>
