<svg width="56" height="56" viewBox="0 0 56 56" fill="none" xmlns="http://www.w3.org/2000/svg">
<g id="checkmark-outline" clip-path="url(#clip0_921_4799)">
<g id="Group">
<g id="checkmark">
<path id="Vector" d="M23.0069 42C22.6869 41.999 22.3706 41.9322 22.0776 41.8037C21.7846 41.6753 21.5211 41.488 21.3035 41.2534L9.96353 29.19C9.53963 28.7383 9.31255 28.1366 9.33224 27.5175C9.35193 26.8983 9.61678 26.3123 10.0685 25.8884C10.5203 25.4645 11.1219 25.2374 11.7411 25.2571C12.3603 25.2768 12.9463 25.5416 13.3702 25.9934L22.9835 36.2367L42.6069 14.77C42.806 14.5221 43.0537 14.3174 43.3349 14.1686C43.616 14.0199 43.9245 13.9302 44.2416 13.905C44.5586 13.8799 44.8775 13.9198 45.1785 14.0223C45.4796 14.1249 45.7565 14.2879 45.9923 14.5013C46.228 14.7148 46.4177 14.9742 46.5495 15.2636C46.6814 15.5531 46.7527 15.8664 46.759 16.1844C46.7654 16.5023 46.7067 16.8183 46.5865 17.1127C46.4663 17.4072 46.2872 17.674 46.0602 17.8967L24.7335 41.23C24.518 41.4689 24.2555 41.6606 23.9623 41.7931C23.6692 41.9256 23.3519 41.996 23.0302 42H23.0069Z" fill="black"/>
</g>
</g>
</g>
<defs>
<clipPath id="clip0_921_4799">
<rect width="56" height="56" fill="white"/>
</clipPath>
</defs>
</svg>
