<svg width="20" height="20" viewBox="0 0 20 20" fill="none" xmlns="http://www.w3.org/2000/svg">
<g id="Icon">
<path id="Vector" d="M5.00033 4.1665V15.8332H7.50033V10.8332H12.5003V15.8332H15.0003V4.1665H12.5003V9.1665H7.50033V4.1665H5.00033ZM2.50033 12.4998C2.50033 12.7209 2.58812 12.9328 2.7444 13.0891C2.90068 13.2454 3.11265 13.3332 3.33366 13.3332H4.16699V6.6665H3.33366C3.11265 6.6665 2.90068 6.7543 2.7444 6.91058C2.58812 7.06686 2.50033 7.27882 2.50033 7.49984V9.1665H1.66699V10.8332H2.50033V12.4998ZM17.5003 7.49984C17.5003 7.27882 17.4125 7.06686 17.2562 6.91058C17.1 6.7543 16.888 6.6665 16.667 6.6665H15.8337V13.3332H16.667C16.888 13.3332 17.1 13.2454 17.2562 13.0891C17.4125 12.9328 17.5003 12.7209 17.5003 12.4998V10.8332H18.3337V9.1665H17.5003V7.49984Z" fill="black"/>
</g>
</svg>
