<svg width="25" height="24" viewBox="0 0 25 24" fill="none" xmlns="http://www.w3.org/2000/svg">
<g id="Icon">
<path id="Vector" d="M15.251 3.08108C15.2124 3.05014 15.1681 3.02714 15.1206 3.0134C15.073 2.99967 15.0233 2.99547 14.9741 3.00104C14.925 3.00662 14.8774 3.02186 14.8342 3.0459C14.791 3.06993 14.7529 3.10228 14.7222 3.14108L11.27 7.50008H9.35675L13.547 2.20958C13.7004 2.0159 13.8905 1.85444 14.1064 1.73447C14.3224 1.6145 14.5599 1.53839 14.8054 1.51051C15.0509 1.48263 15.2994 1.50354 15.5368 1.57202C15.7741 1.64051 15.9956 1.75523 16.1885 1.90958L20.0487 5.00183C20.4137 5.29429 20.6563 5.71261 20.7287 6.17468C20.8011 6.63675 20.6982 7.10921 20.4403 7.49933H18.4797L19.16 6.71033C19.1929 6.67217 19.2178 6.62776 19.2332 6.57975C19.2486 6.53175 19.2542 6.48113 19.2495 6.43094C19.2449 6.38074 19.2302 6.33199 19.2063 6.2876C19.1824 6.24321 19.1499 6.20409 19.1105 6.17258L17.2325 4.66808L15.0065 7.50008H13.0985L16.061 3.73058L15.251 3.08108ZM5 5.25008C4.40326 5.25008 3.83097 5.48713 3.40901 5.90909C2.98705 6.33105 2.75 6.90334 2.75 7.50008V18.3751C2.75 19.2702 3.10558 20.1286 3.73851 20.7616C4.37145 21.3945 5.22989 21.7501 6.125 21.7501H18.875C19.7701 21.7501 20.6285 21.3945 21.2615 20.7616C21.8944 20.1286 22.25 19.2702 22.25 18.3751V11.6251C22.25 10.73 21.8944 9.87153 21.2615 9.2386C20.6285 8.60566 19.7701 8.25008 18.875 8.25008H5C4.80109 8.25008 4.61032 8.17106 4.46967 8.03041C4.32902 7.88976 4.25 7.69899 4.25 7.50008C4.25 7.30117 4.32902 7.1104 4.46967 6.96975C4.61032 6.8291 4.80109 6.75008 5 6.75008H8.435L9.632 5.25008H5ZM16.25 14.2501H18.5C18.6989 14.2501 18.8897 14.3291 19.0303 14.4698C19.171 14.6104 19.25 14.8012 19.25 15.0001C19.25 15.199 19.171 15.3898 19.0303 15.5304C18.8897 15.6711 18.6989 15.7501 18.5 15.7501H16.25C16.0511 15.7501 15.8603 15.6711 15.7197 15.5304C15.579 15.3898 15.5 15.199 15.5 15.0001C15.5 14.8012 15.579 14.6104 15.7197 14.4698C15.8603 14.3291 16.0511 14.2501 16.25 14.2501Z" fill="#181818"/>
</g>
</svg>
