<svg width="20" height="20" viewBox="0 0 20 20" fill="none" xmlns="http://www.w3.org/2000/svg">
<g id="icon/dots">
<path id="Vector" d="M9.99967 8.3335C9.08301 8.3335 8.33301 9.0835 8.33301 10.0002C8.33301 10.9168 9.08301 11.6668 9.99967 11.6668C10.9163 11.6668 11.6663 10.9168 11.6663 10.0002C11.6663 9.0835 10.9163 8.3335 9.99967 8.3335ZM9.99967 3.3335C9.08301 3.3335 8.33301 4.0835 8.33301 5.00016C8.33301 5.91683 9.08301 6.66683 9.99967 6.66683C10.9163 6.66683 11.6663 5.91683 11.6663 5.00016C11.6663 4.0835 10.9163 3.3335 9.99967 3.3335ZM9.99967 13.3335C9.08301 13.3335 8.33301 14.0835 8.33301 15.0002C8.33301 15.9168 9.08301 16.6668 9.99967 16.6668C10.9163 16.6668 11.6663 15.9168 11.6663 15.0002C11.6663 14.0835 10.9163 13.3335 9.99967 13.3335Z" fill="#6D6D6D"/>
</g>
</svg>
