<svg width="24" height="24" viewBox="0 0 24 24" fill="none" xmlns="http://www.w3.org/2000/svg">
<g id="Layer 2">
<g id="options-2">
<path id="Vector" d="M18.2936 9.00001C17.7367 9.00175 17.194 9.19489 16.7399 9.55295C16.2857 9.91101 15.9422 10.4165 15.7566 11H3.89962C3.66103 11 3.4322 11.1054 3.26349 11.2929C3.09478 11.4804 3 11.7348 3 12C3 12.2652 3.09478 12.5196 3.26349 12.7071C3.4322 12.8947 3.66103 13 3.89962 13H15.7566C15.9217 13.5189 16.2119 13.9773 16.5957 14.3251C16.9794 14.6729 17.4418 14.8966 17.9322 14.9718C18.4227 15.0471 18.9223 14.9709 19.3764 14.7516C19.8306 14.5323 20.2217 14.1784 20.5069 13.7286C20.7922 13.2788 20.9607 12.7504 20.9939 12.2013C21.0271 11.6522 20.9238 11.1035 20.6953 10.6153C20.4668 10.1271 20.1218 9.71813 19.6982 9.43324C19.2746 9.14834 18.7887 8.99847 18.2936 9.00001ZM18.2936 13C18.1156 13 17.9417 12.9414 17.7938 12.8315C17.6458 12.7216 17.5305 12.5654 17.4624 12.3827C17.3943 12.2 17.3765 11.9989 17.4112 11.8049C17.4459 11.6109 17.5316 11.4328 17.6574 11.2929C17.7832 11.1531 17.9435 11.0578 18.118 11.0192C18.2926 10.9806 18.4734 11.0004 18.6378 11.0761C18.8022 11.1518 18.9427 11.28 19.0416 11.4444C19.1404 11.6089 19.1932 11.8022 19.1932 12C19.1932 12.2652 19.0984 12.5196 18.9297 12.7071C18.761 12.8947 18.5322 13 18.2936 13Z" fill="black"/>
<path id="Vector_2" d="M3.9 7.33992H4.962C5.15118 7.82636 5.49627 8.24664 5.95035 8.54366C6.40443 8.84067 6.94549 9 7.5 9C8.05451 9 8.59557 8.84067 9.04965 8.54366C9.50373 8.24664 9.84882 7.82636 10.038 7.33992H20.1C20.3387 7.33992 20.5676 7.25143 20.7364 7.09391C20.9052 6.9364 21 6.72276 21 6.5C21 6.27724 20.9052 6.0636 20.7364 5.90609C20.5676 5.74857 20.3387 5.66008 20.1 5.66008H10.038C9.84882 5.17364 9.50373 4.75335 9.04965 4.45634C8.59557 4.15933 8.05451 4 7.5 4C6.94549 4 6.40443 4.15933 5.95035 4.45634C5.49627 4.75335 5.15118 5.17364 4.962 5.66008H3.9C3.66131 5.66008 3.43239 5.74857 3.2636 5.90609C3.09482 6.0636 3 6.27724 3 6.5C3 6.72276 3.09482 6.9364 3.2636 7.09391C3.43239 7.25143 3.66131 7.33992 3.9 7.33992ZM7.5 5.66008C7.678 5.66008 7.85201 5.70934 8.00001 5.80163C8.14802 5.89392 8.26337 6.0251 8.33149 6.17858C8.39961 6.33205 8.41743 6.50093 8.38271 6.66386C8.34798 6.82679 8.26226 6.97645 8.1364 7.09391C8.01053 7.21138 7.85016 7.29137 7.67558 7.32378C7.501 7.35619 7.32004 7.33956 7.15558 7.27598C6.99113 7.21241 6.85057 7.10476 6.75168 6.96663C6.65278 6.82851 6.6 6.66612 6.6 6.5C6.6 6.27724 6.69482 6.0636 6.8636 5.90609C7.03239 5.74857 7.2613 5.66008 7.5 5.66008Z" fill="black"/>
<path id="Vector_3" d="M20.1 16.6601H13.638C13.4488 16.1736 13.1037 15.7534 12.6497 15.4563C12.1956 15.1593 11.6545 15 11.1 15C10.5455 15 10.0044 15.1593 9.55035 15.4563C9.09627 15.7534 8.75118 16.1736 8.562 16.6601H3.9C3.66131 16.6601 3.43239 16.7486 3.2636 16.9061C3.09482 17.0636 3 17.2772 3 17.5C3 17.7228 3.09482 17.9364 3.2636 18.0939C3.43239 18.2514 3.66131 18.3399 3.9 18.3399H8.562C8.75118 18.8264 9.09627 19.2466 9.55035 19.5437C10.0044 19.8407 10.5455 20 11.1 20C11.6545 20 12.1956 19.8407 12.6497 19.5437C13.1037 19.2466 13.4488 18.8264 13.638 18.3399H20.1C20.3387 18.3399 20.5676 18.2514 20.7364 18.0939C20.9052 17.9364 21 17.7228 21 17.5C21 17.2772 20.9052 17.0636 20.7364 16.9061C20.5676 16.7486 20.3387 16.6601 20.1 16.6601ZM11.1 18.3399C10.922 18.3399 10.748 18.2907 10.6 18.1984C10.452 18.1061 10.3366 17.9749 10.2685 17.8214C10.2004 17.6679 10.1826 17.4991 10.2173 17.3361C10.252 17.1732 10.3377 17.0236 10.4636 16.9061C10.5895 16.7886 10.7498 16.7086 10.9244 16.6762C11.099 16.6438 11.28 16.6604 11.4444 16.724C11.6089 16.7876 11.7494 16.8952 11.8483 17.0334C11.9472 17.1715 12 17.3339 12 17.5C12 17.7228 11.9052 17.9364 11.7364 18.0939C11.5676 18.2514 11.3387 18.3399 11.1 18.3399Z" fill="black"/>
</g>
</g>
</svg>
