<svg width="12" height="18" viewBox="0 0 12 18" fill="none" xmlns="http://www.w3.org/2000/svg">
<g id="feLocation0">
<g id="feLocation1">
<path id="feLocation2" d="M6 16C6.437 16 7.479 14.813 8.411 12.688C9.357 10.534 10 7.874 10 6.353C10 3.924 8.183 2 6 2C3.817 2 2 3.924 2 6.353C2 7.873 2.643 10.534 3.589 12.688C4.52 14.813 5.563 16 6 16ZM6 18C2.686 18 0 9.862 0 6.353C0 2.844 2.686 0 6 0C9.314 0 12 2.844 12 6.353C12 9.862 9.314 18 6 18ZM6 8C6.53043 8 7.03914 7.78929 7.41421 7.41421C7.78929 7.03914 8 6.53043 8 6C8 5.46957 7.78929 4.96086 7.41421 4.58579C7.03914 4.21071 6.53043 4 6 4C5.46957 4 4.96086 4.21071 4.58579 4.58579C4.21071 4.96086 4 5.46957 4 6C4 6.53043 4.21071 7.03914 4.58579 7.41421C4.96086 7.78929 5.46957 8 6 8Z" fill="black"/>
</g>
</g>
</svg>
