<svg width="50" height="44" viewBox="0 0 50 44" fill="none" xmlns="http://www.w3.org/2000/svg">
<path d="M26.0996 3.34863C29.135 3.40944 32.13 4.01753 34.5989 6.12559C37.3915 8.51742 39.0508 11.5579 39.0104 15.2875C38.9901 17.8415 39.496 20.1523 40.8519 22.3617C42.491 25.0373 41.8839 27.8142 40.4674 30.4088C39.2937 32.5776 38.1604 34.7465 37.0879 36.9559C36.0761 39.0234 34.4572 40.2598 32.0288 39.9963C30.7944 39.8545 29.6612 40.3004 28.447 40.3409C26.1198 40.422 23.7926 40.3815 21.4655 40.3409C20.0489 40.3004 18.6526 40.4423 17.2361 40.6044C15.5362 40.8274 14.2816 40.2599 13.5126 38.6383C12.0758 35.5978 10.4569 32.6384 9.04036 29.5777C7.76547 26.8413 7.84641 24.1657 9.52603 21.5914C10.7402 19.7266 10.9223 17.6388 10.9426 15.4902C10.9628 13.0984 11.5092 10.8282 12.7841 8.78093C14.3625 6.26748 16.6492 4.76752 19.5633 4.13915C21.6881 3.69322 23.8331 3.40944 26.0996 3.34863Z" fill="black"/>
<path d="M25.1084 15.6521C21.5064 15.6521 17.8841 15.6521 14.282 15.6521C12.5619 15.6521 12.2381 15.2265 12.5619 13.5643C13.4523 9.00364 17.6817 5.33482 22.2956 5.09158C24.6025 4.96996 26.8892 4.86861 29.1759 5.25374C32.9601 5.90237 36.7646 9.67254 37.3919 13.5035C37.4121 13.686 37.4728 13.8684 37.4931 14.0305C37.7157 15.1859 37.3514 15.6319 36.1575 15.6319C32.4745 15.6319 28.7914 15.6319 25.1084 15.6521Z" fill="white"/>
<path d="M16.1829 30.9155C16.5674 31.5033 16.9519 32.1114 17.3566 32.679C17.9637 33.51 18.5505 33.6519 19.4409 33.1452C20.3718 32.6182 21.242 32.0101 22.1728 31.4628C23.9536 30.4088 25.7749 30.4088 27.6164 31.3614C28.4259 31.7871 29.1948 32.2736 29.9436 32.8006C31.3601 33.7938 32.1494 33.6925 33.0398 32.233C34.3551 30.0642 35.6098 27.875 36.8644 25.6656C37.2489 24.9765 37.3299 24.2468 37.0465 23.4765C36.9454 23.1927 36.8442 22.8887 36.7835 22.5846C36.7025 22.1387 37.3299 20.6996 37.6132 20.7401C38.0988 20.8009 38.3214 21.3077 38.6047 21.6522C40.5677 24.1454 40.6689 26.821 39.2321 29.5777C37.9572 32.0101 36.6216 34.4019 35.3062 36.814C34.9824 37.4221 34.598 37.9694 33.9706 38.3342C33.1207 38.8207 32.2708 38.7396 31.4208 38.2937C30.0043 37.5437 28.5675 36.8951 26.9891 36.591C24.5607 36.1248 22.2133 36.4694 19.9873 37.5235C19.3802 37.8072 18.7731 38.1315 18.1458 38.3748C16.8304 38.9018 15.5151 38.5167 14.8473 37.2802C13.2688 34.4222 11.7107 31.5641 10.2739 28.625C8.95851 25.8481 10.0108 23.3346 11.6095 21.0441C11.8118 20.7401 12.1154 20.7604 12.4392 20.9428C13.0867 21.3077 13.37 21.9563 13.1272 22.8279C12.9046 23.6184 12.8237 24.4089 12.9046 25.2197C13.0867 25.8075 12.6415 26.0508 12.2773 26.3345C11.9737 26.5575 11.5488 26.7197 11.7714 27.2467C12.1761 28.098 12.5201 28.9696 12.9451 29.8007C13.3498 30.6115 13.9366 31.1993 14.8473 31.402C14.9889 31.4425 15.1104 31.402 15.2115 31.3209C15.5353 31.1587 15.6972 30.652 16.1829 30.9155Z" fill="white"/>
<path d="M31.0585 31.3615C30.5121 31.2602 30.0062 31.0169 29.5407 30.6723C28.1647 29.6791 26.6874 28.9494 24.9269 28.9697C23.1865 28.9899 21.77 29.7399 20.4142 30.7129C18.9571 31.7872 18.2893 31.625 17.4597 30.044C16.6907 28.5237 15.8205 27.0643 14.9503 25.6049C14.7885 25.3414 14.6468 25.0576 14.5051 24.7738C14.404 24.5306 14.3837 24.2468 14.5659 24.0239C14.748 23.7806 15.0111 23.8009 15.2741 23.9022C17.743 24.8752 19.969 24.1657 22.0938 22.8279C23.9758 21.6523 25.8375 21.5712 27.7599 22.7874C28.9539 23.5374 30.2288 24.1252 31.6656 24.3076C32.6571 24.4495 33.5678 24.2266 34.4987 23.9428C34.8224 23.8414 35.1867 23.6793 35.4295 24.0036C35.6521 24.3076 35.6116 24.6522 35.4295 25.0171C34.4582 26.9022 33.2035 28.6048 32.2727 30.5102C32.0501 31.0169 31.6251 31.3007 31.0585 31.3615Z" fill="white"/>
<path d="M15.2125 19.4024C21.6476 19.4024 28.0828 19.4024 34.4977 19.4024C34.781 19.4024 35.0846 19.3619 35.3476 19.443C35.8536 19.5646 36.1166 19.8686 35.8333 20.4159C35.3679 21.3686 34.7001 22.0983 33.7894 22.6253C32.7574 23.2334 31.7456 23.0713 30.754 22.4834C29.5398 21.7537 28.3054 21.1254 26.9091 20.8011C24.5212 20.2132 22.3154 20.6794 20.2109 21.8754C20.0894 21.9362 19.9883 22.0172 19.8871 22.078C17.8837 23.5577 16.5886 23.2132 14.6661 21.5105C14.3626 21.247 14.1804 20.9024 14.0995 20.497C13.9983 19.5849 14.2816 19.2403 15.2125 19.4024Z" fill="white"/>
<path d="M37.3104 17.2529C33.6679 18.0637 16.4063 18.0637 12.6221 17.2529C20.9392 17.2529 29.0337 17.2529 37.3104 17.2529Z" fill="white"/>
<path d="M13.2092 25.7061C14.2413 27.3276 15.2126 28.9695 16.0019 30.733C15.759 30.9559 15.4757 30.9762 15.1722 30.8951C15.0508 30.8546 14.9496 30.7735 14.8686 30.6924C14.3222 29.2533 13.3509 28.0776 12.501 26.8209C12.5617 26.3141 12.6629 25.8682 13.2092 25.7061Z" fill="white"/>
<path d="M26.7465 37.99C25.5525 38.8008 24.3586 38.5575 23.0635 38.2738C24.2979 37.5238 25.4716 37.5035 26.7465 37.99Z" fill="white"/>
<path d="M13.2098 25.7064C13.0074 26.0713 12.7848 26.4564 12.5824 26.8213C12.7038 26.9834 12.6634 27.0848 12.5015 27.1659C12.2384 27.1051 11.9753 26.9834 11.7527 27.2469C11.7123 27.2672 11.692 27.2672 11.6516 27.2875C11.2468 26.7807 11.6313 26.5375 11.9956 26.3145C12.4205 26.051 12.8657 25.8281 12.9264 25.2402C13.0074 25.3821 13.1086 25.5443 13.2098 25.7064Z" fill="black"/>
<path d="M15.0918 30.7327C15.3954 30.7327 15.6989 30.7124 16.0025 30.7124C16.0632 30.7732 16.1239 30.8543 16.1846 30.9151C15.6989 30.8746 15.5573 31.3408 15.2537 31.5637C14.8085 31.361 14.8692 31.0773 15.0918 30.7327Z" fill="black"/>
<path d="M38.4848 27.4284C38.4443 27.5095 38.4241 27.6716 38.3432 27.7933C37.6754 28.9081 37.0076 30.0229 36.3195 31.1378C36.0564 31.5432 35.7327 31.8269 35.2268 31.5026C34.7411 31.1986 34.8827 30.7932 35.1053 30.4081C35.7124 29.3743 36.3398 28.3608 36.9468 27.3271C37.0885 27.0838 37.2706 26.8609 37.5539 26.719C37.9991 26.4757 38.505 26.8406 38.4848 27.4284Z" fill="black"/>
<path d="M12.4393 27.1253C12.4798 27.024 12.5203 26.9226 12.581 26.8213C13.613 27.6726 14.1797 28.8483 14.7665 30.0036C14.8677 30.1861 14.9082 30.3888 14.9689 30.5915C14.6046 30.936 15.1105 31.3212 14.9082 31.686C13.7142 31.4023 13.0262 30.5712 12.5608 29.4969C12.2572 28.7672 11.9334 28.0172 11.6299 27.2875V27.3078C11.8525 27.0037 12.1965 27.328 12.4393 27.1253Z" fill="black"/>
<path d="M32.9182 37.1989C32.0683 37.1786 31.5624 36.6313 31.6028 35.8003C31.6433 34.9489 32.2909 34.3611 33.161 34.3814C33.8693 34.4016 34.4562 35.0503 34.4359 35.8003C34.4157 36.7327 33.8693 37.2191 32.9182 37.1989Z" fill="black"/>
<path d="M14.9095 31.6654C14.8083 31.3005 14.4238 30.9154 14.9702 30.5708C15.0106 30.6316 15.0511 30.6722 15.1118 30.733C15.1321 31.0167 14.9904 31.3208 15.2535 31.564C15.1523 31.6856 15.0309 31.6856 14.9095 31.6654Z" fill="white"/>
<path d="M12.4393 27.1257C12.3989 27.3487 12.4798 27.7743 12.0548 27.3487C11.9739 27.2676 11.7715 27.3081 11.6299 27.2879C11.6299 26.8419 11.9537 26.8216 12.2572 26.8014C12.5 26.7608 12.3989 27.0041 12.4393 27.1257Z" fill="white"/>
<path d="M12.7842 28.1182C13.4115 28.6046 13.6746 29.3141 13.9579 30.0033C13.3508 29.5168 12.9865 28.8681 12.7842 28.1182Z" fill="white"/>
</svg>
