<svg width="28" height="28" viewBox="0 0 28 28" fill="none" xmlns="http://www.w3.org/2000/svg">
<g id="icon/home">
<path id="Vector" d="M5.83333 25.6668H22.1667C22.7855 25.6668 23.379 25.4209 23.8166 24.9834C24.2542 24.5458 24.5 23.9523 24.5 23.3334V12.8334C24.5009 12.6799 24.4715 12.5277 24.4134 12.3856C24.3553 12.2434 24.2698 12.1141 24.1617 12.0051L14.8283 2.67178C14.6097 2.45448 14.314 2.33252 14.0058 2.33252C13.6976 2.33252 13.4019 2.45448 13.1833 2.67178L3.85 12.0051C3.73976 12.1132 3.65207 12.242 3.59199 12.3842C3.53191 12.5264 3.50064 12.6791 3.5 12.8334V23.3334C3.5 23.9523 3.74583 24.5458 4.18342 24.9834C4.621 25.4209 5.21449 25.6668 5.83333 25.6668ZM11.6667 23.3334V17.5001H16.3333V23.3334H11.6667ZM5.83333 13.3118L14 5.14511L22.1667 13.3118V23.3334H18.6667V17.5001C18.6667 16.8813 18.4208 16.2878 17.9832 15.8502C17.5457 15.4126 16.9522 15.1668 16.3333 15.1668H11.6667C11.0478 15.1668 10.4543 15.4126 10.0168 15.8502C9.57917 16.2878 9.33333 16.8813 9.33333 17.5001V23.3334H5.83333V13.3118Z" fill="black"/>
</g>
</svg>
