<svg width="51" height="26" viewBox="0 0 51 26" fill="none" xmlns="http://www.w3.org/2000/svg">
<g id="Group">
<path id="Vector" d="M14.2255 12.806C11.8144 12.7758 9.40333 13.5889 6.90183 13.9503C4.91269 14.2213 3.0441 14.1611 1.3262 12.9264C0.602877 12.4145 0.211076 11.8122 0.75357 10.969C1.29606 10.0957 1.92897 10.5474 2.53174 10.9389C4.40033 12.1435 5.90726 12.023 7.71557 10.4571C9.76499 8.65025 11.7843 6.81331 13.7433 4.94625C16.5763 2.236 19.8011 1.42293 23.478 2.89851C24.8041 3.44056 26.1001 3.44056 27.4262 2.89851C30.9524 1.48315 34.1471 2.14566 36.95 4.58488C39.0295 6.39171 40.9885 8.34911 43.0681 10.1861C44.0024 10.9991 44.9668 11.7821 46.3532 11.6918C47.1368 11.6315 47.7697 11.3605 48.4026 10.9389C49.0054 10.5474 49.6383 10.1559 50.2411 10.9389C50.874 11.7821 50.2109 12.1736 49.6986 12.6554C48.0711 14.131 46.1121 14.1912 44.0928 13.9202C41.8324 13.619 39.572 13.1974 37.3116 12.806C35.2622 12.4446 33.3936 12.9264 31.6154 13.8901C29.9578 14.7935 28.4207 15.9077 26.4316 16.1486C24.1712 16.4196 22.2423 15.6969 20.4039 14.4622C18.5956 13.2276 16.5462 12.6855 14.2255 12.806Z" fill="black"/>
<path id="Vector_2" d="M25.5576 25.2435C18.9874 25.0327 14.2557 22.1116 10.9103 16.8116C10.4884 16.119 10.4281 15.5167 11.1816 15.0048C11.935 14.523 12.4474 14.9445 12.8392 15.5468C14.0749 17.4139 15.5516 19.04 17.3901 20.3349C23.689 24.7918 32.4594 23.3764 36.95 17.0826C37.3418 16.5406 37.7035 15.9985 38.0651 15.4565C38.4569 14.8542 38.9693 14.5832 39.6323 14.9747C40.2954 15.3661 40.3255 15.9985 39.994 16.6008C37.7336 20.4855 34.6293 23.3162 30.199 24.4906C28.6016 24.9725 26.9741 25.1833 25.5576 25.2435Z" fill="black"/>
<path id="Vector_3" d="M11.6635 2.11581C11.5731 2.89877 11.2114 3.50105 10.3073 3.53116C9.46339 3.56128 8.95104 3.13968 8.9209 2.32661C8.9209 1.48342 9.25242 0.790803 10.247 0.760689C11.1512 0.700462 11.543 1.27263 11.6635 2.11581Z" fill="black"/>
<path id="Vector_4" d="M39.0594 10.3668C35.2921 9.73444 32.0371 10.8185 28.963 12.7759C27.878 13.4686 26.7629 14.1009 25.4067 14.0407C24.5628 14.0106 23.8093 13.8299 23.0559 13.4384C20.916 12.2941 18.8967 10.8487 16.4254 10.3969C14.8582 10.0958 13.3512 10.1861 11.7539 10.4271C13.9239 8.07818 15.3705 4.79577 19.168 4.61508C20.7051 4.55485 22.2421 4.94634 23.7792 5.15713C25.8889 5.45827 27.9684 5.15713 30.0179 4.70542C31.9467 4.28383 33.6345 4.67531 35.1113 5.90998C36.6785 7.20487 37.8539 8.7708 39.0594 10.3668Z" fill="white"/>
</g>
</svg>
