<svg width="25" height="37" viewBox="0 0 25 37" fill="none" xmlns="http://www.w3.org/2000/svg">
<path id="Vector" d="M0.0292969 18.4514C0.0292969 12.9963 0.0292969 7.54107 0.0292969 2.24633C0.0292969 0.641867 0.350598 0.160522 1.95713 0.160522C3.40301 0.160522 4.84888 0.160522 6.29476 0.160522C7.74064 0.160522 8.06196 0.481426 8.06196 1.92545C8.06196 10.2687 8.06196 18.4515 8.06196 26.7947C8.06196 28.5596 8.38326 28.72 9.98979 28.72C14.1668 28.72 18.3438 28.72 22.5207 28.72C23.9666 28.72 24.2879 29.0409 24.2879 30.4849C24.2879 32.0894 24.2879 33.6939 24.2879 35.2983C24.2879 36.4215 23.806 36.9028 22.5207 36.9028C15.6127 36.9028 8.70455 36.9028 1.79647 36.9028C0.511242 36.9028 0.0292969 36.4215 0.0292969 34.9775C0.0292969 29.5223 0.0292969 24.0671 0.0292969 18.4514Z" fill="black"/>
</svg>
