<svg width="10" height="16" viewBox="0 0 10 16" fill="none" xmlns="http://www.w3.org/2000/svg">
<g id="feLocation0">
<g id="feLocation1">
<path id="feLocation2" d="M5 13.8333C5.36417 13.8333 6.2325 12.8442 7.00917 11.0733C7.7975 9.27833 8.33333 7.06167 8.33333 5.79417C8.33333 3.77 6.81917 2.16667 5 2.16667C3.18083 2.16667 1.66667 3.77 1.66667 5.79417C1.66667 7.06083 2.2025 9.27833 2.99083 11.0733C3.76667 12.8442 4.63583 13.8333 5 13.8333ZM5 15.5C2.23833 15.5 0 8.71833 0 5.79417C0 2.87 2.23833 0.5 5 0.5C7.76167 0.5 10 2.87 10 5.79417C10 8.71833 7.76167 15.5 5 15.5ZM5 7.16667C5.44203 7.16667 5.86595 6.99107 6.17851 6.67851C6.49107 6.36595 6.66667 5.94203 6.66667 5.5C6.66667 5.05797 6.49107 4.63405 6.17851 4.32149C5.86595 4.00893 5.44203 3.83333 5 3.83333C4.55797 3.83333 4.13405 4.00893 3.82149 4.32149C3.50893 4.63405 3.33333 5.05797 3.33333 5.5C3.33333 5.94203 3.50893 6.36595 3.82149 6.67851C4.13405 6.99107 4.55797 7.16667 5 7.16667Z" fill="black"/>
</g>
</g>
</svg>
