<svg width="28" height="37" viewBox="0 0 28 37" fill="none" xmlns="http://www.w3.org/2000/svg">
<path id="Vector" d="M10.063 22.4626C10.063 18.291 10.063 14.1194 10.063 9.94778C10.063 8.50376 9.74169 8.02241 8.13516 8.02241C6.20732 8.02241 4.27949 8.02241 2.35165 8.02241C1.22708 8.02241 0.745117 7.54107 0.745117 6.41794C0.745117 4.81348 0.745117 3.20901 0.745117 1.60454C0.745117 0.641865 1.22708 0.160522 2.35165 0.160522C10.2237 0.160522 17.935 0.160522 25.807 0.160522C26.7709 0.160522 27.4135 0.641865 27.4135 1.60454C27.4135 3.20901 27.4135 4.97392 27.4135 6.57839C27.4135 7.70151 26.9316 8.02241 25.807 8.02241C23.8792 8.02241 21.9513 8.02241 19.8628 8.02241C18.417 8.02241 18.0957 8.3433 18.0957 9.78732C18.0957 17.9701 18.0957 26.3133 18.0957 34.4961C18.0957 36.4215 17.7744 36.5819 16.0072 36.5819C14.5613 36.5819 13.1154 36.5819 11.6695 36.5819C10.3843 36.5819 10.063 36.261 10.063 34.9774C10.063 30.9663 10.063 26.7947 10.063 22.4626Z" fill="black"/>
</svg>
