<svg width="39" height="45" viewBox="0 0 39 45" fill="none" xmlns="http://www.w3.org/2000/svg">
<g id="Logo">
<g id="Group">
<path id="Vector" d="M11.1682 22.5632C11.1682 22.6263 11.1363 22.6579 11.1363 22.6894C11.1363 22.7841 11.1363 22.8789 11.1363 22.9736C11.1363 28.4352 11.1363 33.9283 11.1363 39.39C11.1363 39.5478 11.1363 39.6741 11.1363 39.8319C11.0725 40.4633 10.5939 40.9053 9.95576 40.9369C9.89194 40.9369 9.79622 40.9369 9.73241 40.9369C7.94561 40.9369 6.19071 40.9369 4.40391 40.9369C4.27629 40.9369 4.18056 40.9369 4.05294 40.9053C3.38289 40.8106 3 40.1792 3 39.7057C3 39.6109 3 39.5162 3 39.4215C3 28.1195 3 16.7543 3 5.42065C3 5.32594 3 5.2628 3 5.16809C3.03191 4.53669 3.54242 4.03157 4.21247 4C4.27629 4 4.3401 4 4.43582 4C6.19071 4 7.97751 4 9.73241 4C9.89194 4 10.0515 4 10.1791 4.03157C10.7215 4.15785 11.0725 4.59983 11.1363 5.13652C11.1363 5.23123 11.1363 5.35751 11.1363 5.45222C11.1363 8.54608 11.1363 11.6084 11.1363 14.7022C11.1363 14.8285 11.1363 14.9232 11.1363 15.0495C11.2001 15.0495 11.2639 15.0811 11.2959 15.0811C11.3916 15.0811 11.4873 15.0811 11.583 15.0811C15.2842 15.0811 19.0174 15.0811 22.7186 15.0811C22.8781 15.0811 23.0377 15.0811 23.1653 15.1126C23.6439 15.2073 23.963 15.6178 23.9949 16.0913C23.9949 16.1544 23.9949 16.2176 23.9949 16.2807C23.9949 17.9539 23.9949 19.6271 23.9949 21.3004C23.9949 21.4266 23.9949 21.5529 23.963 21.6792C23.8354 22.1212 23.5482 22.4053 23.0696 22.4684C22.942 22.5 22.8143 22.5 22.6867 22.5C18.9536 22.5 15.2204 22.5 11.4873 22.5C11.3916 22.5316 11.2959 22.5316 11.1682 22.5632Z" fill="black"/>
<path id="Vector_2" d="M27.5361 32.2866C27.5361 29.8242 27.5361 27.3617 27.5361 24.8993C27.5361 24.773 27.5361 24.6467 27.568 24.5204C27.6319 24.0469 28.0786 23.6365 28.5891 23.6365C28.6848 23.6365 28.7486 23.6365 28.8443 23.6365C30.5035 23.6365 32.1308 23.6365 33.7899 23.6365C33.8537 23.6365 33.9176 23.6365 33.9814 23.6365C34.4919 23.6365 35.0343 24.0153 35.0662 24.7099C35.0662 24.773 35.0662 24.8361 35.0662 24.8993C35.0662 29.8558 35.0662 34.7807 35.0662 39.7372C35.0662 39.8634 35.0662 40.0213 35.0343 40.1476C34.9386 40.6211 34.5238 40.9684 34.0452 41C33.9814 41 33.8857 41 33.8218 41C32.1627 41 30.4716 41 28.8124 41C28.6848 41 28.5891 41 28.4614 40.9684C27.9509 40.8737 27.5999 40.4633 27.568 39.9266C27.568 39.8319 27.568 39.7372 27.568 39.6425C27.5361 37.18 27.5361 34.7175 27.5361 32.2866Z" fill="black"/>
</g>
</g>
</svg>
