<svg width="28" height="37" viewBox="0 0 28 37" fill="none" xmlns="http://www.w3.org/2000/svg">
<path id="Vector" d="M27.2545 13.7985C27.2545 17.1679 27.0938 20.5372 27.2545 23.9066C27.5758 31.2872 21.6316 36.261 15.5268 36.9028C9.74328 37.5446 4.28107 34.9774 1.87127 30.164C1.06801 28.5596 0.58605 26.7947 0.58605 25.0297C0.425397 17.3283 0.58605 9.62688 0.58605 1.92544C0.58605 0.481425 0.907354 0.160522 2.35323 0.160522C3.79911 0.160522 5.40564 0.160522 6.85152 0.160522C8.2974 0.160522 8.61871 0.481425 8.61871 1.92544C8.61871 9.14554 8.61871 16.3656 8.61871 23.5857C8.61871 27.7573 11.9924 30.0036 16.0088 28.72C18.2579 27.9178 19.2218 26.6342 19.2218 24.2275C19.2218 16.847 19.2218 9.46643 19.2218 2.08589C19.2218 0.481423 19.5431 0.160522 21.1497 0.160522C22.5955 0.160522 24.2021 0.160522 25.6479 0.160522C26.7725 0.160522 27.2545 0.641862 27.2545 1.76499C27.2545 5.77615 27.2545 9.78732 27.2545 13.7985Z" fill="black"/>
</svg>
