<svg width="25" height="37" viewBox="0 0 25 37" fill="none" xmlns="http://www.w3.org/2000/svg">
<path id="Vector" d="M4.04758 25.6714C4.52954 25.6714 5.0115 25.6714 5.33281 25.6714C6.77869 25.511 7.7426 25.6714 8.22456 27.2759C8.70652 28.7199 10.795 29.2013 13.0442 28.8804C14.8113 28.5595 15.9359 27.2759 15.9359 25.6714C15.7753 24.067 14.6507 22.7834 12.8835 22.623C10.6344 22.4625 8.38522 22.3021 6.29673 21.179C1.95909 18.9327 -0.290056 13.9588 0.834516 8.66411C1.79844 4.01116 5.49346 0.802223 10.3131 0.160436C14.0081 -0.320904 17.2211 0.481334 20.1129 3.04848C22.0407 4.81339 23.0047 7.05964 23.326 9.62679C23.4866 10.9104 22.844 11.5522 21.5588 11.5522C19.9522 11.5522 18.5064 11.5522 16.8998 11.5522C15.9359 11.5522 15.454 11.2313 15.2933 10.2686C14.6507 8.34322 13.3655 7.70143 11.1163 8.18277C9.67044 8.50366 8.70652 9.78723 8.70652 11.3917C8.70652 13.1566 9.99175 14.4402 11.7589 14.4402C13.8474 14.6006 15.7753 14.7611 17.7031 15.7238C22.362 17.97 24.7718 22.4625 23.9686 27.4364C23.1653 32.2498 19.4703 35.94 14.49 36.5818C10.4737 37.2236 6.61803 36.5818 3.40496 33.8542C1.31647 32.0893 0.191903 29.8431 0.03125 27.1155C0.03125 25.9923 0.352559 25.511 1.47713 25.511C2.44105 25.6715 3.24431 25.6714 4.04758 25.6714Z" fill="black"/>
</svg>
