<svg width="27" height="37" viewBox="0 0 27 37" fill="none" xmlns="http://www.w3.org/2000/svg">
<path id="Vector" d="M0.225586 18.4513C0.225586 12.9961 0.225586 7.5409 0.225586 2.08571C0.225586 0.641692 0.546878 0.320801 1.99276 0.320801C9.70411 0.320801 17.2548 0.320801 24.9662 0.320801C26.412 0.320801 26.7334 0.641692 26.7334 2.08571C26.7334 3.52973 26.7334 5.13419 26.7334 6.57821C26.7334 7.86178 26.4121 8.18268 25.1268 8.18268C20.1466 8.18268 15.327 8.18268 10.3467 8.18268C8.57953 8.18268 8.25825 8.50357 8.25825 10.2685C8.25825 11.0707 8.25825 12.0334 8.25825 12.8356C8.25825 14.2796 8.57954 14.6005 10.0254 14.6005C14.0417 14.6005 18.2187 14.6005 22.2351 14.6005C24.1629 14.6005 24.3236 14.761 24.3236 16.6864C24.3236 17.9699 24.3236 19.2535 24.3236 20.6975C24.3236 22.302 24.0022 22.6229 22.3957 22.6229C18.3794 22.6229 14.2024 22.6229 10.1861 22.6229C8.57955 22.6229 8.25825 22.9438 8.25825 24.5482C8.25825 25.3505 8.25825 26.3131 8.25825 27.1154C8.25825 28.5594 8.57954 28.8803 10.0254 28.8803C14.845 28.8803 19.8253 28.8803 24.6449 28.8803C26.5727 28.8803 26.7334 29.0407 26.7334 30.9661C26.7334 32.4101 26.7334 33.6937 26.7334 35.1377C26.7334 36.4213 26.2514 36.7422 25.1268 36.7422C17.4155 36.7422 9.70411 36.7422 1.99276 36.7422C0.707531 36.7422 0.386224 36.2608 0.386224 34.9773C0.225571 29.5221 0.225586 23.9064 0.225586 18.4513Z" fill="black"/>
</svg>
