<svg width="42" height="42" viewBox="0 0 42 42" fill="none" xmlns="http://www.w3.org/2000/svg">
<path d="M7.80168 15.6311C15.6078 11.7294 23.4382 7.82775 31.2686 3.92609C31.4631 3.82915 31.6576 3.70798 31.8522 3.63528C32.7763 3.32024 33.2626 2.7871 32.9465 1.74504C32.8249 1.30883 32.8006 0.727213 33.2869 0.460639C33.749 0.194066 34.0894 0.654511 34.4299 0.872616C35.1351 1.30883 35.7187 1.96314 36.6915 1.91467C36.9346 1.89044 37.1778 2.25395 37.421 2.47205C37.956 2.90827 38.491 3.34448 39.2205 3.39294C40.0473 3.46565 40.6553 4.24113 40.4121 5.01662C40.1933 5.81634 40.2176 6.64029 40.2419 7.44001C40.2662 8.5063 39.9987 9.42719 38.9774 9.96034C38.2235 10.3723 38.2235 10.857 38.6855 11.5598C39.4637 12.723 40.1689 13.9589 40.8498 15.1949C41.4578 16.3096 41.2389 17.2063 40.2662 18.0302C39.6096 18.5634 38.8558 18.9511 38.029 19.1935C36.6671 19.5812 35.7187 19.2419 35.1838 17.9333C34.6731 16.6731 33.749 15.5584 33.749 14.1043C33.749 13.6439 33.4572 13.2804 32.8979 13.3046C31.0497 13.3531 29.7852 14.5405 28.4963 15.6068C28.1072 15.9219 28.472 16.3581 28.6665 16.7216C30.3445 19.8962 32.8249 22.2712 35.9862 23.9433C36.959 24.4522 37.9317 24.9369 38.9287 25.4216C40.631 26.2698 41.1173 27.5299 40.4121 29.299C40.3392 29.4929 40.2419 29.711 40.1446 29.9049C39.2205 31.892 38.029 32.4009 36.0349 31.5285C33.0438 30.2199 30.2715 28.4993 27.7181 26.4152C26.867 25.7124 26.0402 25.0096 25.2134 24.2584C24.4838 23.604 23.7057 23.5556 22.8545 23.9675C21.8818 24.4522 21.3711 25.3004 21.4684 26.2213C21.5414 26.7787 21.7116 27.3118 21.8332 27.8692C22.2466 29.6383 21.3711 31.1165 19.5959 31.6255C19.2068 31.7466 18.8177 31.8678 18.4286 31.989C16.6291 32.6191 15.7293 33.7823 15.6807 35.6968C15.6564 36.8358 15.705 37.9505 15.6807 39.0895C15.6564 40.4466 15.0484 41.1494 13.7596 41.4644C13.0057 41.6583 12.2519 41.6341 11.5223 41.5856C10.0876 41.4887 9.47962 40.9071 9.26076 39.453C8.94463 37.4174 9.13917 35.3817 9.09054 33.3461C9.0419 31.5528 8.79872 31.2135 7.04782 30.9711C6.26965 30.8742 5.83192 30.4622 5.49147 29.7837C4.15398 27.0453 2.76786 24.3311 1.38173 21.6411C0.457646 19.872 0.579236 19.46 2.30581 18.418C2.4274 18.2968 2.52468 18.1514 2.67058 18.0302C4.12966 17.4002 5.58874 16.7943 6.90192 15.8734C7.19373 15.728 7.48555 15.6795 7.80168 15.6311Z" fill="black"/>
<path d="M1.77148 16.6491C2.71989 14.5892 4.56805 14.2014 6.56213 14.1045C6.6594 14.88 6.34327 15.4858 5.39487 16.334C4.93282 16.5521 4.54374 16.9156 4.00874 16.9641C3.25488 16.9156 2.45239 17.2791 1.77148 16.6491Z" fill="black"/>
<path d="M5.36918 16.1644C5.85554 15.5343 6.39053 14.9284 6.56076 14.1045C6.87689 14.153 6.92553 14.4438 7.0228 14.6619C6.99848 15.0981 6.97416 15.5343 6.99848 15.9705C5.78258 17.1337 4.1776 17.5942 2.66988 18.2485C2.37806 17.9577 2.37806 17.9335 2.91306 17.4972C3.05897 17.4245 3.22919 17.3518 3.39942 17.2791C4.12896 16.9883 4.80986 16.6975 5.36918 16.1644Z" fill="white"/>
<path d="M3.44904 17.4976C3.35177 17.6672 3.18155 17.6672 3.01132 17.643C2.50064 17.7399 2.16019 17.4734 1.89269 17.0856C1.72247 16.9887 1.74678 16.8191 1.7711 16.6494C2.54928 16.916 3.35177 16.6979 4.15427 16.7221C4.2029 17.2553 3.64359 17.1826 3.44904 17.4976Z" fill="white"/>
<path d="M7.02388 15.9698C6.61047 15.679 6.61047 15.679 7.04819 14.6611C7.24274 15.0246 7.38865 15.4366 7.80205 15.6305C7.63183 15.9455 7.34001 15.9698 7.02388 15.9698Z" fill="black"/>
<path d="M1.89258 17.085C2.28167 17.2788 2.64644 17.4485 3.01121 17.6423C2.93825 17.8604 2.47621 17.8847 2.69507 18.2482C2.5978 18.3936 2.47621 18.4178 2.30598 18.3936C2.18439 17.9574 2.03849 17.5212 1.89258 17.085Z" fill="black"/>
<path d="M14.0271 33.1765C14.0271 34.8486 14.0514 36.4965 14.0271 38.1687C14.0271 39.235 13.638 39.6227 12.6409 39.6712C11.5466 39.7197 10.9387 39.3319 10.89 38.3141C10.7928 36.9085 10.7684 35.503 10.8414 34.0974C10.963 31.674 10.1119 29.9049 7.72869 29.0083C6.75597 28.6448 6.14802 27.8693 5.80757 26.9242C5.22394 25.3005 4.4944 23.7495 3.66759 22.247C2.91373 20.8414 3.08395 20.1871 4.54303 19.4116C7.16938 18.0303 9.86868 16.7459 12.5193 15.413C15.3159 14.0075 18.1125 12.5777 20.9091 11.1721C21.2981 10.9782 21.7115 10.7844 22.1006 10.639C22.9274 10.3239 23.5597 10.5178 23.9731 11.3417C24.9945 13.3774 26.0158 15.413 27.0615 17.4487C27.2561 17.8122 27.1345 18.0061 26.9642 18.2969C26.0645 19.7267 24.8243 20.8172 23.3652 21.6654C21.055 22.9498 18.7448 24.1857 16.313 25.2278C14.635 25.9548 13.9298 27.118 14.0271 28.9113C14.0757 30.2927 14.0271 31.7225 14.0271 33.1765Z" fill="white"/>
<path d="M34.9167 4.48356C36.8865 4.41085 38.078 6.2284 37.9565 7.99747C37.9321 8.38522 37.6646 8.67602 37.2999 8.84566C34.406 10.2755 31.5365 11.7537 28.6183 13.1593C27.4511 13.7167 26.9647 13.4743 26.4054 12.2869C26.1379 11.681 25.8218 11.1237 25.5056 10.542C25.0922 9.79078 25.1409 9.088 25.9434 8.70026C28.6183 7.34316 31.2447 5.88912 34.0169 4.65319C34.3331 4.50779 34.6735 4.48356 34.9167 4.48356Z" fill="white"/>
<path d="M37.3231 30.0258C37.0313 29.9289 36.6422 29.8562 36.3261 29.6865C32.9945 28.0629 29.8332 26.1726 27.1096 23.6281C25.7721 22.3679 26.1368 20.7685 27.912 20.1626C28.3255 20.0172 28.6659 20.1384 28.9334 20.4534C31.4868 23.5069 34.867 25.3971 38.3931 27.0935C38.9767 27.3843 39.0983 27.869 38.8795 28.4264C38.5876 29.1292 38.3931 29.9531 37.3231 30.0258Z" fill="white"/>
<path d="M35.1348 12.771C35.1348 12.3348 35.2077 11.947 35.6211 11.7289C36.0345 11.4866 36.3507 11.7289 36.6668 11.947C37.98 12.8437 38.515 14.2735 39.1229 15.6306C39.3904 16.2607 38.7095 17.3027 38.0286 17.4966C37.2261 17.7389 36.837 17.1816 36.5695 16.6242C35.9616 15.3883 35.232 14.2008 35.1348 12.771Z" fill="white"/>
<path d="M18.9148 29.105C19.0121 28.5234 19.0364 27.9902 18.2582 27.7963C17.8205 27.6752 17.1639 27.6267 17.3098 26.9239C17.4071 26.3665 18.6716 25.688 19.158 25.9061C19.9848 26.2696 20.3252 27.0209 20.3252 27.869C20.3252 28.5961 20.155 29.3231 19.2309 29.4443C18.9634 29.4927 18.8175 29.42 18.9148 29.105Z" fill="white"/>
<path d="M18.9151 29.1054C19.0124 29.2266 19.134 29.3477 19.2313 29.4689C18.6233 30.2686 17.6749 30.5837 16.8238 30.9714C16.5077 31.1168 16.1186 31.0441 15.924 30.6806C15.6808 30.1959 15.7052 29.7113 15.9727 29.2508C16.1672 28.96 16.4833 28.9115 16.7995 29.0569C17.5047 29.372 18.2099 29.372 18.9151 29.1054Z" fill="white"/>
<path d="M3.44922 17.4969C3.52217 17.085 3.98421 17.0607 4.17876 16.7457C4.61648 16.6487 4.88398 16.1641 5.37034 16.1641C5.02989 17.0365 4.13012 17.1092 3.44922 17.4969Z" fill="black"/>
<path d="M7.46135 22.5622C7.07226 22.6107 6.87772 22.3683 6.73181 22.0775C6.5859 21.7625 6.61022 21.4717 6.90204 21.2536C7.1209 21.0839 7.36408 20.9385 7.60726 20.7931C11.7413 18.709 15.8511 16.6491 19.9851 14.565C20.3013 14.4196 20.5931 14.2015 20.9578 14.2742C21.4442 14.3711 21.6387 15.0012 21.3469 15.4859C21.0794 15.9463 20.6174 16.1402 20.1553 16.3826C16.1915 18.3697 12.2034 20.3327 8.23953 22.2956C8.02066 22.441 7.75317 22.5864 7.46135 22.5622Z" fill="black"/>
<path d="M9.18679 25.7603C8.74907 25.8088 8.48157 25.5907 8.28702 25.2272C8.06816 24.7667 8.31134 24.5001 8.62748 24.282C8.89497 24.0639 9.21111 23.9185 9.52724 23.7731C12.4211 22.3191 15.3392 20.8651 18.2331 19.4595C18.7924 19.1929 19.5706 18.5871 19.984 19.5322C20.3244 20.3077 19.5949 20.6712 18.9869 20.962C16.1417 22.416 13.2965 23.8458 10.4756 25.2999C10.0622 25.4695 9.67315 25.7118 9.18679 25.7603Z" fill="black"/>
</svg>
