<svg width="229" height="119" viewBox="0 0 229 119" fill="none" xmlns="http://www.w3.org/2000/svg">
<g clip-path="url(#clip0_7348_7899)">
<circle cx="161.23" cy="104.329" r="14.6712" fill="#EFEFEF"/>
<circle cx="56.9017" cy="32.6019" r="14.6712" fill="#EFEFEF"/>
<circle cx="32.7808" cy="48.9039" r="9.78082" fill="#EFEFEF"/>
<circle cx="175.138" cy="17.9312" r="9.78082" fill="#EFEFEF"/>
<circle cx="64.568" cy="103.513" r="7.33562" fill="#EFEFEF"/>
<circle cx="114.772" cy="57.8699" r="57.8699" fill="#EFEFEF"/>
<path d="M97.1111 83H132.889C135.708 83 138 80.7127 138 77.9V42.2C138 39.3873 135.708 37.1 132.889 37.1H127.778V32H122.667V37.1H107.333V32H102.222V37.1H97.1111C94.2923 37.1 92 39.3873 92 42.2V77.9C92 80.7127 94.2923 83 97.1111 83ZM124.473 70.9971L120.86 74.6029L115 68.7557L109.14 74.6029L105.527 70.9971L111.386 65.15L105.527 59.3028L109.14 55.6971L115 61.5443L120.86 55.6971L124.473 59.3028L118.614 65.15L124.473 70.9971ZM97.1111 44.75H132.889V49.85H97.1111V44.75Z" fill="#C1C1C1"/>
</g>
<defs>
<clipPath id="clip0_7348_7899">
<rect width="229" height="119" fill="white"/>
</clipPath>
</defs>
</svg>
