<svg width="229" height="119" viewBox="0 0 229 119" fill="none" xmlns="http://www.w3.org/2000/svg">
<g clip-path="url(#clip0_7348_7905)">
<circle cx="161.23" cy="104.329" r="14.6712" fill="#EFEFEF"/>
<circle cx="56.9017" cy="32.6019" r="14.6712" fill="#EFEFEF"/>
<circle cx="32.7808" cy="48.9039" r="9.78082" fill="#EFEFEF"/>
<circle cx="175.138" cy="17.9312" r="9.78082" fill="#EFEFEF"/>
<circle cx="64.568" cy="103.513" r="7.33562" fill="#EFEFEF"/>
<circle cx="114.772" cy="57.8699" r="57.8699" fill="#EFEFEF"/>
<path d="M139.541 78.4588L129.766 68.7125C132.92 64.6946 134.631 59.7329 134.625 54.625C134.625 50.076 133.276 45.6292 130.749 41.8469C128.222 38.0646 124.629 35.1166 120.427 33.3758C116.224 31.635 111.599 31.1795 107.138 32.0669C102.676 32.9544 98.5782 35.1449 95.3616 38.3616C92.1449 41.5782 89.9544 45.6764 89.0669 50.1379C88.1795 54.5995 88.635 59.224 90.3758 63.4267C92.1166 67.6294 95.0646 71.2215 98.8469 73.7488C102.629 76.2761 107.076 77.625 111.625 77.625C116.733 77.6314 121.695 75.9201 125.713 72.7663L135.459 82.5413C135.726 82.8107 136.044 83.0246 136.394 83.1706C136.745 83.3165 137.12 83.3917 137.5 83.3917C137.88 83.3917 138.255 83.3165 138.606 83.1706C138.956 83.0246 139.274 82.8107 139.541 82.5413C139.811 82.274 140.025 81.956 140.171 81.6057C140.317 81.2553 140.392 80.8795 140.392 80.5C140.392 80.1205 140.317 79.7447 140.171 79.3944C140.025 79.044 139.811 78.726 139.541 78.4588ZM94.375 54.625C94.375 51.2133 95.3867 47.8782 97.2822 45.0414C99.1776 42.2047 101.872 39.9937 105.024 38.6881C108.176 37.3825 111.644 37.0409 114.99 37.7065C118.336 38.3721 121.41 40.015 123.823 42.4274C126.235 44.8399 127.878 47.9135 128.544 51.2597C129.209 54.6059 128.868 58.0743 127.562 61.2263C126.256 64.3783 124.045 67.0724 121.209 68.9679C118.372 70.8633 115.037 71.875 111.625 71.875C107.05 71.875 102.662 70.0576 99.4274 66.8226C96.1924 63.5876 94.375 59.2 94.375 54.625Z" fill="#C1C1C1"/>
<g clip-path="url(#clip1_7348_7905)">
<path d="M111.501 41.583C108.946 41.583 106.449 42.3406 104.325 43.7599C102.2 45.1792 100.545 47.1965 99.5672 49.5567C98.5896 51.9169 98.3338 54.514 98.8322 57.0196C99.3306 59.5252 100.561 61.8267 102.367 63.6331C104.174 65.4396 106.475 66.6698 108.981 67.1682C111.486 67.6665 114.083 67.4108 116.444 66.4331C118.804 65.4555 120.821 63.7999 122.24 61.6758C123.66 59.5517 124.417 57.0544 124.417 54.4997C124.417 52.8034 124.083 51.1238 123.434 49.5567C122.785 47.9896 121.834 46.5656 120.634 45.3662C119.435 44.1668 118.011 43.2154 116.444 42.5662C114.877 41.9171 113.197 41.583 111.501 41.583ZM111.501 64.833C109.457 64.833 107.459 64.227 105.76 63.0915C104.06 61.9561 102.736 60.3422 101.954 58.4541C101.172 56.5659 100.967 54.4882 101.366 52.4837C101.765 50.4793 102.749 48.638 104.194 47.1929C105.639 45.7478 107.48 44.7636 109.485 44.3649C111.489 43.9662 113.567 44.1708 115.455 44.9529C117.343 45.735 118.957 47.0595 120.093 48.7588C121.228 50.4581 121.834 52.4559 121.834 54.4997C121.834 57.2402 120.745 59.8686 118.807 61.8064C116.87 63.7443 114.241 64.833 111.501 64.833Z" fill="#C1C1C1"/>
<path d="M115 50.9993C114.88 50.8782 114.737 50.7821 114.58 50.7165C114.422 50.6509 114.254 50.6172 114.083 50.6172C113.912 50.6172 113.744 50.6509 113.586 50.7165C113.429 50.7821 113.286 50.8782 113.166 50.9993L111.5 52.6784L109.833 50.9993C109.59 50.756 109.26 50.6194 108.916 50.6194C108.572 50.6194 108.242 50.756 107.999 50.9993C107.756 51.2425 107.619 51.5724 107.619 51.9163C107.619 52.2603 107.756 52.5902 107.999 52.8334L109.678 54.4997L107.999 56.1659C107.878 56.286 107.782 56.4289 107.717 56.5863C107.651 56.7437 107.617 56.9125 107.617 57.083C107.617 57.2535 107.651 57.4224 107.717 57.5798C107.782 57.7372 107.878 57.88 107.999 58.0001C108.119 58.1212 108.262 58.2173 108.42 58.2828C108.577 58.3484 108.746 58.3822 108.916 58.3822C109.087 58.3822 109.256 58.3484 109.413 58.2828C109.57 58.2173 109.713 58.1212 109.833 58.0001L111.5 56.3209L113.166 58.0001C113.286 58.1212 113.429 58.2173 113.586 58.2828C113.744 58.3484 113.912 58.3822 114.083 58.3822C114.254 58.3822 114.422 58.3484 114.58 58.2828C114.737 58.2173 114.88 58.1212 115 58.0001C115.121 57.88 115.217 57.7372 115.283 57.5798C115.348 57.4224 115.382 57.2535 115.382 57.083C115.382 56.9125 115.348 56.7437 115.283 56.5863C115.217 56.4289 115.121 56.286 115 56.1659L113.321 54.4997L115 52.8334C115.121 52.7133 115.217 52.5705 115.283 52.4131C115.348 52.2557 115.382 52.0869 115.382 51.9163C115.382 51.7458 115.348 51.577 115.283 51.4196C115.217 51.2622 115.121 51.1193 115 50.9993Z" fill="#C1C1C1"/>
</g>
</g>
<defs>
<clipPath id="clip0_7348_7905">
<rect width="229" height="119" fill="white"/>
</clipPath>
<clipPath id="clip1_7348_7905">
<rect width="31" height="31" fill="white" transform="translate(96 39)"/>
</clipPath>
</defs>
</svg>
