<svg width="33" height="39" viewBox="0 0 33 39" fill="none" xmlns="http://www.w3.org/2000/svg">
<g id="Frame" clip-path="url(#clip0_747_13282)">
<path id="Vector" d="M27.0719 14.5981C27.1675 14.5727 27.2077 14.5625 27.253 14.5472C28.0981 14.216 28.9282 13.844 29.6778 13.3243C30.04 13.0746 30.3871 12.7944 30.699 12.4887C30.8902 12.3001 31.0411 12.0505 31.1568 11.8059C31.3178 11.4594 31.2222 11.1842 30.9153 10.955C30.5732 10.6951 30.1758 10.5881 29.7633 10.5575C29.4816 10.5371 29.1948 10.5473 28.9131 10.5575C28.6767 10.5677 28.4553 10.532 28.2642 10.3843C28.0328 10.2059 27.9824 9.98174 28.1233 9.72697C28.2843 9.43144 28.5509 9.29386 28.8678 9.27858C29.225 9.2582 29.5822 9.2531 29.9343 9.28367C30.5129 9.33463 31.0662 9.50787 31.5542 9.83907C31.9114 10.0836 32.1981 10.3894 32.3591 10.797C32.5654 11.3269 32.5201 11.8517 32.3038 12.3664C32.1327 12.774 31.8762 13.1205 31.5693 13.4313C31.1719 13.844 30.7141 14.1854 30.2311 14.4911C29.3206 15.072 28.3447 15.5051 27.3385 15.8822C27.248 15.9179 27.1524 15.9535 27.0719 15.9892C26.9562 16.9114 27.082 23.7087 27.2278 24.1775C27.2681 24.1673 27.3134 24.1673 27.3536 24.152C28.1786 23.8463 28.9886 23.4998 29.718 22.9953C30.035 22.7762 30.3318 22.5266 30.6034 22.2565C30.7745 22.0883 30.9203 21.8692 31.026 21.6501C31.2574 21.1763 31.1518 20.7483 30.7594 20.4018C30.4978 20.1725 30.1909 20.0349 29.8589 19.9483C29.4464 19.8413 29.0288 19.8158 28.6062 19.8566C28.4905 19.8668 28.3698 19.877 28.2541 19.8617C27.9221 19.8107 27.7007 19.561 27.6907 19.2451C27.6856 18.9292 27.8969 18.6592 28.234 18.6184C28.5861 18.5776 28.9483 18.5522 29.3005 18.5674C30.035 18.6031 30.7241 18.8069 31.3379 19.2349C31.9114 19.6375 32.2987 20.1674 32.3943 20.8858C32.4597 21.3597 32.3641 21.8081 32.1629 22.2361C31.9416 22.7049 31.6196 23.0921 31.2423 23.4335C30.7493 23.8819 30.1959 24.2437 29.6124 24.5545C28.9483 24.9112 28.2541 25.1965 27.5448 25.4462C27.4593 25.4768 27.3737 25.5124 27.2681 25.5481C27.2681 25.6602 27.2631 25.7672 27.2681 25.8742C27.3486 27.25 27.4341 28.6308 27.5045 30.0066C27.5649 31.1072 27.6353 32.2078 27.5347 33.3084C27.5045 33.6192 27.4643 33.9351 27.4039 34.2408C27.2027 35.2497 26.6845 36.0497 25.8746 36.6611C25.2005 37.1707 24.4409 37.5121 23.646 37.777C22.5292 38.149 21.3822 38.3732 20.2201 38.5413C18.0419 38.8521 15.8535 39.0152 13.6551 38.9897C11.6127 38.9693 9.58031 38.791 7.58314 38.3273C6.54682 38.0878 5.54069 37.7566 4.58487 37.2726C3.61898 36.7834 2.74868 36.1567 2.03432 35.3312C1.28476 34.465 0.766598 33.4765 0.560341 32.3351C0.454697 31.7543 0.449666 31.1734 0.570402 30.5976C0.852119 29.2677 1.77273 28.3811 3.10082 28.1569C3.8856 28.0296 4.67039 28.0754 5.45014 28.1875C7.397 28.4576 9.27344 29.0079 11.1348 29.6244C12.0453 29.925 12.9609 30.2206 13.8765 30.511C14.0777 30.5772 14.284 30.6231 14.4902 30.6639C14.8072 30.725 14.8222 30.7097 14.8876 30.3836C14.9329 30.1747 14.9732 29.9658 14.9933 29.7518C15.0486 28.9875 15.0989 28.2181 15.1442 27.4538C15.1492 27.3926 15.1341 27.3264 15.1241 27.2398C15.0084 27.2347 14.9027 27.2245 14.7971 27.2194C13.7155 27.1582 12.649 27.036 11.5976 26.771C11.0845 26.6385 10.5713 26.4857 10.1035 26.2309C9.79159 26.0576 9.47969 25.8742 9.21307 25.6398C8.38804 24.9061 8.14657 23.9838 8.48362 22.924C8.75528 22.0782 9.29859 21.4158 9.97773 20.8757C10.5764 20.4018 11.2455 20.0655 12.0001 19.9228C12.1812 19.8871 12.3824 19.8973 12.5685 19.9177C12.6842 19.9279 12.7999 19.9992 12.815 20.1419C12.8301 20.2795 12.7546 20.3661 12.644 20.4374C12.5031 20.5241 12.3673 20.6209 12.2315 20.7075C11.5674 21.1253 10.9738 21.6298 10.4204 22.1903C10.1588 22.4552 9.93748 22.7457 9.7765 23.087C9.44951 23.7902 9.59037 24.3609 10.2091 24.8195C10.5311 25.0539 10.8933 25.2118 11.2656 25.3392C12.1912 25.6551 13.147 25.7978 14.1129 25.8895C14.4399 25.9201 14.7669 25.9354 15.0838 25.9557C15.28 25.1456 14.5204 18.9037 14.0827 17.691C13.9872 17.6809 13.8815 17.6707 13.7708 17.6605C12.5635 17.5586 11.3712 17.3802 10.2192 16.9981C9.68595 16.8197 9.17785 16.5955 8.70497 16.2898C8.3327 16.0452 8.00068 15.7599 7.74412 15.3879C7.23602 14.6491 7.16559 13.8644 7.5278 13.0441C7.70387 12.6415 7.97553 12.3052 8.30252 12.0148C8.74522 11.6174 9.24828 11.3167 9.78656 11.0823C10.1337 10.9295 10.4959 10.9091 10.8631 10.9448C11.0442 10.9601 11.17 11.0569 11.2354 11.2301C11.3008 11.4084 11.2404 11.5613 11.0996 11.6734C10.9637 11.7804 10.8229 11.8874 10.677 11.9791C10.2645 12.239 9.84693 12.4836 9.43945 12.7485C9.17785 12.9218 8.95147 13.1358 8.78043 13.4058C8.47356 13.8848 8.50878 14.3536 8.88608 14.7816C9.13761 15.072 9.45454 15.2707 9.79159 15.444C10.3601 15.7293 10.9587 15.928 11.5825 16.0452C12.2717 16.1777 12.971 16.2643 13.6702 16.3713C13.7054 16.3764 13.7407 16.3713 13.8161 16.3713C13.801 16.2643 13.796 16.1675 13.7708 16.0758C13.3885 14.481 13.0112 12.8912 12.6239 11.2963C12.2767 9.87474 11.9196 8.45822 11.6882 7.01114C11.5724 6.28759 11.4769 5.56405 11.502 4.82522C11.5121 4.49402 11.5473 4.15773 11.6026 3.83162C11.7737 2.83802 12.3321 2.14505 13.2225 1.69666C14.2035 1.19731 15.2499 0.901782 16.3164 0.67249C17.5237 0.412626 18.7361 0.178239 19.9686 0.0712361C21.0955 -0.025576 22.2173 -0.0459575 23.3241 0.208811C23.5555 0.259765 23.7818 0.3311 24.0082 0.412626C25.0546 0.799875 25.7891 1.51832 26.2117 2.56287C26.5085 3.29661 26.6544 4.07111 26.76 4.8507C26.931 6.15511 27.0065 7.46972 27.0266 8.78433C27.0518 10.5983 27.0467 12.4173 27.0518 14.2313C27.0719 14.3383 27.0719 14.4504 27.0719 14.5981ZM16.4522 27.2754C16.4472 27.4283 16.4421 27.5404 16.4321 27.6474C16.3868 28.3404 16.3667 29.0333 16.2912 29.7263C16.2409 30.1951 16.1554 30.6639 16.0145 31.1123C15.8233 31.739 15.3656 32.0243 14.7166 31.9938C14.6512 31.9887 14.5858 31.9887 14.5254 31.9734C14.133 31.8817 13.7356 31.8154 13.3533 31.6931C12.2113 31.3365 11.0744 30.9492 9.93245 30.5874C8.27234 30.0575 6.59713 29.6091 4.86155 29.4206C4.25787 29.3544 3.65419 29.334 3.06561 29.5021C2.5072 29.6601 2.12487 30.0168 1.92365 30.5671C1.77273 30.9747 1.73751 31.3925 1.78782 31.8256C1.8985 32.7733 2.28586 33.5988 2.87947 34.3325C3.48818 35.0968 4.2629 35.6675 5.12818 36.1108C6.04879 36.5847 7.02473 36.8904 8.02583 37.1197C9.9073 37.5426 11.8189 37.7006 13.7457 37.7159C15.9894 37.7312 18.223 37.563 20.4415 37.2165C21.4527 37.0586 22.4588 36.8497 23.4297 36.5083C24.0183 36.2994 24.5817 36.0395 25.0948 35.6675C25.6834 35.2344 26.0557 34.6688 26.1966 33.9402C26.3475 33.1351 26.3676 32.3199 26.3274 31.5046C26.2418 29.7365 26.1362 27.9735 26.0356 26.2054C26.0306 26.1239 26.0155 26.0424 26.0054 25.9354C24.4409 26.3634 22.8713 26.6742 21.2866 26.9035C19.6919 27.1277 18.0871 27.2449 16.4522 27.2754ZM15.1845 16.4529C18.8015 16.5038 22.333 16.0911 25.779 15.0567C25.7891 14.9701 25.7941 14.9141 25.7941 14.858C25.8243 12.1167 25.8545 9.37539 25.6784 6.63917C25.6231 5.75258 25.5325 4.86598 25.3464 3.99467C25.3212 3.88258 25.286 3.77048 25.2508 3.638C24.4207 4.12206 23.5504 4.36154 22.665 4.55517C20.2151 5.09018 17.74 5.22266 15.2448 5.02904C14.4953 4.96789 13.7558 4.85579 13.0313 4.64688C12.9659 4.6265 12.8955 4.62141 12.81 4.60612C12.81 4.93732 12.7899 5.24304 12.815 5.54367C12.9056 6.73599 13.142 7.90792 13.4187 9.06967C13.8664 10.9601 14.3393 12.8453 14.7921 14.7306C14.9279 15.2911 15.0486 15.8516 15.1845 16.4529ZM16.4371 25.9863C19.6869 25.9455 22.8361 25.487 25.9249 24.6208C25.9249 24.5851 25.7438 16.4427 25.7438 16.4121C22.3833 17.3649 18.9574 17.7624 15.4511 17.7471C15.9793 20.4884 16.3667 23.2042 16.4371 25.9863ZM13.1823 3.35266C13.3684 3.40361 13.5143 3.44947 13.6652 3.48514C14.3695 3.64819 15.0889 3.73991 15.8083 3.78067C18.1022 3.91315 20.3761 3.77048 22.6198 3.24565C23.143 3.12337 23.651 2.93484 24.1591 2.7565C24.3553 2.69026 24.5364 2.58326 24.7075 2.43039C24.5666 2.21639 24.3956 2.06862 24.2095 1.93614C23.8976 1.71704 23.5504 1.57947 23.1832 1.48265C22.4588 1.29922 21.7193 1.26865 20.9798 1.28903C19.9636 1.3196 18.9625 1.48265 17.9563 1.62023C17.1867 1.72723 16.417 1.82404 15.6573 1.9871C14.943 2.13996 14.3142 2.45587 13.7105 2.84822C13.5243 2.9756 13.3432 3.11318 13.1823 3.35266Z" fill="black"/>
</g>
<defs>
<clipPath id="clip0_747_13282">
<rect width="32" height="39" fill="white" transform="translate(0.5)"/>
</clipPath>
</defs>
</svg>
