<svg width="229" height="165" viewBox="0 0 229 165" fill="none" xmlns="http://www.w3.org/2000/svg">
<path d="M16.69 158.108V162H15.43V158.094L12.084 152.34H13.512L16.074 157.03L18.608 152.34H20.036L16.69 158.108ZM24.1391 162.126C23.1124 162.126 22.3051 161.841 21.7171 161.272C21.1384 160.693 20.8491 159.858 20.8491 158.766V158.052C20.8491 156.96 21.1384 156.129 21.7171 155.56C22.3051 154.981 23.1124 154.692 24.1391 154.692C25.1564 154.692 25.9544 154.981 26.5331 155.56C27.1118 156.139 27.4011 156.969 27.4011 158.052V158.766C27.4011 159.858 27.1118 160.693 26.5331 161.272C25.9544 161.841 25.1564 162.126 24.1391 162.126ZM24.1251 161.076C25.5158 161.076 26.2111 160.297 26.2111 158.738V158.08C26.2111 156.531 25.5158 155.756 24.1251 155.756C22.7344 155.756 22.0391 156.531 22.0391 158.08V158.738C22.0391 160.297 22.7344 161.076 24.1251 161.076ZM32.1228 162.098C31.1335 162.098 30.3775 161.846 29.8548 161.342C29.3321 160.829 29.0708 160.101 29.0708 159.158V154.832H30.2608V159.032C30.2608 160.367 30.8861 161.034 32.1368 161.034C32.7808 161.034 33.2521 160.871 33.5508 160.544C33.8588 160.208 34.0128 159.704 34.0128 159.032V154.832H35.2028V159.158C35.2028 160.101 34.9368 160.829 34.4048 161.342C33.8821 161.846 33.1215 162.098 32.1228 162.098ZM40.1177 152.34H41.3077V155.798C41.5597 155.453 41.877 155.191 42.2597 155.014C42.6517 154.837 43.0904 154.748 43.5757 154.748C44.425 154.748 45.083 154.991 45.5497 155.476C46.0164 155.961 46.2497 156.633 46.2497 157.492V162H45.0597V157.646C45.0597 157.039 44.9057 156.582 44.5977 156.274C44.299 155.966 43.8604 155.812 43.2817 155.812C42.6844 155.812 42.2037 155.989 41.8397 156.344C41.485 156.699 41.3077 157.184 41.3077 157.8V162H40.1177V152.34ZM50.8454 154.734C51.8441 154.734 52.6094 154.958 53.1414 155.406C53.6734 155.845 53.9394 156.484 53.9394 157.324V162H52.7774V161.188C52.2827 161.785 51.5034 162.084 50.4394 162.084C49.5714 162.084 48.9087 161.902 48.4514 161.538C48.0034 161.165 47.7794 160.628 47.7794 159.928C47.7794 159.256 48.0127 158.743 48.4794 158.388C48.9461 158.024 49.6274 157.842 50.5234 157.842H52.7494V157.352C52.7494 156.269 52.1194 155.728 50.8594 155.728C50.3087 155.728 49.8887 155.831 49.5994 156.036C49.3194 156.241 49.1794 156.531 49.1794 156.904V156.946H48.0174V156.904C48.0174 156.232 48.2694 155.705 48.7734 155.322C49.2774 154.93 49.9681 154.734 50.8454 154.734ZM50.6774 161.118C51.3867 161.118 51.9094 160.969 52.2454 160.67C52.5814 160.371 52.7494 159.914 52.7494 159.298V158.738H50.7194C50.1127 158.738 49.6647 158.836 49.3754 159.032C49.0954 159.219 48.9554 159.513 48.9554 159.914C48.9554 160.325 49.0954 160.628 49.3754 160.824C49.6554 161.02 50.0894 161.118 50.6774 161.118ZM54.9886 154.832H56.2626L58.4046 160.516L60.5326 154.832H61.8066L58.9786 162H57.8166L54.9886 154.832ZM63.8203 158.71V158.766C63.8203 160.315 64.5437 161.09 65.9903 161.09C66.541 161.09 66.9657 160.964 67.2643 160.712C67.5723 160.451 67.731 160.124 67.7403 159.732V159.69H68.9163V159.746C68.907 160.194 68.781 160.6 68.5383 160.964C68.305 161.319 67.9643 161.603 67.5163 161.818C67.0777 162.023 66.5597 162.126 65.9623 162.126C64.917 162.126 64.1003 161.837 63.5123 161.258C62.9243 160.67 62.6303 159.816 62.6303 158.696V158.122C62.6303 157.021 62.9103 156.176 63.4703 155.588C64.0303 154.991 64.8097 154.692 65.8083 154.692C66.7883 154.692 67.5583 154.967 68.1183 155.518C68.6783 156.059 68.9583 156.843 68.9583 157.87V158.71H63.8203ZM65.8083 155.742C65.2017 155.742 64.7257 155.915 64.3803 156.26C64.0443 156.596 63.8577 157.114 63.8203 157.814H67.7683V157.688C67.7683 157.035 67.5957 156.549 67.2503 156.232C66.9143 155.905 66.4337 155.742 65.8083 155.742ZM70.6333 154.832H71.8093V155.798C72.0613 155.453 72.3833 155.191 72.7753 155.014C73.1673 154.837 73.606 154.748 74.0913 154.748C74.9406 154.748 75.5986 154.991 76.0653 155.476C76.532 155.961 76.7653 156.633 76.7653 157.492V162H75.5753V157.646C75.5753 157.039 75.4213 156.582 75.1133 156.274C74.8146 155.966 74.376 155.812 73.7973 155.812C73.2 155.812 72.7193 155.989 72.3553 156.344C72.0006 156.699 71.8233 157.184 71.8233 157.8V162H70.6333V154.832ZM78.379 152.34H79.513V155.854H78.379V152.34ZM83.0656 155.728V159.872C83.0656 160.264 83.1543 160.544 83.3316 160.712C83.509 160.88 83.803 160.964 84.2136 160.964H84.8156V162H84.0176C82.5896 162 81.8756 161.314 81.8756 159.942V155.728H80.6156V154.832H81.8756V153.278L83.0656 152.788V154.832H84.9696V155.728H83.0656ZM89.5142 154.832H90.6902V155.798C90.9422 155.453 91.2642 155.191 91.6562 155.014C92.0482 154.837 92.4822 154.748 92.9582 154.748C93.4435 154.748 93.8775 154.851 94.2602 155.056C94.6428 155.252 94.9462 155.532 95.1702 155.896C95.4688 155.504 95.8188 155.215 96.2202 155.028C96.6308 154.841 97.1162 154.748 97.6762 154.748C98.5442 154.748 99.2115 154.991 99.6782 155.476C100.154 155.952 100.392 156.624 100.392 157.492V162H99.2022V157.646C99.2022 157.039 99.0528 156.582 98.7542 156.274C98.4555 155.966 98.0215 155.812 97.4522 155.812C96.8455 155.812 96.3788 155.975 96.0522 156.302C95.7255 156.619 95.5622 157.077 95.5622 157.674V162H94.3582V157.632C94.3582 157.035 94.2088 156.582 93.9102 156.274C93.6208 155.966 93.2102 155.812 92.6782 155.812C92.0808 155.812 91.6002 155.989 91.2362 156.344C90.8815 156.699 90.7042 157.184 90.7042 157.8V162H89.5142V154.832ZM105 154.734C105.998 154.734 106.764 154.958 107.296 155.406C107.828 155.845 108.094 156.484 108.094 157.324V162H106.932V161.188C106.437 161.785 105.658 162.084 104.594 162.084C103.726 162.084 103.063 161.902 102.606 161.538C102.158 161.165 101.934 160.628 101.934 159.928C101.934 159.256 102.167 158.743 102.634 158.388C103.1 158.024 103.782 157.842 104.678 157.842H106.904V157.352C106.904 156.269 106.274 155.728 105.014 155.728C104.463 155.728 104.043 155.831 103.754 156.036C103.474 156.241 103.334 156.531 103.334 156.904V156.946H102.172V156.904C102.172 156.232 102.424 155.705 102.928 155.322C103.432 154.93 104.122 154.734 105 154.734ZM104.832 161.118C105.541 161.118 106.064 160.969 106.4 160.67C106.736 160.371 106.904 159.914 106.904 159.298V158.738H104.874C104.267 158.738 103.819 158.836 103.53 159.032C103.25 159.219 103.11 159.513 103.11 159.914C103.11 160.325 103.25 160.628 103.53 160.824C103.81 161.02 104.244 161.118 104.832 161.118ZM112.725 162.126C111.811 162.126 111.087 161.841 110.555 161.272C110.023 160.693 109.757 159.867 109.757 158.794V158.024C109.757 156.96 110.023 156.139 110.555 155.56C111.097 154.981 111.811 154.692 112.697 154.692C113.201 154.692 113.654 154.79 114.055 154.986C114.466 155.182 114.788 155.448 115.021 155.784V152.34H116.197V162H115.021V161.062C114.788 161.407 114.475 161.673 114.083 161.86C113.691 162.037 113.239 162.126 112.725 162.126ZM112.949 161.076C113.603 161.076 114.111 160.88 114.475 160.488C114.839 160.096 115.021 159.564 115.021 158.892V157.954C115.021 157.273 114.835 156.736 114.461 156.344C114.097 155.952 113.589 155.756 112.935 155.756C112.301 155.756 111.811 155.952 111.465 156.344C111.12 156.727 110.947 157.31 110.947 158.094V158.738C110.947 159.522 111.12 160.11 111.465 160.502C111.82 160.885 112.315 161.076 112.949 161.076ZM119.068 158.71V158.766C119.068 160.315 119.792 161.09 121.238 161.09C121.789 161.09 122.214 160.964 122.512 160.712C122.82 160.451 122.979 160.124 122.988 159.732V159.69H124.164V159.746C124.155 160.194 124.029 160.6 123.786 160.964C123.553 161.319 123.212 161.603 122.764 161.818C122.326 162.023 121.808 162.126 121.21 162.126C120.165 162.126 119.348 161.837 118.76 161.258C118.172 160.67 117.878 159.816 117.878 158.696V158.122C117.878 157.021 118.158 156.176 118.718 155.588C119.278 154.991 120.058 154.692 121.056 154.692C122.036 154.692 122.806 154.967 123.366 155.518C123.926 156.059 124.206 156.843 124.206 157.87V158.71H119.068ZM121.056 155.742C120.45 155.742 119.974 155.915 119.628 156.26C119.292 156.596 119.106 157.114 119.068 157.814H123.016V157.688C123.016 157.035 122.844 156.549 122.498 156.232C122.162 155.905 121.682 155.742 121.056 155.742ZM131.633 154.734C132.631 154.734 133.397 154.958 133.929 155.406C134.461 155.845 134.727 156.484 134.727 157.324V162H133.565V161.188C133.07 161.785 132.291 162.084 131.227 162.084C130.359 162.084 129.696 161.902 129.239 161.538C128.791 161.165 128.567 160.628 128.567 159.928C128.567 159.256 128.8 158.743 129.267 158.388C129.733 158.024 130.415 157.842 131.311 157.842H133.537V157.352C133.537 156.269 132.907 155.728 131.647 155.728C131.096 155.728 130.676 155.831 130.387 156.036C130.107 156.241 129.967 156.531 129.967 156.904V156.946H128.805V156.904C128.805 156.232 129.057 155.705 129.561 155.322C130.065 154.93 130.755 154.734 131.633 154.734ZM131.465 161.118C132.174 161.118 132.697 160.969 133.033 160.67C133.369 160.371 133.537 159.914 133.537 159.298V158.738H131.507C130.9 158.738 130.452 158.836 130.163 159.032C129.883 159.219 129.743 159.513 129.743 159.914C129.743 160.325 129.883 160.628 130.163 160.824C130.443 161.02 130.877 161.118 131.465 161.118ZM136.6 154.832H137.776V155.798C138.028 155.453 138.35 155.191 138.742 155.014C139.134 154.837 139.573 154.748 140.058 154.748C140.907 154.748 141.565 154.991 142.032 155.476C142.499 155.961 142.732 156.633 142.732 157.492V162H141.542V157.646C141.542 157.039 141.388 156.582 141.08 156.274C140.781 155.966 140.343 155.812 139.764 155.812C139.167 155.812 138.686 155.989 138.322 156.344C137.967 156.699 137.79 157.184 137.79 157.8V162H136.6V154.832ZM150.605 154.832L147.511 162.714C147.315 163.218 147.031 163.582 146.657 163.806C146.284 164.03 145.794 164.142 145.187 164.142H144.683V163.064H145.187C145.607 163.064 145.92 163.003 146.125 162.882C146.331 162.761 146.489 162.546 146.601 162.238L146.685 162L143.787 154.832H145.061L147.259 160.474L149.359 154.832H150.605ZM154.756 154.832H155.932V155.798C156.175 155.453 156.492 155.187 156.884 155C157.276 154.804 157.72 154.706 158.214 154.706C159.12 154.706 159.843 154.995 160.384 155.574C160.935 156.143 161.21 156.96 161.21 158.024V158.78C161.21 159.853 160.935 160.679 160.384 161.258C159.843 161.837 159.12 162.126 158.214 162.126C157.188 162.126 156.432 161.776 155.946 161.076V164.268H154.756V154.832ZM158.046 161.076C158.672 161.076 159.157 160.88 159.502 160.488C159.848 160.096 160.02 159.508 160.02 158.724V158.094C160.02 157.31 159.848 156.727 159.502 156.344C159.157 155.952 158.662 155.756 158.018 155.756C157.374 155.756 156.866 155.957 156.492 156.358C156.128 156.75 155.946 157.282 155.946 157.954V158.892C155.946 159.555 156.133 160.087 156.506 160.488C156.88 160.88 157.393 161.076 158.046 161.076ZM165.929 162.098C164.94 162.098 164.184 161.846 163.661 161.342C163.139 160.829 162.877 160.101 162.877 159.158V154.832H164.067V159.032C164.067 160.367 164.693 161.034 165.943 161.034C166.587 161.034 167.059 160.871 167.357 160.544C167.665 160.208 167.819 159.704 167.819 159.032V154.832H169.009V159.158C169.009 160.101 168.743 160.829 168.211 161.342C167.689 161.846 166.928 162.098 165.929 162.098ZM170.889 154.832H172.065V155.84C172.308 155.467 172.625 155.191 173.017 155.014C173.409 154.827 173.853 154.734 174.347 154.734C174.553 154.734 174.744 154.748 174.921 154.776V155.91C174.669 155.835 174.408 155.798 174.137 155.798C173.521 155.798 173.022 155.985 172.639 156.358C172.266 156.731 172.079 157.235 172.079 157.87V162H170.889V154.832ZM179.178 162.126C178.142 162.126 177.335 161.841 176.756 161.272C176.177 160.693 175.888 159.858 175.888 158.766V158.052C175.888 156.96 176.177 156.129 176.756 155.56C177.335 154.981 178.137 154.692 179.164 154.692C180.107 154.692 180.844 154.925 181.376 155.392C181.908 155.849 182.174 156.484 182.174 157.296V157.366H181.012V157.296C181.012 156.811 180.853 156.433 180.536 156.162C180.219 155.891 179.766 155.756 179.178 155.756C177.778 155.756 177.078 156.531 177.078 158.08V158.738C177.078 160.297 177.778 161.076 179.178 161.076C179.766 161.076 180.219 160.941 180.536 160.67C180.853 160.399 181.012 160.026 181.012 159.55V159.494H182.174V159.55C182.174 160.343 181.908 160.973 181.376 161.44C180.853 161.897 180.121 162.126 179.178 162.126ZM183.836 152.34H185.026V155.798C185.278 155.453 185.596 155.191 185.978 155.014C186.37 154.837 186.809 154.748 187.294 154.748C188.144 154.748 188.802 154.991 189.268 155.476C189.735 155.961 189.968 156.633 189.968 157.492V162H188.778V157.646C188.778 157.039 188.624 156.582 188.316 156.274C188.018 155.966 187.579 155.812 187 155.812C186.403 155.812 185.922 155.989 185.558 156.344C185.204 156.699 185.026 157.184 185.026 157.8V162H183.836V152.34ZM194.564 154.734C195.563 154.734 196.328 154.958 196.86 155.406C197.392 155.845 197.658 156.484 197.658 157.324V162H196.496V161.188C196.001 161.785 195.222 162.084 194.158 162.084C193.29 162.084 192.627 161.902 192.17 161.538C191.722 161.165 191.498 160.628 191.498 159.928C191.498 159.256 191.731 158.743 192.198 158.388C192.665 158.024 193.346 157.842 194.242 157.842H196.468V157.352C196.468 156.269 195.838 155.728 194.578 155.728C194.027 155.728 193.607 155.831 193.318 156.036C193.038 156.241 192.898 156.531 192.898 156.904V156.946H191.736V156.904C191.736 156.232 191.988 155.705 192.492 155.322C192.996 154.93 193.687 154.734 194.564 154.734ZM194.396 161.118C195.105 161.118 195.628 160.969 195.964 160.67C196.3 160.371 196.468 159.914 196.468 159.298V158.738H194.438C193.831 158.738 193.383 158.836 193.094 159.032C192.814 159.219 192.674 159.513 192.674 159.914C192.674 160.325 192.814 160.628 193.094 160.824C193.374 161.02 193.808 161.118 194.396 161.118ZM202.192 162.084C201.24 162.084 200.498 161.888 199.966 161.496C199.434 161.095 199.168 160.549 199.168 159.858V159.816H200.302V159.844C200.302 160.227 200.461 160.53 200.778 160.754C201.095 160.978 201.585 161.09 202.248 161.09C202.845 161.09 203.312 160.992 203.648 160.796C203.993 160.6 204.166 160.315 204.166 159.942C204.166 159.634 204.04 159.401 203.788 159.242C203.545 159.083 203.153 158.976 202.612 158.92L201.59 158.794C200.797 158.701 200.213 158.5 199.84 158.192C199.467 157.875 199.28 157.431 199.28 156.862C199.28 156.199 199.541 155.681 200.064 155.308C200.587 154.925 201.296 154.734 202.192 154.734C203.125 154.734 203.858 154.925 204.39 155.308C204.922 155.691 205.188 156.209 205.188 156.862V156.918H204.054V156.876C204.054 156.493 203.891 156.204 203.564 156.008C203.247 155.803 202.794 155.7 202.206 155.7C201.609 155.7 201.161 155.793 200.862 155.98C200.563 156.167 200.414 156.433 200.414 156.778C200.414 157.077 200.521 157.305 200.736 157.464C200.951 157.613 201.319 157.716 201.842 157.772L202.934 157.912C203.737 158.005 204.329 158.211 204.712 158.528C205.104 158.845 205.3 159.293 205.3 159.872C205.3 160.572 205.02 161.118 204.46 161.51C203.909 161.893 203.153 162.084 202.192 162.084ZM207.731 158.71V158.766C207.731 160.315 208.454 161.09 209.901 161.09C210.451 161.09 210.876 160.964 211.175 160.712C211.483 160.451 211.641 160.124 211.651 159.732V159.69H212.827V159.746C212.817 160.194 212.691 160.6 212.449 160.964C212.215 161.319 211.875 161.603 211.427 161.818C210.988 162.023 210.47 162.126 209.873 162.126C208.827 162.126 208.011 161.837 207.423 161.258C206.835 160.67 206.541 159.816 206.541 158.696V158.122C206.541 157.021 206.821 156.176 207.381 155.588C207.941 154.991 208.72 154.692 209.719 154.692C210.699 154.692 211.469 154.967 212.029 155.518C212.589 156.059 212.869 156.843 212.869 157.87V158.71H207.731ZM209.719 155.742C209.112 155.742 208.636 155.915 208.291 156.26C207.955 156.596 207.768 157.114 207.731 157.814H211.679V157.688C211.679 157.035 211.506 156.549 211.161 156.232C210.825 155.905 210.344 155.742 209.719 155.742ZM217.217 162.084C216.265 162.084 215.523 161.888 214.991 161.496C214.459 161.095 214.193 160.549 214.193 159.858V159.816H215.327V159.844C215.327 160.227 215.486 160.53 215.803 160.754C216.121 160.978 216.611 161.09 217.273 161.09C217.871 161.09 218.337 160.992 218.673 160.796C219.019 160.6 219.191 160.315 219.191 159.942C219.191 159.634 219.065 159.401 218.813 159.242C218.571 159.083 218.179 158.976 217.637 158.92L216.615 158.794C215.822 158.701 215.239 158.5 214.865 158.192C214.492 157.875 214.305 157.431 214.305 156.862C214.305 156.199 214.567 155.681 215.089 155.308C215.612 154.925 216.321 154.734 217.217 154.734C218.151 154.734 218.883 154.925 219.415 155.308C219.947 155.691 220.213 156.209 220.213 156.862V156.918H219.079V156.876C219.079 156.493 218.916 156.204 218.589 156.008C218.272 155.803 217.819 155.7 217.231 155.7C216.634 155.7 216.186 155.793 215.887 155.98C215.589 156.167 215.439 156.433 215.439 156.778C215.439 157.077 215.547 157.305 215.761 157.464C215.976 157.613 216.345 157.716 216.867 157.772L217.959 157.912C218.762 158.005 219.355 158.211 219.737 158.528C220.129 158.845 220.325 159.293 220.325 159.872C220.325 160.572 220.045 161.118 219.485 161.51C218.935 161.893 218.179 162.084 217.217 162.084ZM221.51 160.502H222.938V162H221.51V160.502Z" fill="#C1C1C1"/>
<g clip-path="url(#clip0_7348_7969)">
<circle cx="161.23" cy="104.329" r="14.6712" fill="#EFEFEF"/>
<circle cx="56.9017" cy="32.6019" r="14.6712" fill="#EFEFEF"/>
<circle cx="32.7808" cy="48.9039" r="9.78082" fill="#EFEFEF"/>
<circle cx="175.138" cy="17.9312" r="9.78082" fill="#EFEFEF"/>
<circle cx="64.568" cy="103.513" r="7.33562" fill="#EFEFEF"/>
<circle cx="114.772" cy="57.8699" r="57.8699" fill="#EFEFEF"/>
<path d="M129.262 39.4625V34.2312C129.262 31.3462 126.907 29 124.011 29H89.877C85.5342 29 82 32.5206 82 36.8468V68.2342C82 73.9912 86.7105 76.081 89.877 76.081H129.262C132.158 76.081 134.513 73.7348 134.513 70.8498V44.6937C134.513 41.8087 132.158 39.4625 129.262 39.4625ZM89.877 34.2312H124.011V39.4625H89.877C89.201 39.4323 88.5626 39.1436 88.0949 38.6564C87.6272 38.1691 87.3662 37.521 87.3662 36.8468C87.3662 36.1727 87.6272 35.5245 88.0949 35.0373C88.5626 34.5501 89.201 34.2614 89.877 34.2312ZM129.262 70.8498H89.9085C88.6955 70.8184 87.2513 70.3398 87.2513 68.2342V44.2098C88.0758 44.5054 88.9502 44.6937 89.877 44.6937H129.262V70.8498Z" fill="#C1C1C1"/>
<circle cx="129.5" cy="68.5" r="15" fill="#EFEFEF" stroke="#C1C1C1" stroke-width="5"/>
<path d="M135.417 62.5833C135.214 62.3787 134.972 62.2163 134.706 62.1054C134.44 61.9946 134.155 61.9375 133.867 61.9375C133.578 61.9375 133.293 61.9946 133.027 62.1054C132.761 62.2163 132.519 62.3787 132.316 62.5833L129.5 65.4216L126.684 62.5833C126.272 62.1722 125.715 61.9412 125.133 61.9412C124.552 61.9412 123.994 62.1722 123.583 62.5833C123.172 62.9944 122.941 63.552 122.941 64.1334C122.941 64.7149 123.172 65.2724 123.583 65.6836L126.422 68.5L123.583 71.3164C123.379 71.5194 123.216 71.7609 123.105 72.0269C122.995 72.293 122.938 72.5783 122.938 72.8666C122.938 73.1548 122.995 73.4401 123.105 73.7062C123.216 73.9723 123.379 74.2137 123.583 74.4167C123.786 74.6213 124.028 74.7837 124.294 74.8946C124.56 75.0054 124.845 75.0625 125.133 75.0625C125.422 75.0625 125.707 75.0054 125.973 74.8946C126.239 74.7837 126.481 74.6213 126.684 74.4167L129.5 71.5784L132.316 74.4167C132.519 74.6213 132.761 74.7837 133.027 74.8946C133.293 75.0054 133.578 75.0625 133.867 75.0625C134.155 75.0625 134.44 75.0054 134.706 74.8946C134.972 74.7837 135.214 74.6213 135.417 74.4167C135.621 74.2137 135.784 73.9723 135.895 73.7062C136.005 73.4401 136.063 73.1548 136.063 72.8666C136.063 72.5783 136.005 72.293 135.895 72.0269C135.784 71.7609 135.621 71.5194 135.417 71.3164L132.578 68.5L135.417 65.6836C135.621 65.4806 135.784 65.2391 135.895 64.9731C136.005 64.707 136.063 64.4217 136.063 64.1334C136.063 63.8452 136.005 63.5599 135.895 63.2938C135.784 63.0277 135.621 62.7863 135.417 62.5833Z" fill="#C1C1C1"/>
</g>
<defs>
<clipPath id="clip0_7348_7969">
<rect width="229" height="119" fill="white"/>
</clipPath>
</defs>
</svg>
