<svg width="229" height="119" viewBox="0 0 229 119" fill="none" xmlns="http://www.w3.org/2000/svg">
<g clip-path="url(#clip0_7348_7971)">
<circle cx="161.23" cy="104.329" r="14.6712" fill="#EFEFEF"/>
<circle cx="56.9017" cy="32.6019" r="14.6712" fill="#EFEFEF"/>
<circle cx="32.7808" cy="48.9039" r="9.78082" fill="#EFEFEF"/>
<circle cx="175.138" cy="17.9312" r="9.78082" fill="#EFEFEF"/>
<circle cx="64.568" cy="103.513" r="7.33562" fill="#EFEFEF"/>
<circle cx="114.772" cy="57.8699" r="57.8699" fill="#EFEFEF"/>
<path d="M129.262 39.4625V34.2312C129.262 31.3462 126.907 29 124.011 29H89.877C85.5342 29 82 32.5206 82 36.8468V68.2342C82 73.9912 86.7105 76.081 89.877 76.081H129.262C132.158 76.081 134.513 73.7348 134.513 70.8498V44.6937C134.513 41.8087 132.158 39.4625 129.262 39.4625ZM89.877 34.2312H124.011V39.4625H89.877C89.201 39.4323 88.5626 39.1436 88.0949 38.6564C87.6272 38.1691 87.3662 37.521 87.3662 36.8468C87.3662 36.1727 87.6272 35.5245 88.0949 35.0373C88.5626 34.5501 89.201 34.2614 89.877 34.2312ZM129.262 70.8498H89.9085C88.6955 70.8184 87.2513 70.3398 87.2513 68.2342V44.2098C88.0758 44.5054 88.9502 44.6937 89.877 44.6937H129.262V70.8498Z" fill="#C1C1C1"/>
<circle cx="129.5" cy="68.5" r="15" fill="#EFEFEF" stroke="#C1C1C1" stroke-width="5"/>
<path d="M135.417 62.5833C135.214 62.3787 134.972 62.2163 134.706 62.1054C134.44 61.9946 134.155 61.9375 133.867 61.9375C133.578 61.9375 133.293 61.9946 133.027 62.1054C132.761 62.2163 132.519 62.3787 132.316 62.5833L129.5 65.4216L126.684 62.5833C126.272 62.1722 125.715 61.9412 125.133 61.9412C124.552 61.9412 123.994 62.1722 123.583 62.5833C123.172 62.9944 122.941 63.552 122.941 64.1334C122.941 64.7149 123.172 65.2724 123.583 65.6836L126.422 68.5L123.583 71.3164C123.379 71.5194 123.216 71.7609 123.105 72.0269C122.995 72.293 122.938 72.5783 122.938 72.8666C122.938 73.1548 122.995 73.4401 123.105 73.7062C123.216 73.9723 123.379 74.2137 123.583 74.4167C123.786 74.6213 124.028 74.7837 124.294 74.8946C124.56 75.0054 124.845 75.0625 125.133 75.0625C125.422 75.0625 125.707 75.0054 125.973 74.8946C126.239 74.7837 126.481 74.6213 126.684 74.4167L129.5 71.5784L132.316 74.4167C132.519 74.6213 132.761 74.7837 133.027 74.8946C133.293 75.0054 133.578 75.0625 133.867 75.0625C134.155 75.0625 134.44 75.0054 134.706 74.8946C134.972 74.7837 135.214 74.6213 135.417 74.4167C135.621 74.2137 135.784 73.9723 135.895 73.7062C136.005 73.4401 136.063 73.1548 136.063 72.8666C136.063 72.5783 136.005 72.293 135.895 72.0269C135.784 71.7609 135.621 71.5194 135.417 71.3164L132.578 68.5L135.417 65.6836C135.621 65.4806 135.784 65.2391 135.895 64.9731C136.005 64.707 136.063 64.4217 136.063 64.1334C136.063 63.8452 136.005 63.5599 135.895 63.2938C135.784 63.0277 135.621 62.7863 135.417 62.5833Z" fill="#C1C1C1"/>
</g>
<defs>
<clipPath id="clip0_7348_7971">
<rect width="229" height="119" fill="white"/>
</clipPath>
</defs>
</svg>
