<svg width="229" height="119" viewBox="0 0 229 119" fill="none" xmlns="http://www.w3.org/2000/svg">
<g clip-path="url(#clip0_7348_8009)">
<circle cx="161.23" cy="104.329" r="14.6712" fill="#EFEFEF"/>
<circle cx="56.9017" cy="32.6019" r="14.6712" fill="#EFEFEF"/>
<circle cx="32.7808" cy="48.9039" r="9.78082" fill="#EFEFEF"/>
<circle cx="175.138" cy="17.9312" r="9.78082" fill="#EFEFEF"/>
<circle cx="64.568" cy="103.513" r="7.33562" fill="#EFEFEF"/>
<circle cx="114.772" cy="57.8699" r="57.8699" fill="#EFEFEF"/>
<path d="M86.5032 52.3722L84.9141 41.917L143.579 33.0002L145.169 43.4555C140.446 46.4235 141.828 52.5419 146.773 54.0142L148.425 64.8835L89.7601 73.8003L88.1081 62.931C93.1934 59.9043 91.5381 53.3057 86.5032 52.3722Z" stroke="#C1C1C1" stroke-width="5"/>
<path d="M81 61.2218V50.6465H140.339V61.2218C135.224 63.4464 135.671 69.703 140.339 71.9018V82.896H81V71.9018C86.4824 69.6737 85.8374 62.9013 81 61.2218Z" fill="#EFEFEF" stroke="#C1C1C1" stroke-width="5"/>
<path d="M101.641 60.3213L104.178 62.0126C104.793 62.4228 104.766 63.3358 104.127 63.7085L101.641 65.1587" stroke="#C1C1C1" stroke-width="3" stroke-linecap="round"/>
<path d="M119.055 60.3213L116.518 62.0126C115.902 62.4228 115.93 63.3358 116.569 63.7085L119.055 65.1587" stroke="#C1C1C1" stroke-width="3" stroke-linecap="round"/>
<path d="M104.863 72.6359C106.798 71.131 111.894 69.024 116.796 72.6359" stroke="#C1C1C1" stroke-width="3" stroke-linecap="round"/>
</g>
<defs>
<clipPath id="clip0_7348_8009">
<rect width="229" height="119" fill="white"/>
</clipPath>
</defs>
</svg>
