<svg width="117" height="6" viewBox="0 0 117 6" fill="none" xmlns="http://www.w3.org/2000/svg">
<g clip-path="url(#clip0_7438_8038)">
<path d="M114.783 5.67542C114.111 5.67542 113.59 5.52865 113.222 5.23511C112.854 4.93623 112.648 4.50659 112.605 3.9462H113.606C113.644 4.23974 113.761 4.45322 113.958 4.58665C114.161 4.71474 114.455 4.77878 114.839 4.77878C115.592 4.77878 115.968 4.53061 115.968 4.03426C115.968 3.81544 115.893 3.64999 115.744 3.53791C115.594 3.4205 115.349 3.34311 115.007 3.30575L114.423 3.2337C113.302 3.09493 112.742 2.5799 112.742 1.68861C112.742 1.17091 112.928 0.765293 113.302 0.471753C113.676 0.172876 114.185 0.0234375 114.831 0.0234375C115.455 0.0234375 115.944 0.164871 116.296 0.447736C116.648 0.730602 116.846 1.13889 116.888 1.6726H115.88C115.858 1.40574 115.76 1.21094 115.584 1.08819C115.413 0.965434 115.154 0.904057 114.807 0.904057C114.46 0.904057 114.199 0.965434 114.022 1.08819C113.846 1.21094 113.758 1.3844 113.758 1.60855C113.758 1.81136 113.836 1.96881 113.99 2.08089C114.145 2.19296 114.393 2.27035 114.735 2.31305L115.399 2.40111C115.922 2.47049 116.32 2.63594 116.592 2.89746C116.864 3.15364 117.001 3.50589 117.001 3.9542C117.001 4.50926 116.803 4.93623 116.408 5.23511C116.013 5.52865 115.471 5.67542 114.783 5.67542Z" fill="#656565"/>
<path d="M107.28 3.45788H106.184V5.6274H105.135V0.103516H107.536C108.14 0.103516 108.615 0.247617 108.961 0.53582C109.314 0.824023 109.49 1.24032 109.49 1.7847C109.49 2.17964 109.394 2.50787 109.202 2.76939C109.015 3.02557 108.737 3.21237 108.369 3.32979L109.738 5.6274H108.489L107.28 3.45788ZM106.184 2.56125H107.568C108.156 2.56125 108.449 2.3024 108.449 1.7847C108.449 1.52852 108.372 1.33638 108.217 1.20829C108.062 1.0802 107.846 1.01616 107.568 1.01616H106.184V2.56125Z" fill="#656565"/>
<path d="M99.0839 1.01616V2.38512H101.574V3.29776H99.0839V4.71476H101.982V5.6274H98.0352V0.103516H101.982V1.01616H99.0839Z" fill="#656565"/>
<path d="M91.0684 0.103516H92.1171V4.71476H94.9671V5.6274H91.0684V0.103516Z" fill="#656565"/>
<path d="M88.1482 1.01616H86.4911V5.6274H85.4423V1.01616H83.7852V0.103516H88.1482V1.01616Z" fill="#656565"/>
<path d="M78.867 5.67542C78.1945 5.67542 77.6741 5.52865 77.3059 5.23511C76.9376 4.93623 76.7321 4.50659 76.6895 3.9462H77.6902C77.7275 4.23974 77.8449 4.45322 78.0424 4.58665C78.2452 4.71474 78.5388 4.77878 78.923 4.77878C79.6756 4.77878 80.0518 4.53061 80.0518 4.03426C80.0518 3.81544 79.9771 3.64999 79.8277 3.53791C79.6782 3.4205 79.4327 3.34311 79.0911 3.30575L78.5067 3.2337C77.3859 3.09493 76.8256 2.5799 76.8256 1.68861C76.8256 1.17091 77.0123 0.765293 77.3859 0.471753C77.7595 0.172876 78.2692 0.0234375 78.915 0.0234375C79.5395 0.0234375 80.0278 0.164871 80.38 0.447736C80.7323 0.730602 80.9298 1.13889 80.9725 1.6726H79.9638C79.9424 1.40574 79.8437 1.21094 79.6676 1.08819C79.4968 0.965434 79.2379 0.904057 78.891 0.904057C78.5441 0.904057 78.2826 0.965434 78.1064 1.08819C77.9303 1.21094 77.8423 1.3844 77.8423 1.60855C77.8423 1.81136 77.9197 1.96881 78.0744 2.08089C78.2292 2.19296 78.4774 2.27035 78.819 2.31305L79.4834 2.40111C80.0065 2.47049 80.4041 2.63594 80.6763 2.89746C80.9485 3.15364 81.0845 3.50589 81.0845 3.9542C81.0845 4.50926 80.8871 4.93623 80.4921 5.23511C80.0972 5.52865 79.5555 5.67542 78.867 5.67542Z" fill="#656565"/>
<path d="M71.3506 5.67544C70.9076 5.67544 70.518 5.59271 70.1817 5.42726C69.8455 5.26181 69.584 5.02698 69.3972 4.72277C69.2157 4.41322 69.125 4.05296 69.125 3.64201V0.103516H70.1737V3.60998C70.1737 3.98358 70.2751 4.26911 70.478 4.46659C70.6808 4.66406 70.9716 4.76279 71.3506 4.76279C71.7295 4.76279 72.023 4.66406 72.2312 4.46659C72.4393 4.26911 72.5434 3.98358 72.5434 3.60998V0.103516H73.5921V3.64201C73.5921 4.05296 73.4987 4.41322 73.3119 4.72277C73.1305 5.02698 72.869 5.26181 72.5274 5.42726C72.1912 5.59271 71.7989 5.67544 71.3506 5.67544Z" fill="#656565"/>
<path d="M65.7787 0.103516V5.6274H64.7299V3.28976H62.4003V5.6274H61.3516V0.103516H62.4003V2.37712H64.7299V0.103516H65.7787Z" fill="#656565"/>
<path d="M51.1093 1.01616V2.43316H53.6151V3.3458H51.1093V5.6274H50.0605V0.103516H54.0073V1.01616H51.1093Z" fill="#656565"/>
<path d="M44.5138 5.71602C43.7987 5.71602 43.2409 5.51321 42.8407 5.10759C42.4404 4.70198 42.2402 4.09622 42.2402 3.29032V2.42571C42.2402 1.61981 42.443 1.01405 42.8487 0.608428C43.2596 0.202809 43.8254 0 44.5459 0C45.2557 0 45.8134 0.202809 46.219 0.608428C46.6247 1.01405 46.8275 1.61981 46.8275 2.42571V3.29032C46.8275 4.09088 46.6193 4.69664 46.203 5.10759C45.7921 5.51321 45.229 5.71602 44.5138 5.71602ZM44.5459 4.77136C45.3678 4.77136 45.7787 4.27234 45.7787 3.2743V2.48175C45.7787 1.44101 45.3678 0.920648 44.5459 0.920648C44.1242 0.920648 43.8093 1.04874 43.6012 1.30492C43.3984 1.5611 43.297 1.95337 43.297 2.48175V3.2743C43.297 3.78133 43.3984 4.15759 43.6012 4.4031C43.8093 4.6486 44.1242 4.77136 44.5459 4.77136Z" fill="#656565"/>
<path d="M32.0292 1.01616V2.43316H34.535V3.3458H32.0292V5.6274H30.9805V0.103516H34.9272V1.01616H32.0292Z" fill="#656565"/>
<path d="M25.4338 5.71602C24.7186 5.71602 24.1609 5.51321 23.7606 5.10759C23.3603 4.70198 23.1602 4.09622 23.1602 3.29032V2.42571C23.1602 1.61981 23.363 1.01405 23.7686 0.608428C24.1795 0.202809 24.7453 0 25.4658 0C26.1756 0 26.7333 0.202809 27.139 0.608428C27.5446 1.01405 27.7474 1.61981 27.7474 2.42571V3.29032C27.7474 4.09088 27.5392 4.69664 27.1229 5.10759C26.712 5.51321 26.1489 5.71602 25.4338 5.71602ZM25.4658 4.77136C26.2877 4.77136 26.6986 4.27234 26.6986 3.2743V2.48175C26.6986 1.44101 26.2877 0.920648 25.4658 0.920648C25.0441 0.920648 24.7293 1.04874 24.5211 1.30492C24.3183 1.5611 24.2169 1.95337 24.2169 2.48175V3.2743C24.2169 3.78133 24.3183 4.15759 24.5211 4.4031C24.7293 4.6486 25.0441 4.77136 25.4658 4.77136Z" fill="#656565"/>
<path d="M17.6447 5.71602C16.9295 5.71602 16.3718 5.51321 15.9715 5.10759C15.5712 4.70198 15.3711 4.09622 15.3711 3.29032V2.42571C15.3711 1.61981 15.5739 1.01405 15.9795 0.608428C16.3905 0.202809 16.9562 0 17.6767 0C18.3865 0 18.9443 0.202809 19.3499 0.608428C19.7555 1.01405 19.9583 1.61981 19.9583 2.42571V3.29032C19.9583 4.09088 19.7502 4.69664 19.3339 5.10759C18.9229 5.51321 18.3599 5.71602 17.6447 5.71602ZM17.6767 4.77136C18.4986 4.77136 18.9096 4.27234 18.9096 3.2743V2.48175C18.9096 1.44101 18.4986 0.920648 17.6767 0.920648C17.2551 0.920648 16.9402 1.04874 16.7321 1.30492C16.5292 1.5611 16.4278 1.95337 16.4278 2.48175V3.2743C16.4278 3.78133 16.5292 4.15759 16.7321 4.4031C16.9402 4.6486 17.2551 4.77136 17.6767 4.77136Z" fill="#656565"/>
<path d="M9.98731 3.45788H8.89053V5.6274H7.8418V0.103516H10.2435C10.8466 0.103516 11.3216 0.247617 11.6685 0.53582C12.0207 0.824023 12.1969 1.24032 12.1969 1.7847C12.1969 2.17964 12.1008 2.50787 11.9087 2.76939C11.7219 3.02557 11.4443 3.21237 11.0761 3.32979L12.445 5.6274H11.1962L9.98731 3.45788ZM8.89053 2.56125H10.2755C10.8626 2.56125 11.1561 2.3024 11.1561 1.7847C11.1561 1.52852 11.0787 1.33638 10.924 1.20829C10.7692 1.0802 10.553 1.01616 10.2755 1.01616H8.89053V2.56125Z" fill="#656565"/>
<path d="M2.79779 0.103516C3.41689 0.103516 3.8999 0.252954 4.24681 0.551832C4.59906 0.850709 4.77518 1.27768 4.77518 1.83273C4.77518 2.36644 4.59906 2.78273 4.24681 3.08161C3.8999 3.38049 3.40355 3.52993 2.75776 3.52993H1.46085V5.6274H0.412109V0.103516H2.79779ZM2.83782 2.60928C3.43023 2.60928 3.72644 2.34776 3.72644 1.82473C3.72644 1.55254 3.64905 1.34973 3.49428 1.2163C3.3395 1.08287 3.12068 1.01616 2.83782 1.01616H1.46085V2.60928H2.83782Z" fill="#656565"/>
</g>
<defs>
<clipPath id="clip0_7438_8038">
<rect width="117" height="6" fill="white"/>
</clipPath>
</defs>
</svg>
