<svg width="50" height="50" viewBox="0 0 50 50" fill="none" xmlns="http://www.w3.org/2000/svg">
<circle cx="25" cy="25" r="25" fill="#DAFF01"/>
<g clip-path="url(#clip0_8340_15137)">
<path d="M29.8054 20.8397C30.6175 19.4558 30.9682 17.8494 30.8068 16.253C30.5681 13.8743 29.2401 11.7717 27.0694 10.333L25.5961 12.5543C27.0881 13.5437 27.9961 14.953 28.1534 16.5197C28.226 17.2478 28.1353 17.983 27.8881 18.6716C27.6408 19.3603 27.2432 19.9853 26.7241 20.501L25.1348 22.0903L27.2921 22.7237C32.9348 24.377 33.0001 30.0517 33.0001 30.109H35.6668C35.6668 27.7237 34.3921 23.0623 29.8054 20.8397Z" fill="black"/>
<path d="M20.334 22.109C23.2753 22.109 25.6673 19.717 25.6673 16.7757C25.6673 13.8344 23.2753 11.4424 20.334 11.4424C17.3927 11.4424 15.0007 13.8344 15.0007 16.7757C15.0007 19.717 17.3927 22.109 20.334 22.109ZM20.334 14.109C21.8047 14.109 23.0007 15.305 23.0007 16.7757C23.0007 18.2464 21.8047 19.4424 20.334 19.4424C18.8633 19.4424 17.6673 18.2464 17.6673 16.7757C17.6673 15.305 18.8633 14.109 20.334 14.109ZM22.334 23.4424H18.334C13.922 23.4424 10.334 27.0304 10.334 31.4424V32.7757H13.0007V31.4424C13.0007 28.501 15.3927 26.109 18.334 26.109H22.334C25.2753 26.109 27.6673 28.501 27.6673 31.4424V32.7757H30.334V31.4424C30.334 27.0304 26.746 23.4424 22.334 23.4424Z" fill="black"/>
<circle cx="32" cy="33" r="7" fill="black" stroke="black" stroke-width="2"/>
<path d="M36 32L33.0235 32V29H31V32H28V34H31V37H33.0235V34L34.5 34H36V32Z" fill="#DAFF01"/>
</g>
<defs>
<clipPath id="clip0_8340_15137">
<rect width="32" height="32" fill="white" transform="translate(9 9)"/>
</clipPath>
</defs>
</svg>
