<svg width="24" height="24" viewBox="0 0 24 24" fill="none" xmlns="http://www.w3.org/2000/svg">
<path d="M3.68797 9.13638V18.1364C3.68797 19.0909 4.18297 21 6.16297 21C8.14297 21 15.0625 21 18.0875 21C18.775 20.8636 20.15 20.5909 20.188 18.1364V9.13638M3.68797 9.13638H20.188M3.68797 9.13638C3.12531 9.13638 2 8.72729 2 7.09093C2 5.45457 2 5.3182 2 5.45457C2.02531 4.63638 2.39834 3 3.68797 3C4.97759 3 15.6505 3 20.188 3C20.975 3 21.8 3.81818 21.8 5.45457V7.0909C21.8 8.72727 20.8783 8.80913 20.188 9.13638" stroke="black" stroke-width="2"/>
<g clip-path="url(#clip0_1066_10283)">
<path d="M12.0002 12.5317C11.637 12.1977 11.1616 12.0123 10.6682 12.0123C10.407 12.0126 10.1485 12.0645 9.90747 12.1651C9.66646 12.2657 9.44771 12.4129 9.26382 12.5983C8.47949 13.386 8.47982 14.618 9.26449 15.4023L11.7085 17.8463C11.7652 17.946 11.8745 18.0103 12.0002 18.0103C12.0518 18.0098 12.1025 17.9972 12.1484 17.9736C12.1942 17.9499 12.2339 17.9158 12.2642 17.874L14.7358 15.4023C15.5205 14.6177 15.5205 13.386 14.7352 12.597C14.5514 12.4119 14.3328 12.265 14.092 12.1646C13.8512 12.0643 13.593 12.0125 13.3322 12.0123C12.8388 12.0124 12.3634 12.1978 12.0002 12.5317ZM14.2638 13.0683C14.7848 13.592 14.7852 14.41 14.2645 14.931L12.0002 17.1953L9.73582 14.931C9.21516 14.41 9.21549 13.592 9.73516 13.0697C9.98849 12.8177 10.3198 12.679 10.6682 12.679C11.0165 12.679 11.3465 12.8177 11.5978 13.069L11.7645 13.2357C11.7954 13.2666 11.8322 13.2912 11.8726 13.308C11.913 13.3248 11.9564 13.3334 12.0002 13.3334C12.0439 13.3334 12.0873 13.3248 12.1277 13.308C12.1682 13.2912 12.2049 13.2666 12.2358 13.2357L12.4025 13.069C12.9065 12.566 13.7605 12.5673 14.2638 13.0683Z" fill="black" stroke="black" stroke-width="0.5"/>
</g>
<defs>
<clipPath id="clip0_1066_10283">
<rect width="8" height="8" fill="white" transform="translate(8 11)"/>
</clipPath>
</defs>
</svg>
