<svg width="50" height="50" viewBox="0 0 50 50" fill="none" xmlns="http://www.w3.org/2000/svg">
<circle cx="25" cy="25" r="25" fill="#DAFF01"/>
<g clip-path="url(#clip0_8340_15136)">
<path d="M38.3993 23.7731L26.2493 16.2115C26.0275 16.0736 25.7671 16 25.5007 16C25.2343 16 24.9738 16.0736 24.7521 16.2115L12.6021 23.7731C12.417 23.8881 12.2652 24.044 12.1602 24.2269C12.0551 24.4098 12.0001 24.6141 12 24.8217V38.6846C12 40.0747 13.211 41.2052 14.7 41.2052H36.3C37.7891 41.2052 39 40.0747 39 38.6846V24.8217C39 24.4007 38.7746 24.0075 38.3993 23.7731ZM25.5 18.7749L35.216 24.8217L25.5 30.8684L15.784 24.8217L25.5 18.7749ZM14.7 38.6846V27.1771L24.7507 33.4318C24.9726 33.57 25.2333 33.6437 25.5 33.6437C25.7667 33.6437 26.0274 33.57 26.2493 33.4318L36.3 27.1771L36.2959 38.6846H14.7Z" fill="black"/>
<path d="M21.5706 10.4078C21.6081 10.2749 21.7466 10.1957 21.88 10.2311L34.5923 13.5979C34.7257 13.6332 34.8035 13.7697 34.766 13.9026L30.4303 29.2928C30.3928 29.4257 30.2543 29.5049 30.1209 29.4695L17.4087 26.1027C17.2753 26.0674 17.1975 25.9309 17.2349 25.798L21.5706 10.4078Z" fill="black" stroke="black" stroke-width="1.5"/>
<path fill-rule="evenodd" clip-rule="evenodd" d="M31.213 18.5112L21.9313 22.3108L21.0898 20.7754L30.3716 16.9759L31.213 18.5112Z" fill="#DAFF01"/>
<path d="M27.6698 16.1596C27.4548 17.0382 26.4558 17.5487 25.4385 17.2999C24.4212 17.0511 23.7707 16.1372 23.9857 15.2587C24.2007 14.3802 25.1997 13.8697 26.217 14.1184C27.2344 14.3672 27.8848 15.2811 27.6698 16.1596Z" fill="#DAFF01"/>
<path d="M28.1893 24.02C27.9743 24.8985 26.9754 25.409 25.958 25.1602C24.9407 24.9114 24.2903 23.9976 24.5053 23.119C24.7203 22.2405 25.7192 21.73 26.7366 21.9788C27.7539 22.2276 28.4043 23.1415 28.1893 24.02Z" fill="#DAFF01"/>
</g>
<defs>
<clipPath id="clip0_8340_15136">
<rect width="32" height="32" fill="white" transform="translate(9 9)"/>
</clipPath>
</defs>
</svg>
