<svg width="50" height="50" viewBox="0 0 50 50" fill="none" xmlns="http://www.w3.org/2000/svg">
<circle cx="25" cy="25" r="25" fill="#DAFF01"/>
<g clip-path="url(#clip0_8340_15135)">
<path d="M24.3858 10.9797C24.3384 10.941 24.2838 10.9122 24.2253 10.895C24.1668 10.8778 24.1056 10.8726 24.0451 10.8795C23.9846 10.8865 23.9261 10.9056 23.8729 10.9356C23.8197 10.9657 23.7728 11.0062 23.7351 11.0547L19.4862 16.5075H17.1314L22.2886 9.88947C22.4774 9.64719 22.7114 9.44521 22.9771 9.29514C23.2429 9.14506 23.5353 9.04986 23.8374 9.01498C24.1395 8.98011 24.4454 9.00626 24.7376 9.09193C25.0297 9.1776 25.3023 9.3211 25.5397 9.51419L30.2908 13.3824C30.74 13.7482 31.0385 14.2715 31.1276 14.8495C31.2168 15.4276 31.0902 16.0186 30.7726 16.5066H28.3597L29.1969 15.5196C29.2375 15.4719 29.2681 15.4163 29.287 15.3563C29.306 15.2962 29.3128 15.2329 29.3071 15.1701C29.3014 15.1073 29.2834 15.0463 29.254 14.9908C29.2245 14.9353 29.1844 14.8863 29.136 14.8469L26.8246 12.9649L24.0849 16.5075H21.7366L25.3828 11.7921L24.3858 10.9797ZM11.7692 13.6929C11.0348 13.6929 10.3304 13.9895 9.81109 14.5173C9.29176 15.0452 9 15.7611 9 16.5075V30.1114C9 31.2312 9.43764 32.305 10.2166 33.0968C10.9956 33.8885 12.0522 34.3333 13.1538 34.3333H28.8462C29.9478 34.3333 31.0044 33.8885 31.7834 33.0968C32.5624 32.305 33 31.2312 33 30.1114V21.6676C33 20.5479 32.5624 19.4741 31.7834 18.6823C31.0044 17.8905 29.9478 17.4457 28.8462 17.4457H11.7692C11.5244 17.4457 11.2896 17.3469 11.1165 17.1709C10.9434 16.995 10.8462 16.7564 10.8462 16.5075C10.8462 16.2587 10.9434 16.0201 11.1165 15.8441C11.2896 15.6682 11.5244 15.5693 11.7692 15.5693H15.9969L17.4702 13.6929H11.7692ZM25.6154 24.9513H28.3846C28.6294 24.9513 28.8642 25.0502 29.0373 25.2261C29.2104 25.4021 29.3077 25.6407 29.3077 25.8895C29.3077 26.1384 29.2104 26.377 29.0373 26.5529C28.8642 26.7289 28.6294 26.8277 28.3846 26.8277H25.6154C25.3706 26.8277 25.1358 26.7289 24.9627 26.5529C24.7896 26.377 24.6923 26.1384 24.6923 25.8895C24.6923 25.6407 24.7896 25.4021 24.9627 25.2261C25.1358 25.0502 25.3706 24.9513 25.6154 24.9513Z" fill="#181818"/>
<circle cx="33" cy="33" r="7" fill="#DAFF01" stroke="black" stroke-width="2"/>
<path d="M37 32L34.0235 32V29H32V32H29V34H32V37H34.0235V34L35.5 34H37V32Z" fill="black"/>
</g>
<defs>
<clipPath id="clip0_8340_15135">
<rect width="32" height="32" fill="white" transform="translate(9 9)"/>
</clipPath>
</defs>
</svg>
