<svg width="44" height="43" viewBox="0 0 44 43" fill="none" xmlns="http://www.w3.org/2000/svg">
<g id="Frame" clip-path="url(#clip0_1646_6411)">
<g id="Group">
<path id="Vector" d="M33.1514 8.24539C33.1406 7.0597 32.2061 6.02631 31.0674 5.91753C30.1436 5.83051 30.1436 5.83051 29.8857 4.93853C29.7676 4.54693 29.4238 4.30762 29.0371 4.35113C28.6504 4.39464 28.3389 4.69922 28.3604 5.11257C28.3818 5.46066 28.4355 5.84139 28.5859 6.15684C28.9834 6.99444 29.6709 7.44043 30.5947 7.48394C31.2285 7.51657 31.5508 7.77764 31.5508 8.24539C31.5508 8.71313 31.25 8.96332 30.6055 9.01771C30.5732 9.01771 30.5518 9.01771 30.5195 9.02859C29.2627 9.12649 28.3496 10.1272 28.3496 11.3891C28.3603 12.64 29.2949 13.6408 30.5518 13.7278C31.3145 13.7822 31.4004 13.8583 31.5938 14.6089C31.7119 15.0767 32.0879 15.3486 32.4961 15.2725C32.9258 15.1854 33.1836 14.8156 33.1406 14.337C33.0439 13.1295 32.1738 12.2593 30.9707 12.1505C30.8096 12.1396 30.6592 12.1179 30.498 12.0853C30.1221 12.0091 29.9287 11.7372 29.9287 11.3673C29.9287 11.0192 30.1006 10.7473 30.4551 10.6603C30.6377 10.6167 30.8203 10.6059 31.0029 10.595C32.2061 10.5188 33.1621 9.45282 33.1514 8.24539ZM24.2568 3.91601C24.2568 2.65419 23.3223 1.65343 22.0762 1.56641C21.3242 1.51202 21.2061 1.41412 21.0234 0.685303C20.9053 0.206679 20.5615 -0.0543887 20.1318 0.0108782C19.6914 0.0761451 19.4229 0.467746 19.4766 0.968126C19.5947 2.22995 20.4648 3.04579 21.7861 3.14369C22.3447 3.1872 22.667 3.44827 22.6777 3.89426C22.6885 4.32937 22.377 4.62307 21.8291 4.67746C21.7754 4.68834 21.7109 4.68834 21.6572 4.68834C20.3896 4.78624 19.4443 5.79788 19.4443 7.03795C19.4443 8.26714 20.4004 9.30053 21.6357 9.39843C22.4307 9.4637 22.4951 9.50721 22.6992 10.3122C22.8066 10.7364 23.1611 11.0084 23.5479 10.9648C23.9668 10.9213 24.2461 10.5841 24.2568 10.1272C24.2676 9.15912 23.6016 8.22363 22.6562 7.94081C22.334 7.84291 21.9795 7.83203 21.6465 7.76676C21.2705 7.69062 21.0771 7.44043 21.0664 7.07058C21.0557 6.68986 21.249 6.43967 21.6143 6.34177C21.7646 6.29826 21.9258 6.29826 22.0762 6.28738C23.3115 6.18948 24.2568 5.16696 24.2568 3.91601ZM14.8145 8.24539C14.8037 6.99444 13.8584 5.99368 12.6123 5.91753C12.1826 5.89578 11.7744 5.83051 11.624 5.33013C11.5918 5.21047 11.5811 5.06906 11.5488 4.94941C11.4307 4.54693 11.1084 4.31849 10.7109 4.362C10.3242 4.40552 10.0342 4.71009 10.0234 5.12345C10.0127 5.34101 10.0449 5.55856 10.0986 5.76524C10.3779 6.79864 11.1836 7.41867 12.3438 7.50569C12.9023 7.5492 13.2246 7.82115 13.2354 8.25626C13.2461 8.69138 12.9346 8.9742 12.3867 9.03946C12.3008 9.05034 12.2148 9.05034 12.1289 9.06122C11.3447 9.13737 10.7432 9.52897 10.3564 10.2034C9.44336 11.7589 10.4854 13.6517 12.29 13.7713C12.9238 13.8148 13.1387 13.978 13.2461 14.5001C13.3643 15.0875 13.6973 15.3921 14.1484 15.3268C14.6318 15.2507 14.8682 14.8591 14.8037 14.2391C14.793 14.1303 14.7715 14.0106 14.7393 13.9018C14.4492 12.8902 13.6973 12.2919 12.6123 12.1832C11.9248 12.1179 11.6133 11.8786 11.624 11.4C11.624 10.9322 11.957 10.682 12.623 10.6385C12.6338 10.6385 12.6553 10.6385 12.666 10.6385C13.8691 10.5297 14.8252 9.48546 14.8145 8.24539Z" fill="white"/>
<path id="Vector_2" d="M44.0003 31.502C43.8499 32.2091 43.6566 32.8944 43.1946 33.4818C42.5071 34.3629 41.6263 34.9068 40.5091 35.0156C40.3909 35.0264 40.2835 35.0591 40.1116 35.0917C40.1116 35.244 40.1116 35.3963 40.1116 35.5486C40.1116 37.6371 40.1116 39.7257 40.1116 41.8142C40.1116 42.7606 39.8753 43.0108 38.9515 43.0108C37.9525 43.0108 36.9427 43.0108 35.9437 43.0108C35.2025 43.0108 34.9232 42.7388 34.9232 41.9991C34.9232 41.7054 34.848 41.5422 34.5579 41.4117C30.4329 39.3993 26.3187 37.3652 22.2152 35.3419C21.9681 35.2222 21.764 35.2114 21.5062 35.331C17.4886 37.3217 13.4603 39.3014 9.43195 41.2703C9.1634 41.4008 9.06672 41.564 9.06672 41.8686C9.07746 42.7823 8.83039 43.0216 7.9173 43.0216C6.91828 43.0216 5.90851 43.0216 4.90949 43.0216C4.16828 43.0216 3.88898 42.7279 3.87824 41.9665C3.87824 41.6293 3.8675 41.3029 3.87824 40.9657C3.89972 40.3783 4.2005 40.0302 4.6839 40.0302C5.1673 40.0302 5.47882 40.4125 5.50031 40.9999V41.39C6.15558 41.39 6.76789 41.39 7.4339 41.39C7.4339 39.3123 7.4339 37.2346 7.4339 35.1243C6.81086 35.1243 6.17707 35.1243 5.47882 35.1243C5.47882 35.4833 5.47882 35.8532 5.47882 36.223C5.47882 36.4841 5.50031 40.7388 5.50031 40.9999C5.48956 41.6417 4.6839 41.7069 4.6839 41.7069C4.6839 41.7069 3.88898 41.6075 3.87824 40.9657C3.87824 40.3457 3.87824 35.7444 3.87824 35.1678C3.29816 34.9938 2.72882 34.9177 2.24543 34.6783C0.548161 33.8408 -0.28973 32.0786 0.0969886 30.2837C0.483707 28.478 2.04132 27.2053 3.94269 27.1727C5.4466 27.1509 6.9505 27.1727 8.45441 27.1727C8.61554 27.1727 8.76593 27.1727 8.98078 27.1727C8.92707 27.0204 8.89484 26.9007 8.84113 26.7919C8.20734 25.4105 8.45441 23.8767 9.59308 22.865C10.9251 21.6794 12.3216 20.5589 13.6859 19.4168C13.804 19.3189 13.9222 19.2101 14.0511 19.1122C14.8782 18.4813 15.4905 17.7742 15.888 16.73C16.9515 13.9561 19.6478 12.4115 22.6126 12.6399C25.3519 12.8466 27.7152 14.859 28.4778 17.6219C28.5316 17.8286 28.682 18.0353 28.8431 18.1767C30.5726 19.6343 32.2806 21.1028 34.0423 22.517C35.5355 23.7135 35.8685 25.5627 35.0843 26.966C35.0628 27.0095 35.0521 27.0748 35.0306 27.1835C35.1917 27.1835 35.3314 27.1835 35.471 27.1835C36.8997 27.1835 38.3392 27.227 39.7679 27.1727C41.9271 27.0965 43.678 28.5541 43.9573 30.5992C43.9573 30.6209 43.9896 30.6427 44.0111 30.6644C44.0003 30.9255 44.0003 31.2192 44.0003 31.502ZM34.8909 35.0699C34.6868 35.0699 34.5042 35.0699 34.3216 35.0699C33.9671 35.0699 29.0472 35.1026 28.6927 35.0699C28.2523 35.0264 27.8886 34.6131 27.8993 34.2106C27.9101 33.819 28.0696 33.5144 28.4993 33.4492C28.6712 33.4274 33.5696 33.46 33.7415 33.46C35.9222 33.4492 38.0921 33.4927 40.2728 33.4274C41.8948 33.3839 42.8939 31.5455 42.1634 30.077C41.6585 29.0763 40.7991 28.7499 39.7464 28.7499C27.9193 28.7608 16.0921 28.7499 4.26496 28.7499C4.05011 28.7499 3.83527 28.7608 3.62043 28.7935C2.04132 28.9784 1.1175 30.7297 1.84797 32.1547C2.34211 33.1119 3.15851 33.4492 4.18976 33.4492C12.2894 33.4383 20.3997 33.4383 28.4993 33.4492C28.7249 33.4492 28.9612 33.46 29.1761 33.5144C29.5198 33.6014 29.7025 33.8516 29.7239 34.2106C29.7454 34.5804 29.5843 34.8633 29.2405 34.9938C29.0687 35.0591 28.8753 35.0699 28.6927 35.0699C27.7474 35.0808 26.8021 35.0699 25.8568 35.0699C25.7386 35.0699 25.6204 35.0917 25.3841 35.1026C28.6175 36.6907 31.7327 38.2245 34.8802 39.78C34.8909 38.1701 34.8909 36.6472 34.8909 35.0699ZM16.887 19.3841C16.9085 22.2559 19.2181 24.5729 22.054 24.5511C24.847 24.5293 27.1136 22.2015 27.1136 19.3733C27.1136 16.5124 24.804 14.1845 21.9681 14.1954C19.1644 14.1954 16.8655 16.545 16.887 19.3841ZM22.806 27.1509C22.9671 27.1509 23.0853 27.1509 23.1927 27.1509C26.1038 27.1509 29.0042 27.1509 31.9153 27.1509C32.8821 27.1509 33.5052 26.7375 33.7952 25.9326C34.0745 25.1385 33.8489 24.4423 33.1185 23.8223C31.7435 22.6692 30.3577 21.5162 28.9827 20.3631C28.8968 20.2979 28.8001 20.2435 28.7679 20.2217C28.4134 21.2007 28.0696 22.1689 27.7152 23.1479C28.0374 23.1479 28.3919 23.1479 28.7571 23.1479C29.4124 23.1587 29.7562 23.4416 29.7562 23.9528C29.7454 24.4532 29.4017 24.736 28.7786 24.736C28.0052 24.736 27.2318 24.7251 26.4583 24.7469C26.2435 24.7578 26.0286 24.8448 25.8245 24.9427C25.1478 25.2582 24.4925 25.6063 23.8157 25.9C23.5042 26.0305 23.1605 26.0631 22.8167 26.1393C22.806 26.4656 22.806 26.7811 22.806 27.1509ZM15.222 20.1673C13.6751 21.4727 12.096 22.7889 10.5491 24.1377C10.3236 24.3335 10.1839 24.7034 10.1409 25.0188C9.9798 26.2589 10.7532 27.14 11.9886 27.14C14.9642 27.1509 17.9398 27.14 20.9261 27.14C21.012 27.14 21.0872 27.1291 21.1839 27.1183C21.1839 26.7702 21.1839 26.4438 21.1839 26.0849C19.9808 25.9217 18.9066 25.4757 17.9398 24.7578C17.8753 24.7034 17.7571 24.7034 17.6605 24.7034C16.7474 24.7034 15.8236 24.7143 14.9105 24.7143C14.7601 24.7143 14.5882 24.6925 14.4486 24.6381C14.1048 24.4967 13.9222 24.1269 14.0081 23.7461C14.0941 23.3654 14.3519 23.137 14.7386 23.1261C15.2757 23.1044 15.8128 23.1261 16.2962 23.1261C15.931 22.1471 15.5872 21.1899 15.222 20.1673ZM18.2083 35.157C18.2083 35.1352 18.1976 35.1135 18.1976 35.0917C15.1683 35.0917 12.1497 35.0917 9.10968 35.0917C9.10968 36.6037 9.10968 38.0831 9.10968 39.6386C12.1712 38.1266 15.1898 36.6472 18.2083 35.157ZM38.4788 41.39C38.4788 39.2579 38.4788 37.1802 38.4788 35.1026C37.8128 35.1026 37.179 35.1026 36.5452 35.1026C36.5452 37.2129 36.5452 39.2905 36.5452 41.39C37.2005 41.39 37.8236 41.39 38.4788 41.39Z" fill="black"/>
<path id="Vector_3" d="M33.1505 8.24526C33.1612 9.4527 32.2052 10.5187 31.0128 10.6166C30.8302 10.6275 30.6368 10.6384 30.4649 10.6819C30.1104 10.7689 29.9386 11.0409 29.9386 11.3889C29.9386 11.7479 30.1319 12.0199 30.5079 12.1069C30.6583 12.1395 30.8194 12.1504 30.9806 12.1722C32.1837 12.2809 33.0431 13.162 33.1505 14.3586C33.1935 14.8372 32.9249 15.2071 32.506 15.2941C32.0977 15.3811 31.7218 15.1092 31.6036 14.6305C31.4103 13.88 31.3243 13.8038 30.5616 13.7494C29.3048 13.6515 28.3702 12.6617 28.3595 11.4107C28.3487 10.1489 29.2726 9.14812 30.5294 9.05022C30.5616 9.05022 30.5831 9.05022 30.6153 9.03934C31.2599 8.98495 31.5606 8.73476 31.5606 8.26701C31.5606 7.79927 31.2384 7.5382 30.6046 7.50557C29.6808 7.45118 28.9933 7.00519 28.5958 6.17847C28.4454 5.86302 28.3917 5.48229 28.3702 5.1342C28.3487 4.72085 28.6602 4.41627 29.047 4.37276C29.4337 4.32925 29.7774 4.56856 29.8956 4.96016C30.1642 5.86302 30.1642 5.86302 31.0772 5.93916C32.2052 6.02618 33.129 7.05958 33.1505 8.24526Z" fill="black"/>
<path id="Vector_4" d="M24.2559 3.91601C24.2559 5.16696 23.3105 6.18948 22.0752 6.26562C21.9141 6.2765 21.7637 6.2765 21.6133 6.32001C21.248 6.41791 21.0547 6.6681 21.0654 7.04882C21.0762 7.42955 21.2803 7.67974 21.6455 7.745C21.9785 7.81027 22.333 7.82115 22.6553 7.91905C23.6006 8.20187 24.2666 9.13736 24.2559 10.1055C24.2559 10.5624 23.9658 10.8996 23.5469 10.9431C23.1602 10.9866 22.8057 10.7146 22.6982 10.2904C22.4941 9.49633 22.4404 9.44194 21.6348 9.37668C20.3994 9.30053 19.4434 8.26714 19.4434 7.03795C19.4434 5.79788 20.3887 4.78624 21.6455 4.68834C21.6992 4.68834 21.7637 4.67746 21.8174 4.67746C22.376 4.62307 22.6875 4.32937 22.666 3.89426C22.6553 3.45915 22.333 3.1872 21.7744 3.14369C20.4531 3.04579 19.583 2.21907 19.4648 0.968126C19.4219 0.467746 19.6797 0.0761451 20.1201 0.0108782C20.5498 -0.0543887 20.8936 0.206679 21.0117 0.685303C21.1836 1.41412 21.3125 1.51202 22.0645 1.56641C23.3105 1.65343 24.2559 2.65419 24.2559 3.91601Z" fill="black"/>
<path id="Vector_5" d="M14.814 8.24523C14.8248 9.4853 13.8687 10.5296 12.6441 10.6166C12.6334 10.6166 12.6119 10.6166 12.6012 10.6166C11.9244 10.6601 11.6021 10.9103 11.6021 11.378C11.6021 11.8458 11.9029 12.096 12.5904 12.1612C13.6754 12.27 14.4273 12.8683 14.7174 13.8799C14.7496 13.9887 14.7711 14.1084 14.7818 14.2172C14.8463 14.8372 14.6099 15.2288 14.1265 15.3049C13.6754 15.3702 13.3424 15.0656 13.2242 14.4782C13.1168 13.9561 12.9019 13.7929 12.2681 13.7494C10.4527 13.6406 9.42147 11.737 10.3346 10.1815C10.732 9.50706 11.3228 9.11546 12.107 9.03931C12.193 9.02844 12.2789 9.02844 12.3648 9.01756C12.9234 8.96317 13.2242 8.68035 13.2135 8.23436C13.2027 7.79924 12.8805 7.5273 12.3219 7.48379C11.1617 7.39676 10.356 6.77673 10.0767 5.74334C10.0445 5.54754 10.0123 5.32998 10.023 5.11242C10.0338 4.69907 10.3346 4.39449 10.7105 4.35098C11.0972 4.30746 11.4303 4.5359 11.5484 4.93838C11.5806 5.05803 11.5914 5.19945 11.6236 5.3191C11.774 5.81948 12.1715 5.88475 12.6119 5.9065C13.858 5.99353 14.8033 6.99428 14.814 8.24523Z" fill="black"/>
</g>
</g>
<defs>
<clipPath id="clip0_1646_6411">
<rect width="44" height="43" fill="white"/>
</clipPath>
</defs>
</svg>
