<svg width="307" height="73" viewBox="0 0 307 73" fill="none" xmlns="http://www.w3.org/2000/svg">
<ellipse cx="181.369" cy="64" rx="9.0609" ry="9.00004" fill="#EFEFEF"/>
<ellipse cx="116.936" cy="20" rx="9.0609" ry="9.00004" fill="#EFEFEF"/>
<ellipse cx="102.041" cy="30" rx="6.0406" ry="6.00003" fill="#EFEFEF"/>
<ellipse cx="189.959" cy="11" rx="6.0406" ry="6.00003" fill="#EFEFEF"/>
<ellipse cx="121.673" cy="63.501" rx="4.53045" ry="4.50002" fill="#EFEFEF"/>
<ellipse cx="152.678" cy="35.5002" rx="35.7402" ry="35.5002" fill="#EFEFEF"/>
<g clip-path="url(#clip0_8236_15593)">
<path d="M152.999 20.167C149.868 20.167 146.807 21.0956 144.203 22.8354C141.599 24.5752 139.57 27.048 138.371 29.9412C137.173 32.8343 136.859 36.0179 137.47 39.0893C138.081 42.1606 139.589 44.9818 141.803 47.1962C144.018 49.4105 146.839 50.9185 149.91 51.5294C152.982 52.1404 156.165 51.8268 159.059 50.6284C161.952 49.43 164.424 47.4006 166.164 44.7969C167.904 42.1931 168.833 39.1319 168.833 36.0003C168.833 33.9211 168.423 31.8622 167.627 29.9412C166.832 28.0202 165.665 26.2747 164.195 24.8045C162.725 23.3342 160.979 22.1679 159.059 21.3722C157.138 20.5765 155.079 20.167 152.999 20.167ZM152.999 48.667C150.494 48.667 148.045 47.9241 145.962 46.5323C143.879 45.1404 142.256 43.1622 141.297 40.8476C140.338 38.5331 140.087 35.9863 140.576 33.5292C141.065 31.0721 142.271 28.8151 144.043 27.0436C145.814 25.2722 148.071 24.0658 150.528 23.577C152.985 23.0883 155.532 23.3391 157.847 24.2979C160.161 25.2566 162.139 26.8801 163.531 28.9631C164.923 31.0461 165.666 33.4951 165.666 36.0003C165.666 39.3597 164.332 42.5816 161.956 44.957C159.581 47.3325 156.359 48.667 152.999 48.667Z" fill="#181818"/>
<path d="M157.275 30.2843L151.29 38.201L148.709 34.8601C148.451 34.5284 148.071 34.3128 147.654 34.2608C147.237 34.2089 146.816 34.3248 146.484 34.583C146.153 34.8413 145.937 35.2207 145.885 35.6379C145.833 36.0551 145.949 36.4759 146.207 36.8076L150.055 41.7318C150.204 41.9205 150.394 42.0727 150.611 42.177C150.828 42.2812 151.065 42.3347 151.306 42.3335C151.548 42.3329 151.786 42.2769 152.003 42.1699C152.22 42.0628 152.409 41.9076 152.557 41.716L159.792 32.2159C160.049 31.88 160.161 31.4561 160.104 31.0374C160.048 30.6187 159.828 30.2396 159.492 29.9834C159.156 29.7273 158.732 29.6151 158.313 29.6715C157.894 29.7279 157.515 29.9483 157.259 30.2843H157.275Z" fill="#181818"/>
</g>
<defs>
<clipPath id="clip0_8236_15593">
<rect width="38" height="38" fill="white" transform="translate(134 17)"/>
</clipPath>
</defs>
</svg>
