<svg width="24" height="24" viewBox="0 0 24 24" fill="none" xmlns="http://www.w3.org/2000/svg">
<path d="M20.9954 6.89974C20.9788 6.73169 20.9198 6.5706 20.824 6.43155C20.7281 6.29251 20.5986 6.18007 20.4474 6.10474L12.4474 2.10474C12.3085 2.03522 12.1553 1.99902 11.9999 1.99902C11.8446 1.99902 11.6914 2.03522 11.5524 2.10474L3.55243 6.10474C3.4017 6.18049 3.27254 6.29308 3.17692 6.43205C3.0813 6.57103 3.02231 6.73189 3.00543 6.89974C2.99443 7.00674 2.04443 17.6667 11.5944 21.9137C11.722 21.9713 11.8604 22.0011 12.0004 22.0011C12.1404 22.0011 12.2788 21.9713 12.4064 21.9137C21.9564 17.6667 21.0064 7.00774 20.9954 6.89974ZM12.0004 19.8967C5.23143 16.6247 4.91143 9.64174 4.96643 7.63474L12.0004 4.11774L19.0294 7.63274C19.0664 9.62174 18.7014 16.6507 12.0004 19.8967Z" fill="black"/>
<path d="M11 12.586L8.70697 10.293L7.29297 11.707L11 15.414L16.707 9.70697L15.293 8.29297L11 12.586Z" fill="black"/>
</svg>
