<svg width="24" height="24" viewBox="0 0 24 24" fill="none" xmlns="http://www.w3.org/2000/svg">
<g id="Layer 2">
<g id="chevron-up">
<path id="Vector" d="M15.9999 14.4995C15.8683 14.5003 15.7379 14.4751 15.616 14.4253C15.4942 14.3755 15.3834 14.3022 15.2899 14.2095L11.9999 10.8995L8.69994 14.0795C8.51258 14.2658 8.25912 14.3703 7.99494 14.3703C7.73075 14.3703 7.4773 14.2658 7.28994 14.0795C7.19621 13.9866 7.12182 13.876 7.07105 13.7541C7.02028 13.6322 6.99414 13.5015 6.99414 13.3695C6.99414 13.2375 7.02028 13.1068 7.07105 12.985C7.12182 12.8631 7.19621 12.7525 7.28994 12.6595L11.2899 8.79953C11.4769 8.6163 11.7282 8.51367 11.9899 8.51367C12.2517 8.51367 12.503 8.6163 12.6899 8.79953L16.6899 12.7995C16.7837 12.8925 16.8581 13.0031 16.9088 13.125C16.9596 13.2468 16.9857 13.3775 16.9857 13.5095C16.9857 13.6415 16.9596 13.7722 16.9088 13.8941C16.8581 14.016 16.7837 14.1266 16.6899 14.2195C16.5046 14.3982 16.2574 14.4985 15.9999 14.4995Z" fill="black"/>
</g>
</g>
</svg>
