<svg width="34" height="44" viewBox="0 0 34 44" fill="none" xmlns="http://www.w3.org/2000/svg">
<path d="M30.3573 18.5453C30.6134 16.089 30.2785 13.7505 29.1949 11.6086C27.6581 8.5628 27.5793 5.32047 27.6384 2.01918C27.6384 1.86197 27.6976 1.72442 27.7173 1.56721C27.8158 0.977699 28.2098 0.741893 28.7418 0.800844C29.3131 0.859796 29.5298 1.27246 29.451 1.78337C29.1555 3.82703 29.3525 5.83138 29.9239 7.79643C30.3573 9.25057 30.8499 10.6851 31.3818 12.1195C32.032 13.8291 32.3472 15.5977 32.2684 17.4055C32.1502 19.5278 32.3275 21.5714 32.8989 23.6348C33.687 26.5234 33.2338 29.412 32.2487 32.222C31.5985 34.0888 30.8105 35.9163 29.9042 37.6652C29.1555 39.1194 28.525 40.5932 28.3674 42.2438C28.3083 42.8333 28.0719 43.187 27.402 43.1281C26.7322 43.0691 26.6928 42.6172 26.673 42.0866C26.6336 40.9862 26.811 39.9447 27.2641 38.9032C28.3477 36.4469 29.3722 33.9709 30.4164 31.495C33.0762 25.1478 29.2737 17.9165 22.6341 16.5409C21.452 16.3051 20.7231 16.5016 20.2305 17.3073C19.738 18.113 19.8365 18.899 20.5851 19.4688C21.3141 20.0584 22.1022 20.5889 22.8706 21.1195C26.3775 23.4579 26.811 26.8181 23.9542 29.9426C21.2944 32.8509 18.5755 35.7002 15.7976 38.5102C15.0489 39.2766 14.3002 40.0429 14.0835 41.1434C13.985 41.5757 14.0638 42.008 14.0047 42.4403C13.9062 43.246 13.3151 43.5604 12.7438 42.9905C10.3795 40.6914 7.30601 39.198 5.2767 36.5059C4.96147 36.0932 4.50833 35.7788 4.11429 35.4054C3.68084 34.9731 3.2277 34.5604 2.83366 34.1085C1.61213 32.6936 1.2772 31.1216 2.12439 29.3924C2.282 29.0583 2.32141 28.8225 2.04558 28.5081C0.449717 26.602 0.292102 24.5387 1.47422 22.3771C1.71064 21.9448 1.76975 21.6108 1.53333 21.1195C0.745247 19.4099 0.922565 17.6413 1.49392 15.9317C2.08498 14.1239 2.79425 12.375 3.2474 10.5082C3.58233 9.11302 4.54773 8.11084 5.53283 7.14796C6.45882 6.24404 7.34541 5.30081 7.83796 4.06283C8.15319 3.27681 8.86246 2.98205 9.65054 2.86415C9.94607 2.82485 10.2613 2.8445 10.5765 2.8445C11.8178 2.8445 12.0148 2.66764 12.1921 1.46896C12.2512 1.0563 12.4285 0.761543 12.9014 0.722242C13.4727 0.682941 13.8274 0.977699 13.985 1.48861C14.3593 2.7266 14.7139 3.96458 14.7731 5.26151C14.911 7.52132 14.6942 9.74183 13.9259 11.923C13.453 13.2789 13.0984 14.6938 12.6452 16.0497C12.1527 17.5038 11.3449 18.7418 9.88696 19.4295C9.37471 19.6653 9.2762 20.1566 9.17769 20.6282C9.03978 21.3356 8.66544 21.9055 8.232 22.4164C7.44392 23.34 6.41942 23.6544 5.2767 23.3596C4.2522 23.1042 3.54293 23.4776 2.97157 24.2439C2.57753 24.7745 2.49872 25.3444 2.89276 25.9339C3.2671 26.5037 3.79905 26.6413 4.42952 26.4644C4.70534 26.3858 4.96147 26.2876 5.19789 26.1697C5.61164 25.9928 6.02538 25.8356 6.36031 26.2876C6.67554 26.7395 6.67554 27.2112 6.3012 27.6238C5.76925 28.2133 5.2176 28.7635 4.68564 29.3531C4.42952 29.6282 4.17339 29.9229 3.95667 30.2373C3.52323 30.8661 3.66114 31.436 4.17339 31.9469C4.68564 32.4382 5.257 32.4578 5.82836 32.0452C6.75435 31.3574 7.48332 30.4535 8.33051 29.7068C8.56693 29.5103 8.76395 29.2745 9.02008 29.0976C9.53233 28.7635 10.0249 28.8225 10.4386 29.2941C10.8721 29.7657 10.5962 30.1391 10.2613 30.4731C9.31561 31.436 8.35021 32.3792 7.40452 33.3421C7.14839 33.5976 6.91197 33.8727 6.73465 34.1674C6.36031 34.7766 6.49822 35.3268 6.97107 35.8181C7.44392 36.3093 7.97587 36.3879 8.56693 36.0932C8.96097 35.9163 9.2762 35.6019 9.59144 35.3072C10.813 34.1281 12.0345 32.9295 13.256 31.7308C13.453 31.5343 13.65 31.3378 13.8668 31.1609C14.3396 30.7679 14.8125 30.6696 15.2853 31.1609C15.7779 31.6522 15.502 32.0845 15.1277 32.4775C13.8274 33.7744 12.5467 35.0714 11.2464 36.3683C10.9903 36.6238 10.7736 36.8989 10.5765 37.1936C10.2022 37.7635 10.3007 38.294 10.7933 38.7657C11.2661 39.2373 11.8178 39.3355 12.3891 39.0015C12.6649 38.8443 12.9211 38.6085 13.1772 38.3923C16.7433 35.1893 19.9547 31.6522 23.0873 28.0365C24.4664 26.4448 24.2694 24.7352 22.6735 23.3793C21.9446 22.7701 21.1171 22.3182 20.3487 21.7876C19.5803 21.2767 18.8908 20.6872 18.4376 19.8619C17.7087 18.5649 17.8466 17.268 18.8514 16.1479C19.3439 15.578 19.935 15.1457 20.5851 14.792C21.3732 14.3597 22.1613 14.3794 23.0085 14.6938C24.6831 15.3029 26.2002 16.2462 27.737 17.1304C28.525 17.602 29.3328 18.1719 30.3573 18.5453Z" fill="#6D6D6D"/>
<path d="M7.20706 8.4841C7.26616 8.4841 7.40408 8.46445 7.50259 8.5234C8.76351 9.27012 10.2018 9.68278 11.3839 10.5671C11.8567 10.9208 12.1325 11.4513 11.9355 12.0998C11.6597 13.0234 11.3642 13.1609 10.4185 12.9644C8.80292 12.6107 7.36467 11.9033 6.14315 10.7832C5.74911 10.4295 5.25656 10.1347 5.53239 9.46663C5.76881 8.93606 6.49778 8.4841 7.20706 8.4841Z" fill="white"/>
<path d="M4.98094 12.886C6.36008 13.1415 7.5422 13.8292 8.68491 14.576C9.09866 14.8314 9.45329 15.1458 9.78822 15.4995C10.2611 15.9908 10.2414 16.4821 9.92614 17.0126C9.61091 17.5235 9.17746 17.72 8.5667 17.5235C6.91174 16.9537 5.41439 16.1283 4.03525 15.0869C3.5821 14.7332 3.48359 14.2222 3.72002 13.7113C3.97614 13.2004 4.35048 12.8271 4.98094 12.886Z" fill="white"/>
<path d="M2.69531 18.9577C2.71501 18.3092 3.01054 17.8966 3.66071 17.7787C4.72462 17.6215 6.5175 18.5254 7.08885 19.4293C7.42379 19.9795 7.28587 20.4511 6.97064 20.9031C6.67511 21.3354 6.24167 21.5123 5.70971 21.3354C5.15806 21.1586 4.5867 21.021 4.03505 20.8048C3.18786 20.5101 2.79382 19.842 2.69531 18.9577Z" fill="white"/>
<path d="M12.96 6.87316C12.96 7.73779 12.4872 8.26835 11.7385 8.1701C10.3397 7.97359 9.17726 7.48233 9.03935 6.3033C8.98025 5.79239 9.11816 5.36007 9.5516 5.14392C10.4382 4.69196 11.2657 5.04567 12.0735 5.43868C12.7236 5.75308 12.9403 6.32295 12.96 6.87316Z" fill="white"/>
</svg>
