<svg width="211" height="195" viewBox="0 0 211 195" fill="none" xmlns="http://www.w3.org/2000/svg">
<path fill-rule="evenodd" clip-rule="evenodd" d="M79.1795 21.0011C117.995 20.7788 146.743 54.2354 157.287 91.5103C166.574 124.339 151.212 157.728 123.512 177.719C96.0149 197.564 59.154 201.943 31.5387 182.262C3.27491 162.119 -6.03698 125.632 3.78382 92.3896C14.6143 55.7292 40.8763 21.2205 79.1795 21.0011Z" fill="white"/>
<circle cx="102" cy="90" r="67" stroke="black" stroke-width="2" stroke-dasharray="4 4"/>
<circle cx="92.5" cy="146.5" r="34.5" fill="#DAFF01"/>
<path d="M107.594 129.25H77.4062C75.6906 129.25 74.0453 129.932 72.8322 131.145C71.619 132.358 70.9375 134.003 70.9375 135.719V157.281C70.9375 158.997 71.619 160.642 72.8322 161.855C74.0453 163.068 75.6906 163.75 77.4062 163.75H107.594C109.309 163.75 110.955 163.068 112.168 161.855C113.381 160.642 114.062 158.997 114.062 157.281V135.719C114.062 134.003 113.381 132.358 112.168 131.145C110.955 129.932 109.309 129.25 107.594 129.25ZM106.149 133.562L92.5 143.805L78.8509 133.562H106.149ZM107.594 159.438H77.4062C76.8344 159.438 76.2859 159.21 75.8816 158.806C75.4772 158.402 75.25 157.853 75.25 157.281V136.258L91.2062 148.225C91.5795 148.505 92.0335 148.656 92.5 148.656C92.9665 148.656 93.4205 148.505 93.7938 148.225L109.75 136.258V157.281C109.75 157.853 109.523 158.402 109.118 158.806C108.714 159.21 108.166 159.438 107.594 159.438Z" fill="black"/>
<circle cx="118.5" cy="25.5" r="20.6775" transform="rotate(74.3055 118.5 25.5)" fill="#DAFF01"/>
<path d="M118.233 15.1396C112.667 15.1396 108.14 19.6674 108.14 25.2327C108.14 30.798 112.667 35.3257 118.233 35.3257C123.798 35.3257 128.326 30.798 128.326 25.2327C128.326 19.6674 123.798 15.1396 118.233 15.1396ZM118.233 33.3071C113.781 33.3071 110.158 29.6847 110.158 25.2327C110.158 20.7807 113.781 17.1583 118.233 17.1583C122.685 17.1583 126.307 20.7807 126.307 25.2327C126.307 29.6847 122.685 33.3071 118.233 33.3071Z" fill="black"/>
<path d="M121.089 28.0868C120.72 28.4545 120.284 28.7484 119.805 28.9527C118.942 29.3169 117.98 29.3701 117.082 29.1032C116.185 28.8362 115.408 28.2657 114.884 27.4893L113.211 28.6187C113.647 29.2627 114.203 29.8177 114.847 30.2537C115.503 30.6972 116.239 31.0069 117.015 31.1651C117.819 31.3292 118.648 31.3292 119.452 31.1651C120.228 31.0066 120.965 30.6969 121.62 30.2537C121.936 30.0398 122.238 29.7915 122.515 29.5159C122.789 29.2424 123.04 28.9396 123.256 28.6187L121.582 27.4893C121.437 27.7037 121.272 27.9038 121.089 28.0868Z" fill="black"/>
<path d="M114.7 25.233C115.537 25.233 116.214 24.5552 116.214 23.719C116.214 22.8829 115.537 22.2051 114.7 22.2051C113.864 22.2051 113.187 22.8829 113.187 23.719C113.187 24.5552 113.864 25.233 114.7 25.233Z" fill="black"/>
<path d="M121.758 25.2189C122.59 25.2189 123.265 24.5442 123.265 23.712C123.265 22.8797 122.59 22.2051 121.758 22.2051C120.926 22.2051 120.251 22.8797 120.251 23.712C120.251 24.5442 120.926 25.2189 121.758 25.2189Z" fill="black"/>
<circle cx="30.5" cy="66.5" r="24.5" fill="#DAFF01"/>
<path d="M30.4997 73.7503C35.333 73.7503 36.5413 68.917 36.5413 68.917H24.458C24.458 68.917 25.6663 73.7503 30.4997 73.7503Z" fill="black"/>
<path d="M30.5003 78.5837C37.1631 78.5837 42.5837 73.1631 42.5837 66.5003C42.5837 59.8376 37.1631 54.417 30.5003 54.417C23.8376 54.417 18.417 59.8376 18.417 66.5003C18.417 73.1631 23.8376 78.5837 30.5003 78.5837ZM30.5003 56.8337C35.8303 56.8337 40.167 61.1704 40.167 66.5003C40.167 71.8303 35.8303 76.167 30.5003 76.167C25.1704 76.167 20.8337 71.8303 20.8337 66.5003C20.8337 61.1704 25.1704 56.8337 30.5003 56.8337Z" fill="black"/>
<path d="M26.3136 67.2664L28.7906 64.7495C28.9591 64.581 29.0924 64.3807 29.1826 64.1602C29.2729 63.9398 29.3183 63.7035 29.3163 63.4653C29.3142 63.2271 29.2648 62.9916 29.1708 62.7727C29.0768 62.5538 28.9402 62.3558 28.7689 62.1902C28.4389 61.8623 27.9947 61.6749 27.5296 61.6672C27.0644 61.6596 26.6143 61.8323 26.2737 62.1491C25.928 61.8363 25.4742 61.6701 25.0083 61.6854C24.5423 61.7007 24.1005 61.8965 23.7761 62.2313C23.068 62.9563 23.0764 64.0801 23.799 64.7893L26.3136 67.2664ZM34.7719 67.2664L37.249 64.7495C37.4175 64.581 37.5507 64.3807 37.6409 64.1602C37.7312 63.9398 37.7766 63.7035 37.7746 63.4653C37.7726 63.2271 37.7231 62.9916 37.6291 62.7727C37.5352 62.5538 37.3985 62.3558 37.2272 62.1902C36.8972 61.8623 36.4531 61.6749 35.9879 61.6672C35.5227 61.6596 35.0727 61.8323 34.732 62.1491C34.3864 61.8358 33.9325 61.6691 33.4662 61.6842C33 61.6993 32.5578 61.8951 32.2332 62.2301C31.5251 62.9551 31.5336 64.0788 32.2561 64.7881L34.7719 67.2664Z" fill="black"/>
<ellipse cx="174.5" cy="82.5" rx="31.9586" ry="31.9586" transform="rotate(98.8611 174.5 82.5)" fill="#DAFF01"/>
<path d="M174.914 66.2861C165.746 66.2861 158.286 73.7456 158.286 82.9144C158.286 92.0832 165.746 99.5426 174.914 99.5426C184.083 99.5426 191.543 92.0832 191.543 82.9144C191.543 73.7456 184.083 66.2861 174.914 66.2861ZM174.914 96.217C167.58 96.217 161.612 90.2491 161.612 82.9144C161.612 75.5797 167.58 69.6118 174.914 69.6118C182.249 69.6118 188.217 75.5797 188.217 82.9144C188.217 90.2491 182.249 96.217 174.914 96.217Z" fill="black"/>
<path d="M169.095 82.9152C170.472 82.9152 171.589 81.7985 171.589 80.421C171.589 79.0435 170.472 77.9268 169.095 77.9268C167.717 77.9268 166.601 79.0435 166.601 80.421C166.601 81.7985 167.717 82.9152 169.095 82.9152Z" fill="black"/>
<path d="M180.723 82.892C182.094 82.892 183.205 81.7805 183.205 80.4094C183.205 79.0383 182.094 77.9268 180.723 77.9268C179.352 77.9268 178.24 79.0383 178.24 80.4094C178.24 81.7805 179.352 82.892 180.723 82.892Z" fill="black"/>
<path d="M174.915 92.8923C177.67 92.8923 179.904 91.0311 179.904 88.7352C179.904 86.4393 177.67 84.5781 174.915 84.5781C172.16 84.5781 169.927 86.4393 169.927 88.7352C169.927 91.0311 172.16 92.8923 174.915 92.8923Z" fill="black"/>
</svg>
